<?xml version="1.0" encoding="UTF-8"?>
<svg xmlns="http://www.w3.org/2000/svg" xmlns:xlink="http://www.w3.org/1999/xlink" width="21px" height="15px" viewBox="0 0 21 15" version="1.1">
<defs>
<linearGradient id="linear0" gradientUnits="userSpaceOnUse" x1="0.5" y1="0" x2="0.5" y2="1" gradientTransform="matrix(21,0,0,15,0,0)">
<stop offset="0" style="stop-color:rgb(100%,100%,100%);stop-opacity:1;"/>
<stop offset="1" style="stop-color:rgb(94.117647%,94.117647%,94.117647%);stop-opacity:1;"/>
</linearGradient>
<linearGradient id="linear1" gradientUnits="userSpaceOnUse" x1="0.5" y1="0" x2="0.5" y2="1" gradientTransform="matrix(11,0,0,15,10,0)">
<stop offset="0" style="stop-color:rgb(10.196078%,69.411765%,12.156863%);stop-opacity:1;"/>
<stop offset="1" style="stop-color:rgb(7.843137%,59.607843%,9.411765%);stop-opacity:1;"/>
</linearGradient>
<linearGradient id="linear2" gradientUnits="userSpaceOnUse" x1="0.5" y1="0" x2="0.5" y2="1" gradientTransform="matrix(7,0,0,15,0,0)">
<stop offset="0" style="stop-color:rgb(14.901961%,14.901961%,14.901961%);stop-opacity:1;"/>
<stop offset="1" style="stop-color:rgb(5.098039%,5.098039%,5.098039%);stop-opacity:1;"/>
</linearGradient>
<linearGradient id="linear3" gradientUnits="userSpaceOnUse" x1="0.5" y1="0" x2="0.5" y2="1" gradientTransform="matrix(7,0,0,15,7,0)">
<stop offset="0" style="stop-color:rgb(86.27451%,5.098039%,9.411765%);stop-opacity:1;"/>
<stop offset="1" style="stop-color:rgb(74.509804%,2.745098%,6.666667%);stop-opacity:1;"/>
</linearGradient>
<filter id="alpha" filterUnits="objectBoundingBox" x="0%" y="0%" width="100%" height="100%">
  <feColorMatrix type="matrix" in="SourceGraphic" values="0 0 0 0 1 0 0 0 0 1 0 0 0 0 1 0 0 0 1 0"/>
</filter>
<mask id="mask0">
  <g filter="url(#alpha)">
<rect x="0" y="0" width="21" height="15" style="fill:rgb(0%,0%,0%);fill-opacity:0.74902;stroke:none;"/>
  </g>
</mask>
<clipPath id="clip1">
  <rect x="0" y="0" width="21" height="15"/>
</clipPath>
<g id="surface5" clip-path="url(#clip1)">
<path style=" stroke:none;fill-rule:nonzero;fill:rgb(100%,100%,100%);fill-opacity:1;" d="M 8 7 C 8 7.902344 8.480469 8.71875 9.246094 9.164062 C 9.484375 9.300781 9.792969 9.222656 9.929688 8.980469 C 10.070312 8.742188 9.988281 8.4375 9.75 8.296875 C 9.289062 8.03125 9 7.542969 9 7 C 9 6.722656 8.777344 6.5 8.5 6.5 C 8.222656 6.5 8 6.722656 8 7 Z M 11.84375 9.105469 C 12.558594 8.652344 13 7.863281 13 7 C 13 6.722656 12.777344 6.5 12.5 6.5 C 12.222656 6.5 12 6.722656 12 7 C 12 7.519531 11.734375 7.992188 11.308594 8.265625 C 11.074219 8.414062 11.007812 8.722656 11.15625 8.957031 C 11.304688 9.1875 11.613281 9.257812 11.84375 9.105469 Z M 11.84375 9.105469 "/>
</g>
</defs>
<g id="surface1">
<rect x="0" y="0" width="21" height="15" style="fill:url(#linear0);stroke:none;"/>
<path style=" stroke:none;fill-rule:evenodd;fill:url(#linear1);" d="M 10 0 L 21 0 L 21 15 L 10 15 Z M 10 0 "/>
<path style=" stroke:none;fill-rule:evenodd;fill:url(#linear2);" d="M 0 0 L 7 0 L 7 15 L 0 15 Z M 0 0 "/>
<path style=" stroke:none;fill-rule:evenodd;fill:url(#linear3);" d="M 7 0 L 14 0 L 14 15 L 7 15 Z M 7 0 "/>
<use xlink:href="#surface5" mask="url(#mask0)"/>
<path style=" stroke:none;fill-rule:evenodd;fill:rgb(100%,100%,100%);fill-opacity:0.501961;" d="M 11.5 6.5 C 11.5 5.671875 11.050781 5 10.5 5 C 9.949219 5 9.5 5.671875 9.5 6.5 C 9.5 7.328125 9.949219 8 10.5 8 C 11.050781 8 11.5 7.328125 11.5 6.5 Z M 11.5 6.5 "/>
</g>
</svg>
