<?xml version="1.0" encoding="UTF-8"?>
<svg xmlns="http://www.w3.org/2000/svg" xmlns:xlink="http://www.w3.org/1999/xlink" width="21px" height="15px" viewBox="0 0 21 15" version="1.1">
<defs>
<linearGradient id="linear0" gradientUnits="userSpaceOnUse" x1="0.5" y1="0" x2="0.5" y2="1" gradientTransform="matrix(21,0,0,15,0,0)">
<stop offset="0" style="stop-color:rgb(100%,100%,100%);stop-opacity:1;"/>
<stop offset="1" style="stop-color:rgb(94.117647%,94.117647%,94.117647%);stop-opacity:1;"/>
</linearGradient>
<linearGradient id="linear1" gradientUnits="userSpaceOnUse" x1="0.5" y1="0" x2="0.5" y2="1" gradientTransform="matrix(21,0,0,5,0,0)">
<stop offset="0" style="stop-color:rgb(14.117647%,66.666667%,83.529412%);stop-opacity:1;"/>
<stop offset="1" style="stop-color:rgb(9.411765%,60%,76.078431%);stop-opacity:1;"/>
</linearGradient>
<linearGradient id="linear2" gradientUnits="userSpaceOnUse" x1="0.5" y1="0" x2="0.5" y2="1" gradientTransform="matrix(21,0,0,5,0,5)">
<stop offset="0" style="stop-color:rgb(92.941176%,9.411765%,27.058824%);stop-opacity:1;"/>
<stop offset="1" style="stop-color:rgb(87.058824%,4.705882%,22.352941%);stop-opacity:1;"/>
</linearGradient>
<linearGradient id="linear3" gradientUnits="userSpaceOnUse" x1="0.5" y1="0" x2="0.5" y2="1" gradientTransform="matrix(21,0,0,5,0,10)">
<stop offset="0" style="stop-color:rgb(12.941176%,74.901961%,45.882353%);stop-opacity:1;"/>
<stop offset="1" style="stop-color:rgb(9.803922%,67.843137%,40.784314%);stop-opacity:1;"/>
</linearGradient>
<linearGradient id="linear4" gradientUnits="userSpaceOnUse" x1="0.5" y1="0" x2="0.5" y2="1" gradientTransform="matrix(3,0,0,3,9,6)">
<stop offset="0" style="stop-color:rgb(100%,100%,100%);stop-opacity:1;"/>
<stop offset="1" style="stop-color:rgb(94.117647%,94.117647%,94.117647%);stop-opacity:1;"/>
</linearGradient>
</defs>
<g id="surface1">
<rect x="0" y="0" width="21" height="15" style="fill:url(#linear0);stroke:none;"/>
<path style=" stroke:none;fill-rule:evenodd;fill:url(#linear1);" d="M 0 0 L 21 0 L 21 5 L 0 5 Z M 0 0 "/>
<path style=" stroke:none;fill-rule:evenodd;fill:url(#linear2);" d="M 0 5 L 21 5 L 21 10 L 0 10 Z M 0 5 "/>
<path style=" stroke:none;fill-rule:evenodd;fill:url(#linear3);" d="M 0 10 L 21 10 L 21 15 L 0 15 Z M 0 10 "/>
<path style=" stroke:none;fill-rule:evenodd;fill:url(#linear4);" d="M 11.332031 6.253906 C 11.304688 6.25 11.277344 6.25 11.25 6.25 C 10.558594 6.25 10 6.808594 10 7.5 C 10 8.191406 10.558594 8.75 11.25 8.75 C 11.277344 8.75 11.304688 8.75 11.332031 8.746094 C 11.09375 8.90625 10.808594 9 10.5 9 C 9.671875 9 9 8.328125 9 7.5 C 9 6.671875 9.671875 6 10.5 6 C 10.808594 6 11.09375 6.09375 11.332031 6.253906 Z M 11.5 8 C 11.222656 8 11 7.777344 11 7.5 C 11 7.222656 11.222656 7 11.5 7 C 11.777344 7 12 7.222656 12 7.5 C 12 7.777344 11.777344 8 11.5 8 Z M 11.5 8 "/>
</g>
</svg>
