<?xml version="1.0" encoding="UTF-8"?>
<svg xmlns="http://www.w3.org/2000/svg" xmlns:xlink="http://www.w3.org/1999/xlink" width="21px" height="15px" viewBox="0 0 21 15" version="1.1">
<defs>
<linearGradient id="linear0" gradientUnits="userSpaceOnUse" x1="0.5" y1="0" x2="0.5" y2="1" gradientTransform="matrix(21,0,0,15,0,0)">
<stop offset="0" style="stop-color:rgb(100%,100%,100%);stop-opacity:1;"/>
<stop offset="1" style="stop-color:rgb(94.117647%,94.117647%,94.117647%);stop-opacity:1;"/>
</linearGradient>
<linearGradient id="linear1" gradientUnits="userSpaceOnUse" x1="0.5" y1="0" x2="0.5" y2="1" gradientTransform="matrix(21,0,0,15,0,0)">
<stop offset="0" style="stop-color:rgb(1.568627%,23.529412%,68.235294%);stop-opacity:1;"/>
<stop offset="1" style="stop-color:rgb(0%,20%,60.392157%);stop-opacity:1;"/>
</linearGradient>
<linearGradient id="linear2" gradientUnits="userSpaceOnUse" x1="0.5" y1="0" x2="0.5" y2="1" gradientTransform="matrix(11.414062,0,0,11.414062,4.792969,1.792969)">
<stop offset="0" style="stop-color:rgb(100%,83.137255%,16.078431%);stop-opacity:1;"/>
<stop offset="1" style="stop-color:rgb(100%,80%,0%);stop-opacity:1;"/>
</linearGradient>
</defs>
<g id="surface1">
<rect x="0" y="0" width="21" height="15" style="fill:url(#linear0);stroke:none;"/>
<rect x="0" y="0" width="21" height="15" style="fill:url(#linear1);stroke:none;"/>
<path style=" stroke:none;fill-rule:evenodd;fill:url(#linear2);" d="M 10.5 3 L 9.792969 3.207031 L 10 2.5 L 9.792969 1.792969 L 10.5 2 L 11.207031 1.792969 L 11 2.5 L 11.207031 3.207031 Z M 10.5 13 L 9.792969 13.207031 L 10 12.5 L 9.792969 11.792969 L 10.5 12 L 11.207031 11.792969 L 11 12.5 L 11.207031 13.207031 Z M 15.5 8 L 14.792969 8.207031 L 15 7.5 L 14.792969 6.792969 L 15.5 7 L 16.207031 6.792969 L 16 7.5 L 16.207031 8.207031 Z M 5.5 8 L 4.792969 8.207031 L 5 7.5 L 4.792969 6.792969 L 5.5 7 L 6.207031 6.792969 L 6 7.5 L 6.207031 8.207031 Z M 14.832031 5.5 L 14.121094 5.707031 L 14.332031 5 L 14.121094 4.292969 L 14.832031 4.5 L 15.539062 4.292969 L 15.332031 5 L 15.539062 5.707031 Z M 6.167969 10.5 L 5.460938 10.707031 L 5.667969 10 L 5.460938 9.292969 L 6.167969 9.5 L 6.878906 9.292969 L 6.667969 10 L 6.878906 10.707031 Z M 13 3.667969 L 12.292969 3.878906 L 12.5 3.167969 L 12.292969 2.460938 L 13 2.667969 L 13.707031 2.460938 L 13.5 3.167969 L 13.707031 3.878906 Z M 8 12.332031 L 7.292969 12.539062 L 7.5 11.832031 L 7.292969 11.121094 L 8 11.332031 L 8.707031 11.121094 L 8.5 11.832031 L 8.707031 12.539062 Z M 14.832031 10.5 L 14.121094 10.707031 L 14.332031 10 L 14.121094 9.292969 L 14.832031 9.5 L 15.539062 9.292969 L 15.332031 10 L 15.539062 10.707031 Z M 6.167969 5.5 L 5.460938 5.707031 L 5.667969 5 L 5.460938 4.292969 L 6.167969 4.5 L 6.878906 4.292969 L 6.667969 5 L 6.878906 5.707031 Z M 13 12.332031 L 12.292969 12.539062 L 12.5 11.832031 L 12.292969 11.121094 L 13 11.332031 L 13.707031 11.121094 L 13.5 11.832031 L 13.707031 12.539062 Z M 8 3.667969 L 7.292969 3.878906 L 7.5 3.167969 L 7.292969 2.460938 L 8 2.667969 L 8.707031 2.460938 L 8.5 3.167969 L 8.707031 3.878906 Z M 8 3.667969 "/>
</g>
</svg>
