<?xml version="1.0" encoding="UTF-8"?>
<svg xmlns="http://www.w3.org/2000/svg" xmlns:xlink="http://www.w3.org/1999/xlink" width="21px" height="15px" viewBox="0 0 22 15" version="1.1">
<g id="surface1">
<rect x="0" y="0" width="22" height="15" style="fill:rgb(87.058824%,16.078431%,6.27451%);fill-opacity:1;stroke:none;"/>
<path style=" stroke:none;fill-rule:nonzero;fill:rgb(100%,87.058824%,0%);fill-opacity:1;" d="M 3.667969 1.5 L 4.960938 5.570312 L 1.574219 3.054688 L 5.757812 3.054688 L 2.375 5.570312 Z M 3.667969 1.5 "/>
<path style=" stroke:none;fill-rule:nonzero;fill:rgb(100%,87.058824%,0%);fill-opacity:1;" d="M 7.621094 0.808594 L 7.496094 2.230469 L 6.78125 1.007812 L 8.0625 1.566406 L 6.703125 1.886719 Z M 7.621094 0.808594 "/>
<path style=" stroke:none;fill-rule:nonzero;fill:rgb(100%,87.058824%,0%);fill-opacity:1;" d="M 9.328125 2.476562 L 8.675781 3.738281 L 8.476562 2.328125 L 9.449219 3.351562 L 8.074219 3.105469 Z M 9.328125 2.476562 "/>
<path style=" stroke:none;fill-rule:nonzero;fill:rgb(100%,87.058824%,0%);fill-opacity:1;" d="M 9.488281 4.992188 L 8.390625 5.871094 L 8.773438 4.5 L 9.253906 5.839844 L 8.09375 5.042969 Z M 9.488281 4.992188 "/>
<path style=" stroke:none;fill-rule:nonzero;fill:rgb(100%,87.058824%,0%);fill-opacity:1;" d="M 7.59375 6.046875 L 7.527344 7.472656 L 6.761719 6.28125 L 8.066406 6.785156 L 6.71875 7.164062 Z M 7.59375 6.046875 "/>
</g>
</svg>
