<?xml version="1.0" encoding="UTF-8"?>
<svg xmlns="http://www.w3.org/2000/svg" xmlns:xlink="http://www.w3.org/1999/xlink" width="21px" height="15px" viewBox="0 0 22 15" version="1.1">
<defs>
<clipPath id="clip1">
  <path d="M 0 0 L 9 0 L 9 9 L 0 9 Z M 0 0 "/>
</clipPath>
<clipPath id="clip2">
  <path d="M -3.265625 10.757812 C 0.945312 10.757812 4.359375 7.265625 4.359375 2.957031 C 4.359375 -1.347656 0.945312 -4.839844 -3.265625 -4.839844 L 12.71875 -4.839844 C 8.507812 -4.839844 5.09375 -1.347656 5.09375 2.957031 C 5.09375 7.265625 8.507812 10.757812 12.71875 10.757812 Z M -3.265625 10.757812 "/>
</clipPath>
<clipPath id="clip3">
  <path d="M 0 0 L 11 0 L 11 8 L 0 8 Z M 0 0 "/>
</clipPath>
<clipPath id="clip4">
  <path d="M -2.898438 -5.214844 C -2.898438 -0.910156 0.515625 2.582031 4.726562 2.582031 C 8.9375 2.582031 12.351562 -0.910156 12.351562 -5.214844 L 12.351562 11.132812 C 12.351562 6.824219 8.9375 3.332031 4.726562 3.332031 C 0.515625 3.332031 -2.898438 6.824219 -2.898438 11.132812 Z M -2.898438 -5.214844 "/>
</clipPath>
<clipPath id="clip5">
  <path d="M 13 6 L 22 6 L 22 15 L 13 15 Z M 13 6 "/>
</clipPath>
<clipPath id="clip6">
  <path d="M 9.28125 19.839844 C 13.492188 19.839844 16.90625 16.347656 16.90625 12.042969 C 16.90625 7.734375 13.492188 4.242188 9.28125 4.242188 L 25.265625 4.242188 C 21.054688 4.242188 17.640625 7.734375 17.640625 12.042969 C 17.640625 16.347656 21.054688 19.839844 25.265625 19.839844 Z M 9.28125 19.839844 "/>
</clipPath>
<clipPath id="clip7">
  <path d="M 11 7 L 22 7 L 22 15 L 11 15 Z M 11 7 "/>
</clipPath>
<clipPath id="clip8">
  <path d="M 9.648438 3.867188 C 9.648438 8.175781 13.0625 11.667969 17.273438 11.667969 C 21.484375 11.667969 24.898438 8.175781 24.898438 3.867188 L 24.898438 20.214844 C 24.898438 15.910156 21.484375 12.417969 17.273438 12.417969 C 13.0625 12.417969 9.648438 15.910156 9.648438 20.214844 Z M 9.648438 3.867188 "/>
</clipPath>
<clipPath id="clip9">
  <path d="M 13 0 L 22 0 L 22 9 L 13 9 Z M 13 0 "/>
</clipPath>
<clipPath id="clip10">
  <path d="M 9.28125 10.757812 C 13.492188 10.757812 16.90625 7.265625 16.90625 2.957031 C 16.90625 -1.347656 13.492188 -4.839844 9.28125 -4.839844 L 25.265625 -4.839844 C 21.054688 -4.839844 17.640625 -1.347656 17.640625 2.957031 C 17.640625 7.265625 21.054688 10.757812 25.265625 10.757812 Z M 9.28125 10.757812 "/>
</clipPath>
<clipPath id="clip11">
  <path d="M 11 0 L 22 0 L 22 8 L 11 8 Z M 11 0 "/>
</clipPath>
<clipPath id="clip12">
  <path d="M 9.648438 -5.214844 C 9.648438 -0.910156 13.0625 2.582031 17.273438 2.582031 C 21.484375 2.582031 24.898438 -0.910156 24.898438 -5.214844 L 24.898438 11.132812 C 24.898438 6.824219 21.484375 3.332031 17.273438 3.332031 C 13.0625 3.332031 9.648438 6.824219 9.648438 11.132812 Z M 9.648438 -5.214844 "/>
</clipPath>
<clipPath id="clip13">
  <path d="M 0 6 L 9 6 L 9 15 L 0 15 Z M 0 6 "/>
</clipPath>
<clipPath id="clip14">
  <path d="M -3.265625 19.839844 C 0.945312 19.839844 4.359375 16.347656 4.359375 12.042969 C 4.359375 7.734375 0.945312 4.242188 -3.265625 4.242188 L 12.71875 4.242188 C 8.507812 4.242188 5.09375 7.734375 5.09375 12.042969 C 5.09375 16.347656 8.507812 19.839844 12.71875 19.839844 Z M -3.265625 19.839844 "/>
</clipPath>
<clipPath id="clip15">
  <path d="M 0 7 L 11 7 L 11 15 L 0 15 Z M 0 7 "/>
</clipPath>
<clipPath id="clip16">
  <path d="M -2.898438 3.867188 C -2.898438 8.175781 0.515625 11.667969 4.726562 11.667969 C 8.9375 11.667969 12.351562 8.175781 12.351562 3.867188 L 12.351562 20.214844 C 12.351562 15.910156 8.9375 12.417969 4.726562 12.417969 C 0.515625 12.417969 -2.898438 15.910156 -2.898438 20.214844 Z M -2.898438 3.867188 "/>
</clipPath>
</defs>
<g id="surface1">
<rect x="0" y="0" width="22" height="15" style="fill:rgb(100%,100%,100%);fill-opacity:1;stroke:none;"/>
<path style=" stroke:none;fill-rule:nonzero;fill:rgb(100%,0%,0%);fill-opacity:1;" d="M 9.535156 0 L 9.535156 6 L 0 6 L 0 9 L 9.535156 9 L 9.535156 15 L 12.464844 15 L 12.464844 9 L 22 9 L 22 6 L 12.464844 6 L 12.464844 0 Z M 9.535156 0 "/>
<g clip-path="url(#clip1)" clip-rule="nonzero">
<g clip-path="url(#clip2)" clip-rule="nonzero">
<path style=" stroke:none;fill-rule:nonzero;fill:rgb(100%,0%,0%);fill-opacity:1;" d="M 0.691406 8.507812 C 0.691406 6.230469 2.5 4.382812 4.726562 4.382812 C 6.953125 4.382812 8.757812 6.230469 8.757812 8.507812 L 8.757812 -2.589844 C 8.757812 -0.3125 6.953125 1.535156 4.726562 1.535156 C 2.5 1.535156 0.691406 -0.3125 0.691406 -2.589844 Z M 0.691406 8.507812 "/>
</g>
</g>
<g clip-path="url(#clip3)" clip-rule="nonzero">
<g clip-path="url(#clip4)" clip-rule="nonzero">
<path style=" stroke:none;fill-rule:nonzero;fill:rgb(100%,0%,0%);fill-opacity:1;" d="M -0.699219 -1.167969 C 1.527344 -1.167969 3.332031 0.679688 3.332031 2.957031 C 3.332031 5.238281 1.527344 7.082031 -0.699219 7.082031 L 10.152344 7.082031 C 7.925781 7.082031 6.121094 5.238281 6.121094 2.957031 C 6.121094 0.679688 7.925781 -1.167969 10.152344 -1.167969 Z M -0.699219 -1.167969 "/>
</g>
</g>
<g clip-path="url(#clip5)" clip-rule="nonzero">
<g clip-path="url(#clip6)" clip-rule="nonzero">
<path style=" stroke:none;fill-rule:nonzero;fill:rgb(100%,0%,0%);fill-opacity:1;" d="M 13.242188 17.589844 C 13.242188 15.3125 15.046875 13.464844 17.273438 13.464844 C 19.5 13.464844 21.308594 15.3125 21.308594 17.589844 L 21.308594 6.492188 C 21.308594 8.769531 19.5 10.617188 17.273438 10.617188 C 15.046875 10.617188 13.242188 8.769531 13.242188 6.492188 Z M 13.242188 17.589844 "/>
</g>
</g>
<g clip-path="url(#clip7)" clip-rule="nonzero">
<g clip-path="url(#clip8)" clip-rule="nonzero">
<path style=" stroke:none;fill-rule:nonzero;fill:rgb(100%,0%,0%);fill-opacity:1;" d="M 11.847656 7.917969 C 14.074219 7.917969 15.878906 9.761719 15.878906 12.042969 C 15.878906 14.320312 14.074219 16.167969 11.847656 16.167969 L 22.699219 16.167969 C 20.472656 16.167969 18.667969 14.320312 18.667969 12.042969 C 18.667969 9.761719 20.472656 7.917969 22.699219 7.917969 Z M 11.847656 7.917969 "/>
</g>
</g>
<g clip-path="url(#clip9)" clip-rule="nonzero">
<g clip-path="url(#clip10)" clip-rule="nonzero">
<path style=" stroke:none;fill-rule:nonzero;fill:rgb(100%,0%,0%);fill-opacity:1;" d="M 13.242188 8.507812 C 13.242188 6.230469 15.046875 4.382812 17.273438 4.382812 C 19.5 4.382812 21.308594 6.230469 21.308594 8.507812 L 21.308594 -2.589844 C 21.308594 -0.3125 19.5 1.535156 17.273438 1.535156 C 15.046875 1.535156 13.242188 -0.3125 13.242188 -2.589844 Z M 13.242188 8.507812 "/>
</g>
</g>
<g clip-path="url(#clip11)" clip-rule="nonzero">
<g clip-path="url(#clip12)" clip-rule="nonzero">
<path style=" stroke:none;fill-rule:nonzero;fill:rgb(100%,0%,0%);fill-opacity:1;" d="M 11.847656 -1.167969 C 14.074219 -1.167969 15.878906 0.679688 15.878906 2.957031 C 15.878906 5.238281 14.074219 7.082031 11.847656 7.082031 L 22.699219 7.082031 C 20.472656 7.082031 18.667969 5.238281 18.667969 2.957031 C 18.667969 0.679688 20.472656 -1.167969 22.699219 -1.167969 Z M 11.847656 -1.167969 "/>
</g>
</g>
<g clip-path="url(#clip13)" clip-rule="nonzero">
<g clip-path="url(#clip14)" clip-rule="nonzero">
<path style=" stroke:none;fill-rule:nonzero;fill:rgb(100%,0%,0%);fill-opacity:1;" d="M 0.691406 17.589844 C 0.691406 15.3125 2.5 13.464844 4.726562 13.464844 C 6.953125 13.464844 8.757812 15.3125 8.757812 17.589844 L 8.757812 6.492188 C 8.757812 8.769531 6.953125 10.617188 4.726562 10.617188 C 2.5 10.617188 0.691406 8.769531 0.691406 6.492188 Z M 0.691406 17.589844 "/>
</g>
</g>
<g clip-path="url(#clip15)" clip-rule="nonzero">
<g clip-path="url(#clip16)" clip-rule="nonzero">
<path style=" stroke:none;fill-rule:nonzero;fill:rgb(100%,0%,0%);fill-opacity:1;" d="M -0.699219 7.917969 C 1.527344 7.917969 3.332031 9.761719 3.332031 12.042969 C 3.332031 14.320312 1.527344 16.167969 -0.699219 16.167969 L 10.152344 16.167969 C 7.925781 16.167969 6.121094 14.320312 6.121094 12.042969 C 6.121094 9.761719 7.925781 7.917969 10.152344 7.917969 Z M -0.699219 7.917969 "/>
</g>
</g>
</g>
</svg>
