<?xml version="1.0" encoding="UTF-8"?>
<svg xmlns="http://www.w3.org/2000/svg" xmlns:xlink="http://www.w3.org/1999/xlink" width="21px" height="15px" viewBox="0 0 21 15" version="1.1">
<defs>
<linearGradient id="linear0" gradientUnits="userSpaceOnUse" x1="0.5" y1="0" x2="0.5" y2="1" gradientTransform="matrix(21,0,0,15,0,0)">
<stop offset="0" style="stop-color:rgb(100%,100%,100%);stop-opacity:1;"/>
<stop offset="1" style="stop-color:rgb(94.117647%,94.117647%,94.117647%);stop-opacity:1;"/>
</linearGradient>
<linearGradient id="linear1" gradientUnits="userSpaceOnUse" x1="0.5" y1="0" x2="0.5" y2="1" gradientTransform="matrix(21,0,0,10,0,0)">
<stop offset="0" style="stop-color:rgb(11.764706%,75.686275%,37.647059%);stop-opacity:1;"/>
<stop offset="1" style="stop-color:rgb(8.627451%,61.960784%,30.196078%);stop-opacity:1;"/>
</linearGradient>
<linearGradient id="linear2" gradientUnits="userSpaceOnUse" x1="0.5" y1="0" x2="0.5" y2="1" gradientTransform="matrix(21,0,0,10,0,5)">
<stop offset="0" style="stop-color:rgb(87.45098%,16.470588%,25.098039%);stop-opacity:1;"/>
<stop offset="1" style="stop-color:rgb(80%,8.627451%,17.254902%);stop-opacity:1;"/>
</linearGradient>
<linearGradient id="linear3" gradientUnits="userSpaceOnUse" x1="0.5" y1="0.167418" x2="0.5" y2="0.824217" gradientTransform="matrix(29.363281,0,0,23,-4.179688,-4)">
<stop offset="0" style="stop-color:rgb(100%,85.098039%,33.72549%);stop-opacity:1;"/>
<stop offset="1" style="stop-color:rgb(98.823529%,81.568627%,21.176471%);stop-opacity:1;"/>
</linearGradient>
<linearGradient id="linear4" gradientUnits="userSpaceOnUse" x1="0.5" y1="0" x2="0.5" y2="1" gradientTransform="matrix(27.242188,0,0,19.609375,-3.121094,-2.304688)">
<stop offset="0" style="stop-color:rgb(14.901961%,14.901961%,14.901961%);stop-opacity:1;"/>
<stop offset="1" style="stop-color:rgb(5.098039%,5.098039%,5.098039%);stop-opacity:1;"/>
</linearGradient>
<linearGradient id="linear5" gradientUnits="userSpaceOnUse" x1="0.5" y1="0" x2="0.5" y2="1" gradientTransform="matrix(3.78125,0,0,3.722656,12.777344,3.25)">
<stop offset="0" style="stop-color:rgb(100%,100%,100%);stop-opacity:1;"/>
<stop offset="1" style="stop-color:rgb(94.117647%,94.117647%,94.117647%);stop-opacity:1;"/>
</linearGradient>
<linearGradient id="linear6" gradientUnits="userSpaceOnUse" x1="0.5" y1="0" x2="0.5" y2="1" gradientTransform="matrix(3.78125,0,0,3.71875,4.777344,8.101562)">
<stop offset="0" style="stop-color:rgb(100%,100%,100%);stop-opacity:1;"/>
<stop offset="1" style="stop-color:rgb(94.117647%,94.117647%,94.117647%);stop-opacity:1;"/>
</linearGradient>
</defs>
<g id="surface1">
<rect x="0" y="0" width="21" height="15" style="fill:url(#linear0);stroke:none;"/>
<path style=" stroke:none;fill-rule:evenodd;fill:url(#linear1);" d="M 0 10 L 21 0 L 0 0 Z M 0 10 "/>
<path style=" stroke:none;fill-rule:evenodd;fill:url(#linear2);" d="M 0 15 L 21 15 L 21 5 Z M 0 15 "/>
<path style=" stroke:none;fill-rule:evenodd;fill:url(#linear3);" d="M 0.589844 19 L 25.183594 3.632812 L 20.414062 -4 L -4.179688 11.367188 Z M 0.589844 19 "/>
<path style=" stroke:none;fill-rule:evenodd;fill:url(#linear4);" d="M -0.46875 17.304688 L 24.121094 1.9375 L 21.472656 -2.304688 L -3.121094 13.0625 Z M -0.46875 17.304688 "/>
<path style=" stroke:none;fill-rule:evenodd;fill:url(#linear5);" d="M 15.234375 5.847656 L 14.523438 6.972656 L 14.0625 5.726562 L 12.777344 5.398438 L 13.820312 4.574219 L 13.734375 3.25 L 14.839844 3.988281 L 16.070312 3.496094 L 15.710938 4.773438 L 16.558594 5.796875 Z M 15.234375 5.847656 "/>
<path style=" stroke:none;fill-rule:evenodd;fill:url(#linear6);" d="M 7.234375 10.699219 L 6.523438 11.820312 L 6.0625 10.574219 L 4.777344 10.246094 L 5.820312 9.425781 L 5.734375 8.101562 L 6.839844 8.835938 L 8.070312 8.347656 L 7.710938 9.625 L 8.558594 10.644531 Z M 7.234375 10.699219 "/>
</g>
</svg>
