<?xml version="1.0" encoding="UTF-8"?>
<svg xmlns="http://www.w3.org/2000/svg" xmlns:xlink="http://www.w3.org/1999/xlink" width="21px" height="15px" viewBox="0 0 22 15" version="1.1">
<g id="surface1">
<rect x="0" y="0" width="22" height="15" style="fill:rgb(100%,100%,100%);fill-opacity:1;stroke:none;"/>
<path style="fill-rule:nonzero;fill:rgb(0%,0%,0%);fill-opacity:1;stroke-width:2;stroke-linecap:butt;stroke-linejoin:miter;stroke:rgb(0%,0%,0%);stroke-opacity:1;stroke-miterlimit:4;" d="M -5.996908 -24.994996 L 6.00069 -25.00382 M -5.997381 -21.99859 L 6.000217 -22.007415 M -5.997853 -19.002185 L 6.006836 -19.000373 " transform="matrix(0.169492,-0.260016,0.254238,0.173344,11,7.5)"/>
<path style="fill-rule:nonzero;fill:rgb(0%,0%,0%);fill-opacity:1;stroke-width:2;stroke-linecap:butt;stroke-linejoin:miter;stroke:rgb(0%,0%,0%);stroke-opacity:1;stroke-miterlimit:4;" d="M -6.006836 -24.999627 L 5.997853 -24.997815 M -6.000217 -21.992585 L 5.997381 -22.00141 M -6.00069 -18.99618 L 5.996908 -19.005004 " transform="matrix(0.169492,-0.260016,0.254238,0.173344,22.186454,15.127128)"/>
<path style="fill-rule:nonzero;fill:rgb(0%,0%,0%);fill-opacity:1;stroke-width:1;stroke-linecap:butt;stroke-linejoin:miter;stroke:rgb(100%,100%,100%);stroke-opacity:1;stroke-miterlimit:4;" d="M 0.000945504 16.992579 L -0.000472768 26.995856 " transform="matrix(0.169492,-0.260016,0.254238,0.173344,11,7.5)"/>
<path style=" stroke:none;fill-rule:nonzero;fill:rgb(80.392157%,18.039216%,22.745098%);fill-opacity:1;" d="M 13.035156 4.378906 C 14.71875 5.527344 15.175781 7.855469 14.050781 9.582031 C 12.925781 11.304688 10.652344 11.769531 8.964844 10.621094 C 7.28125 9.472656 6.824219 7.144531 7.949219 5.417969 C 9.074219 3.695312 11.347656 3.230469 13.035156 4.378906 Z M 13.035156 4.378906 "/>
<path style=" stroke:none;fill-rule:nonzero;fill:rgb(0%,27.843137%,62.745098%);fill-opacity:1;" d="M 7.949219 5.417969 C 7.386719 6.28125 7.613281 7.445312 8.457031 8.019531 C 9.300781 8.59375 10.4375 8.363281 11 7.5 C 11.5625 6.636719 12.699219 6.40625 13.542969 6.980469 C 14.386719 7.554688 14.613281 8.71875 14.050781 9.582031 C 12.925781 11.304688 10.652344 11.769531 8.964844 10.621094 C 7.28125 9.472656 6.824219 7.144531 7.949219 5.417969 Z M 7.949219 5.417969 "/>
<path style="fill-rule:nonzero;fill:rgb(0%,0%,0%);fill-opacity:1;stroke-width:2;stroke-linecap:butt;stroke-linejoin:miter;stroke:rgb(0%,0%,0%);stroke-opacity:1;stroke-miterlimit:4;" d="M -6.00069 -25.00382 L 5.996908 -24.994996 M -6.000217 -22.007415 L 5.997381 -21.99859 M -6.006836 -19.000373 L 5.997853 -19.002185 " transform="matrix(-0.169492,-0.260016,0.254238,-0.173344,11,7.5)"/>
<path style="fill-rule:nonzero;fill:rgb(0%,0%,0%);fill-opacity:1;stroke-width:2;stroke-linecap:butt;stroke-linejoin:miter;stroke:rgb(0%,0%,0%);stroke-opacity:1;stroke-miterlimit:4;" d="M -5.997853 -24.997815 L 6.006836 -24.999627 M -5.997381 -22.00141 L 6.000217 -21.992585 M -5.996908 -19.005004 L 6.00069 -18.99618 " transform="matrix(-0.169492,-0.260016,0.254238,-0.173344,22.186454,-0.127128)"/>
<path style="fill-rule:nonzero;fill:rgb(0%,0%,0%);fill-opacity:1;stroke-width:1;stroke-linecap:butt;stroke-linejoin:miter;stroke:rgb(100%,100%,100%);stroke-opacity:1;stroke-miterlimit:4;" d="M -0.00520032 -23.495887 L -0.00472757 -20.499482 M -0.000945504 16.992579 L 0.00472757 20.499482 M 0.00520032 23.495887 L -0.00141826 26.502929 " transform="matrix(-0.169492,-0.260016,0.254238,-0.173344,11,7.5)"/>
</g>
</svg>
