<?xml version="1.0" encoding="UTF-8"?>
<svg xmlns="http://www.w3.org/2000/svg" xmlns:xlink="http://www.w3.org/1999/xlink" width="21px" height="15px" viewBox="0 0 26 15" version="1.1">
<g id="surface1">
<rect x="0" y="0" width="26" height="15" style="fill:rgb(85.490196%,0%,0%);fill-opacity:1;stroke:none;"/>
<path style=" stroke:none;fill-rule:nonzero;fill:rgb(100%,100%,100%);fill-opacity:1;" d="M 0 0 L 26 0 L 26 10 L 0 10 Z M 0 0 "/>
<path style=" stroke:none;fill-rule:nonzero;fill:rgb(13.72549%,62.352941%,25.098039%);fill-opacity:1;" d="M 0 0 L 26 0 L 26 5 L 0 5 Z M 0 0 "/>
<path style="fill:none;stroke-width:2;stroke-linecap:butt;stroke-linejoin:miter;stroke:rgb(100%,100%,100%);stroke-opacity:1;stroke-miterlimit:4;" d="M 0.0171274 1.008929 L 25.978666 1.008929 M 1.03125 9.982143 L 1.03125 5.026786 L 9.009014 5.026786 L 9.009014 8.977679 L 16.986779 8.977679 L 16.986779 5.026786 L 11.983774 5.026786 M 4.00601 8.977679 L 5.966647 8.977679 M 25.978666 8.977679 L 20.975661 8.977679 L 20.975661 5.026786 L 29.021034 5.026786 M 29.021034 0.00446429 L 29.021034 8.977679 L 36.998798 8.977679 L 36.998798 0.00446429 M 33.009916 0.00446429 L 33.009916 8.977679 " transform="matrix(0.0577778,0,0,0.0583333,0.346667,4.183333)"/>
<path style="fill:none;stroke-width:2;stroke-linecap:butt;stroke-linejoin:miter;stroke:rgb(100%,100%,100%);stroke-opacity:1;stroke-miterlimit:4;" d="M 0.0085637 7 L 9.000451 7 M 10.014573 7 L 19.00646 7 " transform="matrix(0.115556,0,0,0.116667,0.346667,4.183333)"/>
<path style="fill:none;stroke-width:2;stroke-linecap:butt;stroke-linejoin:miter;stroke:rgb(100%,100%,100%);stroke-opacity:1;stroke-miterlimit:4;" d="M 0.0085637 7 L 9.000451 7 M 10.014573 7 L 19.00646 7 " transform="matrix(0.115556,0,0,0.116667,0.346667,9.183333)"/>
<path style="fill:none;stroke-width:2;stroke-linecap:butt;stroke-linejoin:miter;stroke:rgb(100%,100%,100%);stroke-opacity:1;stroke-miterlimit:4;" d="M 0.0171274 1.022321 L 25.978666 1.022321 M 1.03125 9.995536 L 1.03125 4.973214 L 9.009014 4.973214 L 9.009014 8.991071 L 16.986779 8.991071 L 16.986779 4.973214 L 11.983774 4.973214 M 4.00601 8.991071 L 5.966647 8.991071 M 25.978666 8.991071 L 20.975661 8.991071 L 20.975661 4.973214 L 29.021034 4.973214 M 29.021034 0.0178571 L 29.021034 8.991071 L 36.998798 8.991071 L 36.998798 0.0178571 M 33.009916 0.0178571 L 33.009916 8.991071 " transform="matrix(0.0577778,0,0,0.0583333,0.346667,10.233333)"/>
<path style="fill:none;stroke-width:2;stroke-linecap:butt;stroke-linejoin:miter;stroke:rgb(100%,100%,100%);stroke-opacity:1;stroke-miterlimit:4;" d="M -0.0264423 1.008929 L 26.002704 1.008929 M 0.98768 9.982143 L 0.98768 5.026786 L 9.033053 5.026786 L 9.033053 8.977679 L 17.010817 8.977679 L 17.010817 5.026786 L 12.007813 5.026786 M 4.030048 8.977679 L 5.990685 8.977679 M 26.002704 8.977679 L 20.9997 8.977679 L 20.9997 5.026786 L 28.977464 5.026786 M 28.977464 0.00446429 L 28.977464 8.977679 L 37.022837 8.977679 L 37.022837 0.00446429 M 32.966346 0.00446429 L 32.966346 8.977679 " transform="matrix(0.0577778,0,0,0.0583333,2.657778,4.183333)"/>
<path style="fill:none;stroke-width:2;stroke-linecap:butt;stroke-linejoin:miter;stroke:rgb(100%,100%,100%);stroke-opacity:1;stroke-miterlimit:4;" d="M -0.0132212 7 L 9.01247 7 M 9.992788 7 L 18.984675 7 " transform="matrix(0.115556,0,0,0.116667,2.657778,4.183333)"/>
<path style="fill:none;stroke-width:2;stroke-linecap:butt;stroke-linejoin:miter;stroke:rgb(100%,100%,100%);stroke-opacity:1;stroke-miterlimit:4;" d="M -0.0132212 7 L 9.01247 7 M 9.992788 7 L 18.984675 7 " transform="matrix(0.115556,0,0,0.116667,2.657778,9.183333)"/>
<path style="fill:none;stroke-width:2;stroke-linecap:butt;stroke-linejoin:miter;stroke:rgb(100%,100%,100%);stroke-opacity:1;stroke-miterlimit:4;" d="M -0.0264423 1.022321 L 26.002704 1.022321 M 0.98768 9.995536 L 0.98768 4.973214 L 9.033053 4.973214 L 9.033053 8.991071 L 17.010817 8.991071 L 17.010817 4.973214 L 12.007813 4.973214 M 4.030048 8.991071 L 5.990685 8.991071 M 26.002704 8.991071 L 20.9997 8.991071 L 20.9997 4.973214 L 28.977464 4.973214 M 28.977464 0.0178571 L 28.977464 8.991071 L 37.022837 8.991071 L 37.022837 0.0178571 M 32.966346 0.0178571 L 32.966346 8.991071 " transform="matrix(0.0577778,0,0,0.0583333,2.657778,10.233333)"/>
<path style="fill:none;stroke-width:2;stroke-linecap:butt;stroke-linejoin:miter;stroke:rgb(100%,100%,100%);stroke-opacity:1;stroke-miterlimit:4;" d="M -0.00240385 1.008929 L 26.026743 1.008929 M 1.011719 9.982143 L 1.011719 5.026786 L 8.989483 5.026786 L 8.989483 8.977679 L 16.967248 8.977679 L 16.967248 5.026786 L 12.031851 5.026786 M 3.986478 8.977679 L 6.014724 8.977679 M 26.026743 8.977679 L 21.023738 8.977679 L 21.023738 5.026786 L 29.001502 5.026786 M 29.001502 0.00446429 L 29.001502 8.977679 L 36.979267 8.977679 L 36.979267 0.00446429 M 32.990385 0.00446429 L 32.990385 8.977679 " transform="matrix(0.0577778,0,0,0.0583333,4.968889,4.183333)"/>
<path style="fill:none;stroke-width:2;stroke-linecap:butt;stroke-linejoin:miter;stroke:rgb(100%,100%,100%);stroke-opacity:1;stroke-miterlimit:4;" d="M -0.00120192 7 L 8.990685 7 M 10.004808 7 L 18.996695 7 " transform="matrix(0.115556,0,0,0.116667,4.968889,4.183333)"/>
<path style="fill:none;stroke-width:2;stroke-linecap:butt;stroke-linejoin:miter;stroke:rgb(100%,100%,100%);stroke-opacity:1;stroke-miterlimit:4;" d="M -0.00120192 7 L 8.990685 7 M 10.004808 7 L 18.996695 7 " transform="matrix(0.115556,0,0,0.116667,4.968889,9.183333)"/>
<path style="fill:none;stroke-width:2;stroke-linecap:butt;stroke-linejoin:miter;stroke:rgb(100%,100%,100%);stroke-opacity:1;stroke-miterlimit:4;" d="M -0.00240385 1.022321 L 26.026743 1.022321 M 1.011719 9.995536 L 1.011719 4.973214 L 8.989483 4.973214 L 8.989483 8.991071 L 16.967248 8.991071 L 16.967248 4.973214 L 12.031851 4.973214 M 3.986478 8.991071 L 6.014724 8.991071 M 26.026743 8.991071 L 21.023738 8.991071 L 21.023738 4.973214 L 29.001502 4.973214 M 29.001502 0.0178571 L 29.001502 8.991071 L 36.979267 8.991071 L 36.979267 0.0178571 M 32.990385 0.0178571 L 32.990385 8.991071 " transform="matrix(0.0577778,0,0,0.0583333,4.968889,10.233333)"/>
<path style="fill:none;stroke-width:2;stroke-linecap:butt;stroke-linejoin:miter;stroke:rgb(100%,100%,100%);stroke-opacity:1;stroke-miterlimit:4;" d="M 0.0216346 1.008929 L 25.983173 1.008929 M 0.968149 9.982143 L 0.968149 5.026786 L 9.013522 5.026786 L 9.013522 8.977679 L 16.991286 8.977679 L 16.991286 5.026786 L 11.988281 5.026786 M 4.010517 8.977679 L 5.971154 8.977679 M 25.983173 8.977679 L 20.980168 8.977679 L 20.980168 5.026786 L 29.025541 5.026786 M 29.025541 0.00446429 L 29.025541 8.977679 L 37.003305 8.977679 L 37.003305 0.00446429 M 33.014423 0.00446429 L 33.014423 8.977679 " transform="matrix(0.0577778,0,0,0.0583333,7.28,4.183333)"/>
<path style="fill:none;stroke-width:2;stroke-linecap:butt;stroke-linejoin:miter;stroke:rgb(100%,100%,100%);stroke-opacity:1;stroke-miterlimit:4;" d="M 0.0108173 7 L 9.002704 7 M 10.016827 7 L 19.008714 7 " transform="matrix(0.115556,0,0,0.116667,7.28,4.183333)"/>
<path style="fill:none;stroke-width:2;stroke-linecap:butt;stroke-linejoin:miter;stroke:rgb(100%,100%,100%);stroke-opacity:1;stroke-miterlimit:4;" d="M 0.0108173 7 L 9.002704 7 M 10.016827 7 L 19.008714 7 " transform="matrix(0.115556,0,0,0.116667,7.28,9.183333)"/>
<path style="fill:none;stroke-width:2;stroke-linecap:butt;stroke-linejoin:miter;stroke:rgb(100%,100%,100%);stroke-opacity:1;stroke-miterlimit:4;" d="M 0.0216346 1.022321 L 25.983173 1.022321 M 0.968149 9.995536 L 0.968149 4.973214 L 9.013522 4.973214 L 9.013522 8.991071 L 16.991286 8.991071 L 16.991286 4.973214 L 11.988281 4.973214 M 4.010517 8.991071 L 5.971154 8.991071 M 25.983173 8.991071 L 20.980168 8.991071 L 20.980168 4.973214 L 29.025541 4.973214 M 29.025541 0.0178571 L 29.025541 8.991071 L 37.003305 8.991071 L 37.003305 0.0178571 M 33.014423 0.0178571 L 33.014423 8.991071 " transform="matrix(0.0577778,0,0,0.0583333,7.28,10.233333)"/>
<path style="fill:none;stroke-width:2;stroke-linecap:butt;stroke-linejoin:miter;stroke:rgb(100%,100%,100%);stroke-opacity:1;stroke-miterlimit:4;" d="M -0.0219351 1.008929 L 26.007212 1.008929 M 0.992188 9.982143 L 0.992188 5.026786 L 8.969952 5.026786 L 8.969952 8.977679 L 17.015325 8.977679 L 17.015325 5.026786 L 12.01232 5.026786 M 3.966947 8.977679 L 5.995192 8.977679 M 26.007212 8.977679 L 21.004207 8.977679 L 21.004207 5.026786 L 28.981971 5.026786 M 28.981971 0.00446429 L 28.981971 8.977679 L 37.027344 8.977679 L 37.027344 0.00446429 M 32.970853 0.00446429 L 32.970853 8.977679 " transform="matrix(0.0577778,0,0,0.0583333,9.591111,4.183333)"/>
<path style="fill:none;stroke-width:2;stroke-linecap:butt;stroke-linejoin:miter;stroke:rgb(100%,100%,100%);stroke-opacity:1;stroke-miterlimit:4;" d="M -0.0109675 7 L 9.014724 7 M 9.995042 7 L 18.986929 7 " transform="matrix(0.115556,0,0,0.116667,9.591111,4.183333)"/>
<path style="fill:none;stroke-width:2;stroke-linecap:butt;stroke-linejoin:miter;stroke:rgb(100%,100%,100%);stroke-opacity:1;stroke-miterlimit:4;" d="M -0.0109675 7 L 9.014724 7 M 9.995042 7 L 18.986929 7 " transform="matrix(0.115556,0,0,0.116667,9.591111,9.183333)"/>
<path style="fill:none;stroke-width:2;stroke-linecap:butt;stroke-linejoin:miter;stroke:rgb(100%,100%,100%);stroke-opacity:1;stroke-miterlimit:4;" d="M -0.0219351 1.022321 L 26.007212 1.022321 M 0.992188 9.995536 L 0.992188 4.973214 L 8.969952 4.973214 L 8.969952 8.991071 L 17.015325 8.991071 L 17.015325 4.973214 L 12.01232 4.973214 M 3.966947 8.991071 L 5.995192 8.991071 M 26.007212 8.991071 L 21.004207 8.991071 L 21.004207 4.973214 L 28.981971 4.973214 M 28.981971 0.0178571 L 28.981971 8.991071 L 37.027344 8.991071 L 37.027344 0.0178571 M 32.970853 0.0178571 L 32.970853 8.991071 " transform="matrix(0.0577778,0,0,0.0583333,9.591111,10.233333)"/>
<path style="fill:none;stroke-width:2;stroke-linecap:butt;stroke-linejoin:miter;stroke:rgb(100%,100%,100%);stroke-opacity:1;stroke-miterlimit:4;" d="M 0.00210337 1.008929 L 26.03125 1.008929 M 1.016226 9.982143 L 1.016226 5.026786 L 8.99399 5.026786 L 8.99399 8.977679 L 16.971755 8.977679 L 16.971755 5.026786 L 11.96875 5.026786 M 3.990986 8.977679 L 6.019231 8.977679 M 26.03125 8.977679 L 21.028245 8.977679 L 21.028245 5.026786 L 29.00601 5.026786 M 29.00601 0.00446429 L 29.00601 8.977679 L 36.983774 8.977679 L 36.983774 0.00446429 M 32.994892 0.00446429 L 32.994892 8.977679 " transform="matrix(0.0577778,0,0,0.0583333,11.902222,4.183333)"/>
<path style="fill:none;stroke-width:2;stroke-linecap:butt;stroke-linejoin:miter;stroke:rgb(100%,100%,100%);stroke-opacity:1;stroke-miterlimit:4;" d="M 0.00105168 7 L 8.992939 7 M 10.007061 7 L 18.998948 7 " transform="matrix(0.115556,0,0,0.116667,11.902222,4.183333)"/>
<path style="fill:none;stroke-width:2;stroke-linecap:butt;stroke-linejoin:miter;stroke:rgb(100%,100%,100%);stroke-opacity:1;stroke-miterlimit:4;" d="M 0.00105168 7 L 8.992939 7 M 10.007061 7 L 18.998948 7 " transform="matrix(0.115556,0,0,0.116667,11.902222,9.183333)"/>
<path style="fill:none;stroke-width:2;stroke-linecap:butt;stroke-linejoin:miter;stroke:rgb(100%,100%,100%);stroke-opacity:1;stroke-miterlimit:4;" d="M 0.00210337 1.022321 L 26.03125 1.022321 M 1.016226 9.995536 L 1.016226 4.973214 L 8.99399 4.973214 L 8.99399 8.991071 L 16.971755 8.991071 L 16.971755 4.973214 L 11.96875 4.973214 M 3.990986 8.991071 L 6.019231 8.991071 M 26.03125 8.991071 L 21.028245 8.991071 L 21.028245 4.973214 L 29.00601 4.973214 M 29.00601 0.0178571 L 29.00601 8.991071 L 36.983774 8.991071 L 36.983774 0.0178571 M 32.994892 0.0178571 L 32.994892 8.991071 " transform="matrix(0.0577778,0,0,0.0583333,11.902222,10.233333)"/>
<path style="fill:none;stroke-width:2;stroke-linecap:butt;stroke-linejoin:miter;stroke:rgb(100%,100%,100%);stroke-opacity:1;stroke-miterlimit:4;" d="M 0.0261418 1.008929 L 25.98768 1.008929 M 0.972656 9.982143 L 0.972656 5.026786 L 9.018029 5.026786 L 9.018029 8.977679 L 16.995793 8.977679 L 16.995793 5.026786 L 11.992788 5.026786 M 4.015024 8.977679 L 5.975661 8.977679 M 25.98768 8.977679 L 20.984675 8.977679 L 20.984675 5.026786 L 29.030048 5.026786 M 29.030048 0.00446429 L 29.030048 8.977679 L 37.007812 8.977679 L 37.007812 0.00446429 M 33.01893 0.00446429 L 33.01893 8.977679 " transform="matrix(0.0577778,0,0,0.0583333,14.213333,4.183333)"/>
<path style="fill:none;stroke-width:2;stroke-linecap:butt;stroke-linejoin:miter;stroke:rgb(100%,100%,100%);stroke-opacity:1;stroke-miterlimit:4;" d="M 0.0130709 7 L 9.004958 7 M 9.985276 7 L 19.010968 7 " transform="matrix(0.115556,0,0,0.116667,14.213333,4.183333)"/>
<path style="fill:none;stroke-width:2;stroke-linecap:butt;stroke-linejoin:miter;stroke:rgb(100%,100%,100%);stroke-opacity:1;stroke-miterlimit:4;" d="M 0.0130709 7 L 9.004958 7 M 9.985276 7 L 19.010968 7 " transform="matrix(0.115556,0,0,0.116667,14.213333,9.183333)"/>
<path style="fill:none;stroke-width:2;stroke-linecap:butt;stroke-linejoin:miter;stroke:rgb(100%,100%,100%);stroke-opacity:1;stroke-miterlimit:4;" d="M 0.0261418 1.022321 L 25.98768 1.022321 M 0.972656 9.995536 L 0.972656 4.973214 L 9.018029 4.973214 L 9.018029 8.991071 L 16.995793 8.991071 L 16.995793 4.973214 L 11.992788 4.973214 M 4.015024 8.991071 L 5.975661 8.991071 M 25.98768 8.991071 L 20.984675 8.991071 L 20.984675 4.973214 L 29.030048 4.973214 M 29.030048 0.0178571 L 29.030048 8.991071 L 37.007812 8.991071 L 37.007812 0.0178571 M 33.01893 0.0178571 L 33.01893 8.991071 " transform="matrix(0.0577778,0,0,0.0583333,14.213333,10.233333)"/>
<path style="fill:none;stroke-width:2;stroke-linecap:butt;stroke-linejoin:miter;stroke:rgb(100%,100%,100%);stroke-opacity:1;stroke-miterlimit:4;" d="M -0.0174279 1.008929 L 26.011719 1.008929 M 0.996695 9.982143 L 0.996695 5.026786 L 8.974459 5.026786 L 8.974459 8.977679 L 17.019832 8.977679 L 17.019832 5.026786 L 12.016827 5.026786 M 3.971454 8.977679 L 5.9997 8.977679 M 26.011719 8.977679 L 21.008714 8.977679 L 21.008714 5.026786 L 28.986478 5.026786 M 28.986478 0.00446429 L 28.986478 8.977679 L 37.031851 8.977679 L 37.031851 0.00446429 M 32.975361 0.00446429 L 32.975361 8.977679 " transform="matrix(0.0577778,0,0,0.0583333,16.524444,4.183333)"/>
<path style="fill:none;stroke-width:2;stroke-linecap:butt;stroke-linejoin:miter;stroke:rgb(100%,100%,100%);stroke-opacity:1;stroke-miterlimit:4;" d="M -0.00871394 7 L 8.983173 7 M 9.997296 7 L 18.989183 7 " transform="matrix(0.115556,0,0,0.116667,16.524444,4.183333)"/>
<path style="fill:none;stroke-width:2;stroke-linecap:butt;stroke-linejoin:miter;stroke:rgb(100%,100%,100%);stroke-opacity:1;stroke-miterlimit:4;" d="M -0.00871394 7 L 8.983173 7 M 9.997296 7 L 18.989183 7 " transform="matrix(0.115556,0,0,0.116667,16.524444,9.183333)"/>
<path style="fill:none;stroke-width:2;stroke-linecap:butt;stroke-linejoin:miter;stroke:rgb(100%,100%,100%);stroke-opacity:1;stroke-miterlimit:4;" d="M -0.0174279 1.022321 L 26.011719 1.022321 M 0.996695 9.995536 L 0.996695 4.973214 L 8.974459 4.973214 L 8.974459 8.991071 L 17.019832 8.991071 L 17.019832 4.973214 L 12.016827 4.973214 M 3.971454 8.991071 L 5.9997 8.991071 M 26.011719 8.991071 L 21.008714 8.991071 L 21.008714 4.973214 L 28.986478 4.973214 M 28.986478 0.0178571 L 28.986478 8.991071 L 37.031851 8.991071 L 37.031851 0.0178571 M 32.975361 0.0178571 L 32.975361 8.991071 " transform="matrix(0.0577778,0,0,0.0583333,16.524444,10.233333)"/>
<path style="fill:none;stroke-width:2;stroke-linecap:butt;stroke-linejoin:miter;stroke:rgb(100%,100%,100%);stroke-opacity:1;stroke-miterlimit:4;" d="M 0.00661058 1.008929 L 25.968149 1.008929 M 1.020733 9.982143 L 1.020733 5.026786 L 8.998498 5.026786 L 8.998498 8.977679 L 16.976262 8.977679 L 16.976262 5.026786 L 11.973257 5.026786 M 3.995493 8.977679 L 6.023738 8.977679 M 25.968149 8.977679 L 21.032752 8.977679 L 21.032752 5.026786 L 29.010517 5.026786 M 29.010517 0.00446429 L 29.010517 8.977679 L 36.988281 8.977679 L 36.988281 0.00446429 M 32.999399 0.00446429 L 32.999399 8.977679 " transform="matrix(0.0577778,0,0,0.0583333,18.835556,4.183333)"/>
<path style="fill:none;stroke-width:2;stroke-linecap:butt;stroke-linejoin:miter;stroke:rgb(100%,100%,100%);stroke-opacity:1;stroke-miterlimit:4;" d="M 0.00330529 7 L 8.995192 7 M 10.009315 7 L 19.001202 7 " transform="matrix(0.115556,0,0,0.116667,18.835556,4.183333)"/>
<path style="fill:none;stroke-width:2;stroke-linecap:butt;stroke-linejoin:miter;stroke:rgb(100%,100%,100%);stroke-opacity:1;stroke-miterlimit:4;" d="M 0.00330529 7 L 8.995192 7 M 10.009315 7 L 19.001202 7 " transform="matrix(0.115556,0,0,0.116667,18.835556,9.183333)"/>
<path style="fill:none;stroke-width:2;stroke-linecap:butt;stroke-linejoin:miter;stroke:rgb(100%,100%,100%);stroke-opacity:1;stroke-miterlimit:4;" d="M 0.00661058 1.022321 L 25.968149 1.022321 M 1.020733 9.995536 L 1.020733 4.973214 L 8.998498 4.973214 L 8.998498 8.991071 L 16.976262 8.991071 L 16.976262 4.973214 L 11.973257 4.973214 M 3.995493 8.991071 L 6.023738 8.991071 M 25.968149 8.991071 L 21.032752 8.991071 L 21.032752 4.973214 L 29.010517 4.973214 M 29.010517 0.0178571 L 29.010517 8.991071 L 36.988281 8.991071 L 36.988281 0.0178571 M 32.999399 0.0178571 L 32.999399 8.991071 " transform="matrix(0.0577778,0,0,0.0583333,18.835556,10.233333)"/>
<path style="fill:none;stroke-width:2;stroke-linecap:butt;stroke-linejoin:miter;stroke:rgb(100%,100%,100%);stroke-opacity:1;stroke-miterlimit:4;" d="M 0.030649 1.008929 L 25.992188 1.008929 M 0.977163 9.982143 L 0.977163 5.026786 L 9.022536 5.026786 L 9.022536 8.977679 L 17.0003 8.977679 L 17.0003 5.026786 L 11.997296 5.026786 M 4.019531 8.977679 L 5.980168 8.977679 M 25.992188 8.977679 L 20.989183 8.977679 L 20.989183 5.026786 L 28.966947 5.026786 M 28.966947 0.00446429 L 28.966947 8.977679 L 37.01232 8.977679 L 37.01232 0.00446429 M 33.023438 0.00446429 L 33.023438 8.977679 " transform="matrix(0.0577778,0,0,0.0583333,21.146667,4.183333)"/>
<path style="fill:none;stroke-width:2;stroke-linecap:butt;stroke-linejoin:miter;stroke:rgb(100%,100%,100%);stroke-opacity:1;stroke-miterlimit:4;" d="M 0.0153245 7 L 9.007212 7 M 9.98753 7 L 19.013221 7 " transform="matrix(0.115556,0,0,0.116667,21.146667,4.183333)"/>
<path style="fill:none;stroke-width:2;stroke-linecap:butt;stroke-linejoin:miter;stroke:rgb(100%,100%,100%);stroke-opacity:1;stroke-miterlimit:4;" d="M 0.0153245 7 L 9.007212 7 M 9.98753 7 L 19.013221 7 " transform="matrix(0.115556,0,0,0.116667,21.146667,9.183333)"/>
<path style="fill:none;stroke-width:2;stroke-linecap:butt;stroke-linejoin:miter;stroke:rgb(100%,100%,100%);stroke-opacity:1;stroke-miterlimit:4;" d="M 0.030649 1.022321 L 25.992188 1.022321 M 0.977163 9.995536 L 0.977163 4.973214 L 9.022536 4.973214 L 9.022536 8.991071 L 17.0003 8.991071 L 17.0003 4.973214 L 11.997296 4.973214 M 4.019531 8.991071 L 5.980168 8.991071 M 25.992188 8.991071 L 20.989183 8.991071 L 20.989183 4.973214 L 28.966947 4.973214 M 28.966947 0.0178571 L 28.966947 8.991071 L 37.01232 8.991071 L 37.01232 0.0178571 M 33.023438 0.0178571 L 33.023438 8.991071 " transform="matrix(0.0577778,0,0,0.0583333,21.146667,10.233333)"/>
<path style="fill:none;stroke-width:2;stroke-linecap:butt;stroke-linejoin:miter;stroke:rgb(100%,100%,100%);stroke-opacity:1;stroke-miterlimit:4;" d="M -0.0129207 1.008929 L 26.016226 1.008929 M 1.001202 9.982143 L 1.001202 5.026786 L 8.978966 5.026786 L 8.978966 8.977679 L 17.024339 8.977679 L 17.024339 5.026786 L 12.021334 5.026786 M 3.975962 8.977679 L 6.004207 8.977679 M 26.016226 8.977679 L 21.013221 8.977679 L 21.013221 5.026786 L 28.990986 5.026786 M 28.990986 0.00446429 L 28.990986 8.977679 L 36.96875 8.977679 L 36.96875 0.00446429 M 32.979868 0.00446429 L 32.979868 8.977679 " transform="matrix(0.0577778,0,0,0.0583333,23.457778,4.183333)"/>
<path style="fill:none;stroke-width:2;stroke-linecap:butt;stroke-linejoin:miter;stroke:rgb(100%,100%,100%);stroke-opacity:1;stroke-miterlimit:4;" d="M -0.00646034 7 L 8.985427 7 M 9.999549 7 L 18.991436 7 " transform="matrix(0.115556,0,0,0.116667,23.457778,4.183333)"/>
<path style="fill:none;stroke-width:2;stroke-linecap:butt;stroke-linejoin:miter;stroke:rgb(100%,100%,100%);stroke-opacity:1;stroke-miterlimit:4;" d="M -0.00646034 7 L 8.985427 7 M 9.999549 7 L 18.991436 7 " transform="matrix(0.115556,0,0,0.116667,23.457778,9.183333)"/>
<path style="fill:none;stroke-width:2;stroke-linecap:butt;stroke-linejoin:miter;stroke:rgb(100%,100%,100%);stroke-opacity:1;stroke-miterlimit:4;" d="M -0.0129207 1.022321 L 26.016226 1.022321 M 1.001202 9.995536 L 1.001202 4.973214 L 8.978966 4.973214 L 8.978966 8.991071 L 17.024339 8.991071 L 17.024339 4.973214 L 12.021334 4.973214 M 3.975962 8.991071 L 6.004207 8.991071 M 26.016226 8.991071 L 21.013221 8.991071 L 21.013221 4.973214 L 28.990986 4.973214 M 28.990986 0.0178571 L 28.990986 8.991071 L 36.96875 8.991071 L 36.96875 0.0178571 M 32.979868 0.0178571 L 32.979868 8.991071 " transform="matrix(0.0577778,0,0,0.0583333,23.457778,10.233333)"/>
<path style=" stroke:none;fill-rule:nonzero;fill:rgb(85.490196%,0%,0%);fill-opacity:1;" d="M 11.980469 9.066406 C 12.75 9.320312 13.585938 8.988281 13.980469 8.28125 C 14.378906 7.570312 14.222656 6.675781 13.609375 6.144531 C 14.003906 6.734375 14.035156 7.496094 13.691406 8.113281 C 13.34375 8.734375 12.683594 9.101562 11.980469 9.066406 "/>
<path style=" stroke:none;fill-rule:nonzero;fill:rgb(85.490196%,0%,0%);fill-opacity:1;" d="M 14.148438 8.738281 C 14.648438 8.449219 14.921875 7.878906 14.84375 7.300781 C 14.761719 6.722656 14.34375 6.253906 13.78125 6.109375 C 14.175781 6.410156 14.4375 6.855469 14.507812 7.347656 C 14.574219 7.84375 14.445312 8.34375 14.148438 8.738281 "/>
<path style=" stroke:none;fill-rule:nonzero;fill:rgb(85.490196%,0%,0%);fill-opacity:1;" d="M 13 9.375 L 12.90625 7.5 L 13 6.023438 C 13.054688 6.101562 13.132812 6.167969 13.21875 6.210938 L 13.21875 7.3125 L 13.144531 9.175781 Z M 13 9.375 "/>
<path style=" stroke:none;fill-rule:nonzero;fill:rgb(85.490196%,0%,0%);fill-opacity:1;" d="M 12.960938 5.90625 L 13 5.941406 C 13.078125 6.054688 13.226562 6.089844 13.347656 6.023438 C 13.464844 5.957031 13.519531 5.8125 13.46875 5.6875 C 13.449219 5.789062 13.367188 5.871094 13.261719 5.890625 C 13.15625 5.910156 13.054688 5.859375 13 5.765625 "/>
<path style=" stroke:none;fill-rule:nonzero;fill:rgb(85.490196%,0%,0%);fill-opacity:1;" d="M 14.019531 9.066406 C 13.25 9.320312 12.414062 8.988281 12.019531 8.28125 C 11.621094 7.570312 11.777344 6.675781 12.390625 6.144531 C 11.996094 6.734375 11.964844 7.496094 12.308594 8.113281 C 12.65625 8.734375 13.316406 9.101562 14.019531 9.066406 "/>
<path style=" stroke:none;fill-rule:nonzero;fill:rgb(85.490196%,0%,0%);fill-opacity:1;" d="M 11.851562 8.738281 C 11.351562 8.449219 11.078125 7.878906 11.15625 7.300781 C 11.238281 6.722656 11.65625 6.253906 12.21875 6.109375 C 11.824219 6.410156 11.5625 6.855469 11.492188 7.347656 C 11.425781 7.84375 11.554688 8.34375 11.851562 8.738281 "/>
<path style=" stroke:none;fill-rule:nonzero;fill:rgb(85.490196%,0%,0%);fill-opacity:1;" d="M 13 9.375 L 13.09375 7.5 L 13 6.023438 C 12.945312 6.101562 12.867188 6.167969 12.78125 6.210938 L 12.78125 7.3125 L 12.855469 9.175781 Z M 13 9.375 "/>
<path style=" stroke:none;fill-rule:nonzero;fill:rgb(85.490196%,0%,0%);fill-opacity:1;" d="M 13.039062 5.90625 L 13 5.941406 C 12.921875 6.054688 12.773438 6.089844 12.652344 6.023438 C 12.535156 5.957031 12.480469 5.8125 12.53125 5.6875 C 12.550781 5.789062 12.632812 5.871094 12.738281 5.890625 C 12.84375 5.910156 12.945312 5.859375 13 5.765625 "/>
</g>
</svg>
