<?xml version="1.0" encoding="UTF-8"?>
<svg xmlns="http://www.w3.org/2000/svg" xmlns:xlink="http://www.w3.org/1999/xlink" width="21px" height="15px" viewBox="0 0 22 15" version="1.1">
<g id="surface1">
<rect x="0" y="0" width="22" height="15" style="fill:rgb(100%,100%,100%);fill-opacity:1;stroke:none;"/>
<path style=" stroke:none;fill-rule:nonzero;fill:rgb(0%,0%,0%);fill-opacity:1;" d="M 0 0 L 22 0 L 22 4.5 L 0 4.5 Z M 0 0 "/>
<path style=" stroke:none;fill-rule:nonzero;fill:rgb(73.333333%,0%,0%);fill-opacity:1;" d="M 0 5.25 L 22 5.25 L 22 9.75 L 0 9.75 Z M 0 5.25 "/>
<path style=" stroke:none;fill-rule:nonzero;fill:rgb(0%,40%,0%);fill-opacity:1;" d="M 0 10.5 L 22 10.5 L 22 15 L 0 15 Z M 0 10.5 "/>
<path style=" stroke:none;fill-rule:nonzero;fill:rgb(0%,0%,0%);fill-opacity:1;" d="M 8.378906 11.953125 L 8.539062 12.046875 L 12.820312 4.460938 C 13.070312 4.394531 13.210938 4.148438 13.347656 3.90625 C 13.4375 3.742188 13.804688 3.09375 13.964844 2.25 C 13.328125 2.8125 12.960938 3.460938 12.871094 3.625 C 12.734375 3.867188 12.59375 4.113281 12.664062 4.367188 Z M 8.378906 11.953125 "/>
<path style=" stroke:none;fill-rule:nonzero;fill:rgb(100%,100%,100%);fill-opacity:1;" d="M 8.378906 11.953125 L 8.539062 12.046875 L 12.820312 4.460938 C 13.070312 4.394531 13.210938 4.148438 13.347656 3.90625 C 13.4375 3.742188 13.804688 3.09375 13.964844 2.25 C 13.328125 2.8125 12.960938 3.460938 12.871094 3.625 C 12.734375 3.867188 12.59375 4.113281 12.664062 4.367188 Z M 8.378906 11.953125 "/>
<path style=" stroke:none;fill-rule:nonzero;fill:rgb(0%,0%,0%);fill-opacity:1;" d="M 13.621094 11.953125 L 13.460938 12.046875 L 9.179688 4.460938 C 8.929688 4.394531 8.789062 4.148438 8.652344 3.90625 C 8.5625 3.742188 8.195312 3.09375 8.035156 2.25 C 8.671875 2.8125 9.039062 3.460938 9.128906 3.625 C 9.265625 3.867188 9.40625 4.113281 9.335938 4.367188 Z M 13.621094 11.953125 "/>
<path style=" stroke:none;fill-rule:nonzero;fill:rgb(100%,100%,100%);fill-opacity:1;" d="M 13.621094 11.953125 L 13.460938 12.046875 L 9.179688 4.460938 C 8.929688 4.394531 8.789062 4.148438 8.652344 3.90625 C 8.5625 3.742188 8.195312 3.09375 8.035156 2.25 C 8.671875 2.8125 9.039062 3.460938 9.128906 3.625 C 9.265625 3.867188 9.40625 4.113281 9.335938 4.367188 Z M 13.621094 11.953125 "/>
<path style=" stroke:none;fill-rule:nonzero;fill:rgb(73.333333%,0%,0%);fill-opacity:1;" d="M 9.257812 9.75 C 9.535156 10.5 10.449219 12 11 12 C 11.550781 12 12.464844 10.5 12.742188 9.75 L 12.742188 5.25 C 12.464844 4.5 11.550781 3 11 3 C 10.449219 3 9.535156 4.5 9.257812 5.25 Z M 9.257812 9.75 "/>
<path style=" stroke:none;fill-rule:nonzero;fill:rgb(0%,0%,0%);fill-opacity:1;" d="M 12.742188 9.75 C 13.015625 9 13.199219 8.25 13.199219 7.5 C 13.199219 6.75 13.015625 6 12.742188 5.25 C 12.464844 6 12.285156 6.75 12.285156 7.5 C 12.285156 8.25 12.464844 9 12.742188 9.75 Z M 12.742188 9.75 "/>
<path style=" stroke:none;fill-rule:nonzero;fill:rgb(0%,0%,0%);fill-opacity:1;" d="M 9.257812 9.75 C 8.984375 9 8.800781 8.25 8.800781 7.5 C 8.800781 6.75 8.984375 6 9.257812 5.25 C 9.535156 6 9.714844 6.75 9.714844 7.5 C 9.714844 8.25 9.535156 9 9.257812 9.75 Z M 9.257812 9.75 "/>
<path style=" stroke:none;fill-rule:nonzero;fill:rgb(100%,100%,100%);fill-opacity:1;" d="M 11.367188 7.5 C 11.367188 7.1875 11.203125 6.9375 11 6.9375 C 10.796875 6.9375 10.632812 7.1875 10.632812 7.5 C 10.632812 7.8125 10.796875 8.0625 11 8.0625 C 11.203125 8.0625 11.367188 7.8125 11.367188 7.5 Z M 11.367188 7.5 "/>
<path style=" stroke:none;fill-rule:nonzero;fill:rgb(100%,100%,100%);fill-opacity:1;" d="M 11.089844 8.046875 C 11.089844 8.046875 11.457031 8.796875 11.457031 10.015625 C 11.457031 11.234375 11.089844 11.984375 11.089844 11.984375 Z M 11.089844 8.046875 "/>
<path style=" stroke:none;fill-rule:nonzero;fill:rgb(100%,100%,100%);fill-opacity:1;" d="M 10.910156 6.953125 C 10.910156 6.953125 10.542969 6.203125 10.542969 4.984375 C 10.542969 3.765625 10.910156 3.015625 10.910156 3.015625 Z M 10.910156 6.953125 "/>
<path style=" stroke:none;fill-rule:nonzero;fill:rgb(100%,100%,100%);fill-opacity:1;" d="M 10.910156 8.046875 C 10.910156 8.046875 10.542969 8.796875 10.542969 10.015625 C 10.542969 11.234375 10.910156 11.984375 10.910156 11.984375 Z M 10.910156 8.046875 "/>
<path style=" stroke:none;fill-rule:nonzero;fill:rgb(100%,100%,100%);fill-opacity:1;" d="M 11.089844 6.953125 C 11.089844 6.953125 11.457031 6.203125 11.457031 4.984375 C 11.457031 3.765625 11.089844 3.015625 11.089844 3.015625 Z M 11.089844 6.953125 "/>
</g>
</svg>
