<?xml version="1.0" encoding="UTF-8"?>
<svg xmlns="http://www.w3.org/2000/svg" xmlns:xlink="http://www.w3.org/1999/xlink" width="21px" height="15px" viewBox="0 0 21 15" version="1.1">
<g id="surface1">
<rect x="0" y="0" width="21" height="15" style="fill:rgb(100%,0%,0%);fill-opacity:1;stroke:none;"/>
<path style=" stroke:none;fill-rule:evenodd;fill:rgb(0%,0%,0%);fill-opacity:1;" d="M 11.066406 11.335938 C 10.9375 11.21875 10.777344 10.988281 10.777344 10.765625 C 10.789062 10.597656 10.90625 10.503906 10.976562 10.707031 C 11.082031 10.929688 11.304688 11.300781 11.613281 11.082031 C 11.75 10.984375 11.746094 10.839844 11.5625 10.855469 C 11.335938 10.839844 11.195312 10.714844 11.09375 10.390625 C 11.074219 10.214844 11.148438 10.21875 11.25 10.332031 C 11.382812 10.484375 11.644531 10.714844 11.9375 10.589844 C 12.097656 10.523438 12.144531 10.382812 11.898438 10.351562 C 11.667969 10.351562 11.480469 10.203125 11.292969 9.976562 C 11.191406 9.847656 11.339844 9.722656 11.433594 9.828125 C 11.515625 9.898438 11.628906 10.027344 11.726562 10.042969 C 11.839844 10.066406 11.976562 10.054688 12.132812 9.972656 C 12.300781 9.835938 12.246094 9.734375 12.042969 9.710938 C 11.886719 9.71875 11.800781 9.777344 11.597656 9.640625 C 11.234375 9.394531 10.941406 9.066406 10.898438 8.671875 C 10.867188 8.410156 11.007812 8.332031 11.125 8.359375 C 11.441406 8.441406 11.648438 9.035156 11.867188 9.359375 C 11.941406 9.453125 12.003906 9.453125 12.050781 9.425781 C 12.140625 9.351562 12.210938 9.289062 12.296875 9.203125 C 12.296875 9.203125 12.941406 9.320312 13.292969 9.433594 L 12.902344 9.574219 C 12.753906 9.492188 12.578125 9.578125 12.578125 9.722656 C 12.4375 9.820312 12.449219 9.933594 12.507812 10.042969 C 12.527344 9.964844 12.542969 9.867188 12.652344 9.851562 C 12.8125 9.917969 12.996094 9.824219 12.996094 9.703125 L 13.457031 9.519531 L 13.921875 9.785156 C 13.921875 9.960938 14.089844 10.019531 14.265625 9.972656 C 14.347656 10.023438 14.402344 10.113281 14.429688 10.207031 C 14.480469 10.070312 14.472656 9.972656 14.390625 9.90625 C 14.4375 9.726562 14.1875 9.554688 13.996094 9.667969 L 13.660156 9.476562 L 14.234375 9.460938 C 14.300781 9.578125 14.539062 9.585938 14.609375 9.460938 C 14.671875 9.445312 14.722656 9.433594 14.839844 9.519531 C 14.800781 9.378906 14.730469 9.320312 14.621094 9.320312 C 14.539062 9.175781 14.246094 9.175781 14.203125 9.339844 L 13.605469 9.355469 L 13.957031 9.105469 C 14.089844 9.183594 14.277344 9.09375 14.3125 8.953125 C 14.367188 8.890625 14.429688 8.859375 14.558594 8.902344 C 14.492188 8.785156 14.402344 8.75 14.234375 8.832031 C 14.078125 8.714844 13.878906 8.855469 13.90625 8.972656 L 13.4375 9.292969 C 13.09375 9.191406 12.472656 9.03125 12.472656 9.03125 C 12.546875 8.953125 12.621094 8.882812 12.695312 8.804688 C 12.722656 8.757812 12.683594 8.703125 12.625 8.691406 C 12.074219 8.578125 11.757812 8.355469 11.5625 7.789062 C 11.484375 7.550781 11.65625 7.480469 11.71875 7.625 C 11.800781 7.828125 11.890625 8.046875 12.140625 8.21875 C 12.226562 8.277344 12.480469 8.230469 12.328125 8.085938 C 12.171875 7.957031 12.105469 7.902344 12.027344 7.589844 C 12.027344 7.429688 12.191406 7.359375 12.28125 7.511719 C 12.375 7.824219 12.386719 7.957031 12.5625 8.160156 C 12.691406 8.3125 12.867188 8.414062 12.953125 8.410156 C 13.105469 8.410156 13.261719 8.242188 13.054688 8.121094 C 12.75 8 12.640625 7.835938 12.597656 7.675781 C 12.546875 7.402344 12.601562 7.269531 12.765625 7.40625 C 13.003906 7.671875 13.453125 8.171875 13.6875 8.402344 C 13.949219 8.605469 14.253906 8.609375 14.492188 8.40625 C 14.632812 8.246094 14.582031 8.074219 14.367188 8.113281 C 13.878906 8.152344 13.511719 7.910156 13.105469 7.257812 C 13.027344 7.109375 13.003906 6.898438 13.179688 7.054688 C 13.382812 7.328125 13.675781 7.5625 13.949219 7.660156 C 14.222656 7.757812 14.449219 7.707031 14.539062 7.617188 C 14.644531 7.511719 14.617188 7.246094 14.433594 7.3125 C 14.28125 7.363281 14.070312 7.378906 13.847656 7.292969 C 13.628906 7.207031 13.398438 7.019531 13.152344 6.703125 C 13.070312 6.523438 13.097656 6.375 13.265625 6.464844 C 13.667969 6.804688 14.183594 7.078125 14.445312 6.914062 C 14.640625 6.792969 14.644531 6.484375 14.398438 6.503906 C 13.902344 6.570312 13.714844 6.460938 13.238281 6.039062 C 13.128906 5.960938 13.136719 5.753906 13.308594 5.886719 C 13.710938 6.144531 14.257812 6.246094 14.472656 6.109375 C 14.664062 5.988281 14.636719 5.617188 14.3125 5.75 C 14.050781 5.910156 13.761719 5.902344 13.1875 5.492188 C 13.042969 5.371094 13.148438 5.214844 13.269531 5.28125 C 13.730469 5.546875 14.40625 5.660156 14.582031 5.121094 C 14.652344 4.917969 14.527344 4.796875 14.347656 4.9375 C 13.949219 5.308594 13.496094 5.125 13.246094 4.941406 C 13.171875 4.898438 13.039062 4.683594 13.273438 4.722656 C 13.875 4.859375 14.472656 4.742188 14.582031 4.3125 C 14.644531 4.175781 14.519531 3.929688 14.300781 4.136719 C 14.011719 4.421875 13.703125 4.429688 13.316406 4.429688 C 13.121094 4.386719 13.117188 4.171875 13.285156 4.140625 C 13.589844 4.144531 13.886719 4.011719 14.128906 3.878906 C 14.363281 3.742188 14.558594 3.550781 14.621094 3.289062 C 14.660156 3.054688 14.433594 2.804688 14.296875 3.054688 C 14.09375 3.417969 13.648438 3.761719 13.152344 3.824219 C 13.125 3.78125 13.058594 3.671875 12.980469 3.703125 C 12.832031 3.757812 12.660156 3.835938 12.480469 3.917969 C 12.09375 4.101562 11.933594 4.191406 11.980469 4.507812 C 12.027344 4.835938 11.773438 5.046875 11.5625 4.988281 C 11.378906 4.9375 11.28125 4.773438 11.3125 4.488281 C 11.339844 4.257812 11.570312 3.980469 11.828125 3.835938 C 11.996094 3.742188 12.25 3.691406 12.554688 3.621094 C 12.738281 3.585938 12.832031 3.511719 12.84375 3.4375 C 12.84375 3.4375 12.71875 3.53125 12.515625 3.515625 C 12.417969 3.511719 12.355469 3.46875 12.328125 3.425781 C 12.402344 3.410156 12.527344 3.425781 12.644531 3.425781 C 12.796875 3.425781 13.152344 3.390625 13.246094 3.175781 C 13.273438 3.035156 13.179688 3.007812 13.09375 3.101562 C 13 3.199219 12.964844 3.285156 12.777344 3.320312 C 12.660156 3.339844 12.546875 3.363281 12.402344 3.328125 C 12.484375 3.230469 12.613281 3.128906 12.726562 3.148438 C 12.761719 3.152344 12.8125 3.1875 12.851562 3.25 C 12.875 3.09375 12.832031 2.917969 12.417969 2.992188 C 12.425781 2.875 12.175781 2.824219 12.027344 2.824219 C 11.945312 2.828125 11.769531 2.875 11.648438 2.9375 C 11.449219 2.996094 11.253906 3.042969 11.023438 3.058594 C 11.15625 3.171875 11.183594 3.179688 11.316406 3.277344 C 11.113281 3.351562 10.957031 3.507812 10.886719 3.609375 C 10.886719 3.609375 11.121094 3.601562 11.183594 3.628906 C 10.9375 3.699219 10.824219 3.746094 10.695312 3.878906 C 10.742188 3.886719 10.808594 3.898438 10.839844 3.910156 C 10.867188 3.921875 10.859375 3.941406 10.835938 3.960938 C 10.785156 4 10.5625 4.253906 10.5 4.316406 C 10.4375 4.253906 10.214844 4 10.164062 3.960938 C 10.140625 3.941406 10.132812 3.921875 10.160156 3.910156 C 10.191406 3.898438 10.257812 3.886719 10.304688 3.878906 C 10.175781 3.746094 10.0625 3.699219 9.816406 3.628906 C 9.878906 3.601562 10.113281 3.609375 10.113281 3.609375 C 10.042969 3.507812 9.886719 3.351562 9.683594 3.277344 C 9.816406 3.179688 9.84375 3.171875 9.976562 3.058594 C 9.746094 3.042969 9.550781 2.996094 9.351562 2.9375 C 9.230469 2.875 9.054688 2.828125 8.972656 2.824219 C 8.824219 2.824219 8.574219 2.875 8.582031 2.992188 C 8.167969 2.917969 8.125 3.09375 8.148438 3.25 C 8.1875 3.1875 8.238281 3.152344 8.273438 3.148438 C 8.386719 3.128906 8.515625 3.230469 8.597656 3.328125 C 8.453125 3.363281 8.339844 3.339844 8.222656 3.320312 C 8.039062 3.285156 8 3.199219 7.90625 3.101562 C 7.820312 3.007812 7.726562 3.035156 7.753906 3.175781 C 7.847656 3.390625 8.203125 3.425781 8.355469 3.425781 C 8.472656 3.425781 8.597656 3.410156 8.671875 3.425781 C 8.644531 3.46875 8.582031 3.511719 8.484375 3.515625 C 8.28125 3.53125 8.15625 3.4375 8.15625 3.4375 C 8.167969 3.511719 8.261719 3.585938 8.445312 3.621094 C 8.75 3.691406 9.003906 3.742188 9.171875 3.835938 C 9.429688 3.980469 9.660156 4.257812 9.6875 4.488281 C 9.71875 4.773438 9.621094 4.9375 9.4375 4.988281 C 9.226562 5.046875 8.972656 4.835938 9.019531 4.507812 C 9.066406 4.191406 8.90625 4.101562 8.519531 3.917969 C 8.339844 3.835938 8.167969 3.757812 8.019531 3.703125 C 7.941406 3.671875 7.875 3.78125 7.847656 3.824219 C 7.351562 3.761719 6.90625 3.417969 6.703125 3.054688 C 6.566406 2.804688 6.339844 3.054688 6.378906 3.289062 C 6.441406 3.550781 6.636719 3.742188 6.871094 3.878906 C 7.113281 4.011719 7.410156 4.144531 7.714844 4.140625 C 7.882812 4.171875 7.878906 4.386719 7.683594 4.429688 C 7.296875 4.429688 6.988281 4.421875 6.699219 4.136719 C 6.480469 3.929688 6.355469 4.175781 6.417969 4.3125 C 6.527344 4.742188 7.125 4.859375 7.726562 4.722656 C 7.960938 4.683594 7.828125 4.898438 7.753906 4.941406 C 7.503906 5.125 7.050781 5.308594 6.652344 4.9375 C 6.472656 4.796875 6.347656 4.917969 6.417969 5.121094 C 6.59375 5.660156 7.269531 5.546875 7.730469 5.28125 C 7.851562 5.214844 7.957031 5.371094 7.8125 5.492188 C 7.238281 5.902344 6.949219 5.910156 6.691406 5.75 C 6.363281 5.617188 6.335938 5.988281 6.527344 6.109375 C 6.742188 6.246094 7.289062 6.144531 7.691406 5.886719 C 7.863281 5.753906 7.871094 5.960938 7.761719 6.039062 C 7.285156 6.460938 7.097656 6.570312 6.601562 6.503906 C 6.355469 6.484375 6.359375 6.792969 6.554688 6.914062 C 6.816406 7.078125 7.332031 6.804688 7.734375 6.464844 C 7.902344 6.375 7.929688 6.523438 7.847656 6.703125 C 7.601562 7.019531 7.371094 7.207031 7.152344 7.292969 C 6.929688 7.378906 6.71875 7.363281 6.566406 7.3125 C 6.382812 7.246094 6.355469 7.511719 6.460938 7.617188 C 6.550781 7.707031 6.777344 7.757812 7.050781 7.660156 C 7.324219 7.5625 7.617188 7.328125 7.820312 7.054688 C 7.996094 6.898438 7.972656 7.109375 7.894531 7.257812 C 7.488281 7.910156 7.121094 8.152344 6.632812 8.113281 C 6.417969 8.074219 6.367188 8.246094 6.507812 8.40625 C 6.746094 8.609375 7.050781 8.605469 7.3125 8.402344 C 7.546875 8.171875 7.996094 7.671875 8.234375 7.40625 C 8.398438 7.269531 8.453125 7.402344 8.402344 7.675781 C 8.359375 7.835938 8.25 8 7.945312 8.121094 C 7.738281 8.242188 7.894531 8.410156 8.046875 8.410156 C 8.132812 8.414062 8.308594 8.3125 8.4375 8.160156 C 8.613281 7.957031 8.625 7.824219 8.71875 7.511719 C 8.808594 7.359375 8.972656 7.429688 8.972656 7.589844 C 8.894531 7.902344 8.828125 7.957031 8.671875 8.085938 C 8.519531 8.230469 8.777344 8.277344 8.859375 8.21875 C 9.109375 8.046875 9.199219 7.828125 9.28125 7.625 C 9.34375 7.480469 9.515625 7.550781 9.4375 7.789062 C 9.242188 8.355469 8.925781 8.578125 8.375 8.691406 C 8.316406 8.703125 8.277344 8.757812 8.304688 8.804688 C 8.378906 8.882812 8.453125 8.953125 8.527344 9.03125 C 8.527344 9.03125 7.90625 9.191406 7.5625 9.292969 L 7.09375 8.972656 C 7.121094 8.855469 6.921875 8.714844 6.765625 8.832031 C 6.597656 8.75 6.507812 8.785156 6.441406 8.902344 C 6.570312 8.859375 6.632812 8.890625 6.6875 8.953125 C 6.722656 9.09375 6.910156 9.183594 7.042969 9.105469 L 7.394531 9.355469 L 6.796875 9.339844 C 6.753906 9.175781 6.460938 9.175781 6.378906 9.320312 C 6.269531 9.320312 6.199219 9.378906 6.160156 9.519531 C 6.277344 9.433594 6.328125 9.445312 6.390625 9.460938 C 6.460938 9.585938 6.699219 9.578125 6.765625 9.460938 L 7.339844 9.476562 L 7.003906 9.667969 C 6.8125 9.554688 6.5625 9.726562 6.609375 9.90625 C 6.527344 9.972656 6.519531 10.070312 6.570312 10.207031 C 6.597656 10.113281 6.652344 10.023438 6.734375 9.972656 C 6.910156 10.019531 7.078125 9.960938 7.078125 9.785156 L 7.542969 9.519531 L 8.003906 9.703125 C 8.003906 9.824219 8.1875 9.917969 8.347656 9.851562 C 8.457031 9.867188 8.472656 9.964844 8.492188 10.042969 C 8.550781 9.933594 8.5625 9.820312 8.421875 9.722656 C 8.421875 9.578125 8.246094 9.492188 8.097656 9.574219 L 7.707031 9.433594 C 8.058594 9.320312 8.703125 9.203125 8.703125 9.203125 C 8.789062 9.289062 8.859375 9.351562 8.949219 9.425781 C 8.996094 9.453125 9.058594 9.453125 9.132812 9.359375 C 9.351562 9.035156 9.558594 8.441406 9.875 8.359375 C 9.992188 8.332031 10.132812 8.410156 10.101562 8.671875 C 10.058594 9.066406 9.765625 9.394531 9.402344 9.640625 C 9.199219 9.777344 9.113281 9.71875 8.957031 9.710938 C 8.753906 9.734375 8.699219 9.835938 8.867188 9.972656 C 9.023438 10.054688 9.160156 10.066406 9.273438 10.042969 C 9.371094 10.027344 9.484375 9.898438 9.566406 9.828125 C 9.660156 9.722656 9.808594 9.847656 9.707031 9.976562 C 9.519531 10.203125 9.332031 10.351562 9.101562 10.351562 C 8.855469 10.382812 8.902344 10.523438 9.0625 10.589844 C 9.355469 10.714844 9.617188 10.484375 9.75 10.332031 C 9.851562 10.21875 9.925781 10.214844 9.90625 10.390625 C 9.804688 10.714844 9.664062 10.839844 9.4375 10.855469 C 9.253906 10.839844 9.25 10.984375 9.386719 11.082031 C 9.695312 11.300781 9.917969 10.929688 10.023438 10.707031 C 10.09375 10.503906 10.210938 10.597656 10.222656 10.765625 C 10.222656 10.988281 10.0625 11.21875 9.933594 11.335938 C 9.800781 11.449219 10.5 12.175781 10.5 12.175781 C 10.5 12.175781 11.199219 11.449219 11.066406 11.335938 Z M 12.003906 3.105469 C 11.898438 3.105469 11.828125 3.144531 11.828125 3.191406 C 11.828125 3.238281 11.898438 3.277344 12.003906 3.277344 C 12.113281 3.277344 12.183594 3.234375 12.183594 3.1875 C 12.183594 3.140625 12.113281 3.105469 12.003906 3.105469 Z M 8.996094 3.105469 C 9.101562 3.105469 9.171875 3.144531 9.171875 3.191406 C 9.171875 3.238281 9.101562 3.277344 8.996094 3.277344 C 8.886719 3.277344 8.816406 3.234375 8.816406 3.1875 C 8.816406 3.140625 8.886719 3.105469 8.996094 3.105469 Z M 8.996094 3.105469 "/>
</g>
</svg>
