<?xml version="1.0" encoding="UTF-8"?>
<svg xmlns="http://www.w3.org/2000/svg" xmlns:xlink="http://www.w3.org/1999/xlink" width="21px" height="15px" viewBox="0 0 21 15" version="1.1">
<defs>
<linearGradient id="linear0" gradientUnits="userSpaceOnUse" x1="0.5" y1="0" x2="0.5" y2="1" gradientTransform="matrix(21,0,0,15,0,0)">
<stop offset="0" style="stop-color:rgb(100%,100%,100%);stop-opacity:1;"/>
<stop offset="1" style="stop-color:rgb(94.117647%,94.117647%,94.117647%);stop-opacity:1;"/>
</linearGradient>
<linearGradient id="linear1" gradientUnits="userSpaceOnUse" x1="0.5" y1="0" x2="0.5" y2="1" gradientTransform="matrix(21,0,0,5,0,0)">
<stop offset="0" style="stop-color:rgb(53.333333%,73.333333%,90.980392%);stop-opacity:1;"/>
<stop offset="1" style="stop-color:rgb(46.27451%,67.843137%,86.666667%);stop-opacity:1;"/>
</linearGradient>
<linearGradient id="linear2" gradientUnits="userSpaceOnUse" x1="0.5" y1="0" x2="0.5" y2="1" gradientTransform="matrix(21,0,0,5,0,10)">
<stop offset="0" style="stop-color:rgb(53.333333%,73.333333%,90.980392%);stop-opacity:1;"/>
<stop offset="1" style="stop-color:rgb(46.27451%,67.843137%,86.666667%);stop-opacity:1;"/>
</linearGradient>
<linearGradient id="linear3" gradientUnits="userSpaceOnUse" x1="0.5" y1="0" x2="0.5" y2="1" gradientTransform="matrix(21,0,0,5,0,5)">
<stop offset="0" style="stop-color:rgb(100%,100%,100%);stop-opacity:1;"/>
<stop offset="1" style="stop-color:rgb(94.117647%,94.117647%,94.117647%);stop-opacity:1;"/>
</linearGradient>
</defs>
<g id="surface1">
<rect x="0" y="0" width="21" height="15" style="fill:url(#linear0);stroke:none;"/>
<path style=" stroke:none;fill-rule:evenodd;fill:url(#linear1);" d="M 0 0 L 21 0 L 21 5 L 0 5 Z M 0 0 "/>
<path style=" stroke:none;fill-rule:evenodd;fill:url(#linear2);" d="M 0 10 L 21 10 L 21 15 L 0 15 Z M 0 10 "/>
<path style=" stroke:none;fill-rule:evenodd;fill:url(#linear3);" d="M 0 5 L 21 5 L 21 10 L 0 10 Z M 0 5 "/>
<path style=" stroke:none;fill-rule:nonzero;fill:rgb(85.882353%,47.843137%,17.254902%);fill-opacity:1;" d="M 10.5 9.5 C 9.394531 9.5 8.5 8.605469 8.5 7.5 C 8.5 6.394531 9.394531 5.5 10.5 5.5 C 11.605469 5.5 12.5 6.394531 12.5 7.5 C 12.5 8.605469 11.605469 9.5 10.5 9.5 Z M 10.5 9.5 "/>
<path style=" stroke:none;fill-rule:evenodd;fill:rgb(95.686275%,70.196078%,18.039216%);fill-opacity:1;" d="M 12 7.5 C 12 8.328125 11.328125 9 10.5 9 C 9.671875 9 9 8.328125 9 7.5 C 9 6.671875 9.671875 6 10.5 6 C 11.328125 6 12 6.671875 12 7.5 Z M 12 7.5 "/>
</g>
</svg>
