<?xml version="1.0" encoding="utf-8"?>
<!-- Generator: Adobe Illustrator 28.1.0, SVG Export Plug-In . SVG Version: 6.00 Build 0)  -->
<svg version="1.1" id="Layer_1" xmlns="http://www.w3.org/2000/svg" xmlns:xlink="http://www.w3.org/1999/xlink" x="0px" y="0px"
	 viewBox="0 0 21 15" style="enable-background:new 0 0 21 15;" xml:space="preserve">
<style type="text/css">
	.st0{fill:#FDFCFC;}
	.st1{fill:#D63449;}
	.st2{fill:#FFFFFF;}
	.st3{fill:#043876;}
</style>
<g>
	<path class="st0" d="M1,9.2c0-0.4,0-0.8,0-1.2c0,0,0,0,0.1,0c2.5,0,4.9,0,7.4,0c0.1,0,0.1,0,0.2,0c0.1,0,0.1,0,0.2,0
		c3.6,0,7.1,0,10.7,0c0.1,0,0.3,0,0.4,0C20,8.1,20,8.1,20,8c0-0.3,0-0.6,0-1c0-0.1,0-0.1-0.1-0.1c-3.7,0-7.5,0-11.2,0c0,0,0,0-0.1,0
		c0,0,0-0.1,0-0.1c0-0.3,0-0.6,0-1c0,0,0-0.1,0-0.1c0,0,0.1,0,0.1,0c3.7,0,7.4,0,11.2,0c0.1,0,0.1,0,0.1-0.1c0-0.3,0-0.6,0-1
		c0-0.1,0-0.1-0.1-0.1c-2.8,0-5.5,0-8.3,0c-1,0-2,0-3,0c0-0.3,0-0.5,0-0.8c0-0.1,0-0.3,0-0.4c0,0,0,0,0.1,0c3.7,0,7.5,0,11.2,0
		c0.1,0,0.1,0,0.1-0.1c0-0.3,0-0.6,0-1c0-0.1,0-0.1-0.1-0.1c-3.7,0-7.4,0-11.1,0c0,0-0.1,0-0.1,0c0,0,0,0,0-0.1c0-0.3,0-0.6,0-1
		c0,0,0-0.1,0-0.1c0,0,0.1,0,0.1,0c3.4,0,6.7,0,10.1,0c0.4,0,0.7,0,1.1,0c0.1,0,0.1,0,0.1-0.1c0-0.3,0-0.6,0-1C20,0,20,0,19.9,0
		c-3.7,0-7.4,0-11.1,0C8.7,0,8.7,0,8.6,0c0,0-0.1,0-0.1,0C6,0,3.6,0,1.1,0C1.1,0,1,0,1,0c0,0,0,0,0,0c0,0,0,0,0.1,0
		c6.3,0,12.6,0,18.9,0C20,0,20,0,20,0.1c0,4.9,0,9.9,0,14.8c0,0,0,0.1,0,0.1c0,0,0-0.1,0-0.1c0-0.3,0-0.6,0-0.9c0-0.1,0-0.1-0.1-0.1
		c-6.3,0-12.5,0-18.8,0c0,0-0.1,0-0.1,0c0-0.4,0-0.8,0-1.2c0,0,0.1,0,0.1,0c6.2,0,12.4,0,18.6,0c0.1,0,0.1,0,0.2,0
		c0,0,0.1,0,0.1-0.1c0-0.3,0-0.7,0-1c0,0,0-0.1-0.1-0.1c-0.1,0-0.2,0-0.2,0c-6.1,0-12.2,0-18.3,0c-0.1,0-0.3,0-0.4,0
		c0-0.4,0-0.8,0-1.2c0,0,0.1,0,0.1,0c6.2,0,12.4,0,18.6,0c0.1,0,0.2,0,0.2,0c0.1,0,0.1,0,0.1-0.1c0-0.3,0-0.7,0-1
		c0-0.1,0-0.1-0.1-0.1c-6.2,0-12.3,0-18.5,0C1.3,9.2,1.1,9.2,1,9.2z"/>
	<path class="st1" d="M1,11.6c0.1,0,0.3,0,0.4,0c6.1,0,12.2,0,18.3,0c0.1,0,0.2,0,0.2,0c0,0,0.1,0,0.1,0.1c0,0.3,0,0.7,0,1
		c0,0.1,0,0.1-0.1,0.1c-0.1,0-0.1,0-0.2,0c-6.2,0-12.4,0-18.6,0c0,0-0.1,0-0.1,0C1,12.3,1,11.9,1,11.6z"/>
	<path class="st1" d="M1,9.2c0.1,0,0.3,0,0.4,0c6.2,0,12.3,0,18.5,0c0.1,0,0.1,0,0.1,0.1c0,0.3,0,0.7,0,1c0,0.1,0,0.1-0.1,0.1
		c-0.1,0-0.2,0-0.2,0c-6.2,0-12.4,0-18.6,0c0,0-0.1,0-0.1,0C1,10,1,9.6,1,9.2z"/>
	<path class="st1" d="M1,13.9c0,0,0.1,0,0.1,0c6.3,0,12.5,0,18.8,0c0.1,0,0.1,0,0.1,0.1c0,0.3,0,0.6,0,0.9c0,0,0,0.1,0,0.1
		c-6.3,0-12.7,0-19,0C1,14.6,1,14.2,1,13.9z"/>
	<path class="st1" d="M8.6,8.1c0-0.3,0-0.7,0-1c0-0.1,0-0.1,0-0.2c0,0,0,0,0.1,0c3.7,0,7.5,0,11.2,0C20,6.9,20,7,20,7
		c0,0.3,0,0.6,0,1c0,0.1,0,0.1-0.1,0.1c-0.1,0-0.3,0-0.4,0c-3.6,0-7.1,0-10.7,0C8.7,8.1,8.6,8.1,8.6,8.1z"/>
	<path class="st1" d="M8.6,5.8C8.6,5.7,8.6,5.7,8.6,5.8c0-0.4,0-0.7,0-1.1c0,0,0-0.1,0-0.1c1,0,2,0,3,0c2.8,0,5.5,0,8.3,0
		c0.1,0,0.1,0,0.1,0.1c0,0.3,0,0.6,0,1c0,0.1,0,0.1-0.1,0.1c-3.7,0-7.4,0-11.2,0C8.7,5.8,8.6,5.8,8.6,5.8z"/>
	<path class="st1" d="M8.6,3.5C8.6,3.4,8.6,3.4,8.6,3.5c0-0.4,0-0.7,0-1.1c0,0,0-0.1,0-0.1c0,0,0.1,0,0.1,0c3.7,0,7.4,0,11.1,0
		c0.1,0,0.1,0,0.1,0.1c0,0.3,0,0.6,0,1c0,0.1,0,0.1-0.1,0.1C16.1,3.5,12.4,3.5,8.6,3.5C8.6,3.5,8.6,3.5,8.6,3.5z"/>
	<path class="st1" d="M8.6,1.2c0-0.1,0-0.1,0-0.2c0-0.3,0-0.6,0-0.9c0.1,0,0.1,0,0.2,0c3.7,0,7.4,0,11.1,0C20,0,20,0,20,0.1
		c0,0.3,0,0.6,0,1c0,0.1,0,0.1-0.1,0.1c-0.4,0-0.7,0-1.1,0c-3.4,0-6.7,0-10.1,0C8.7,1.2,8.6,1.2,8.6,1.2z"/>
	<path class="st0" d="M4.1,2.5C4.1,2.5,4.1,2.5,4.1,2.5C4.1,2.5,4.1,2.5,4.1,2.5C4.1,2.5,4.1,2.5,4.1,2.5z"/>
	<rect x="6" y="0.3" class="st2" width="3.1" height="7.3"/>
	<path class="st3" d="M9.4,3.5c0,0.1,0,0.3,0,0.4c0,0.3,0,0.5,0,0.8c0,0,0,0,0,0.1c0,0.3,0,0.7,0,1c0,0,0,0.1,0,0.1c0,0,0,0.1,0,0.1
		c0,0.3,0,0.6,0,1c0,0,0,0.1,0,0.1c0,0.1,0,0.1,0,0.2c0,0.3,0,0.7,0,1c-0.1,0-0.1,0-0.2,0c-2.7,0-5.4,0-8.1,0c0,0,0,0-0.1,0
		C1,5.4,1,2.7,1,0c0.1,0,0.1,0,0.2,0c2.7,0,5.4,0,8.1,0c0,0,0.1,0,0.1,0c0,0.3,0,0.6,0,0.9c0,0.1,0,0.1,0,0.2c0,0,0,0.1,0,0.1
		c0,0.3,0,0.6,0,1c0,0,0,0,0,0.1c0,0,0,0.1,0,0.1C9.4,2.7,9.4,3.1,9.4,3.5C9.4,3.4,9.4,3.4,9.4,3.5z M4.4,2.8c0.1,0,0.1-0.1,0.1-0.1
		c0,0,0.1,0,0.1,0c0,0,0.1,0.1,0.2,0.1c0-0.1,0-0.1-0.1-0.2c0,0,0-0.1,0-0.1c0,0,0.1-0.1,0.1-0.1c0,0-0.1,0-0.1,0
		c-0.1,0-0.1,0-0.1-0.1c0,0,0-0.1-0.1-0.1c-0.1,0,0,0.1-0.1,0.1c0,0.1,0,0.1-0.1,0.1c0,0-0.1,0-0.1,0c0,0,0,0,0,0
		c0,0,0.1,0.1,0.1,0.1c0.1,0,0.1,0.1,0.1,0.2C4.4,2.7,4.4,2.7,4.4,2.8C4.4,2.8,4.4,2.8,4.4,2.8C4.4,2.8,4.4,2.8,4.4,2.8z M3,1.2
		c0.1,0,0.1-0.1,0.1-0.1c0,0,0.1,0,0.1,0c0,0,0.1,0.1,0.1,0.1c0-0.1,0-0.2-0.1-0.2c0,0,0-0.1,0-0.1c0,0,0.1-0.1,0.2-0.1
		c-0.1,0-0.1,0-0.2,0c0,0-0.1,0-0.1-0.1c0-0.1,0-0.1-0.1-0.2c0,0.1,0,0.1-0.1,0.2c0,0,0,0.1-0.1,0.1c-0.1,0-0.1,0-0.2,0
		C2.9,0.8,3,0.9,3.1,0.9C3.1,1,3,1.1,3,1.2z M2.2,1.6c0.1,0.1,0.1,0.1,0.2,0.2c0,0,0,0,0,0.1c0,0.1,0,0.1-0.1,0.2c0,0,0,0,0,0
		c0,0,0,0,0,0c0,0,0.1-0.1,0.1-0.1c0,0,0,0,0.1,0C2.6,1.9,2.6,2,2.7,2c0-0.1,0-0.1-0.1-0.2c0-0.1,0-0.1,0-0.1c0,0,0.1-0.1,0.1-0.1
		c-0.1,0-0.1,0-0.2,0c-0.1,0-0.1,0-0.1-0.1c0-0.1,0-0.1-0.1-0.2c0,0.1,0,0.1-0.1,0.2c0,0.1,0,0.1-0.1,0.1C2.3,1.6,2.2,1.6,2.2,1.6z
		 M2.5,2.9c0,0,0,0.1,0,0.1c0,0.1-0.1,0.1-0.2,0.2c0,0-0.1,0-0.1,0c0.1,0,0.1,0.1,0.2,0.1c0,0,0,0,0,0.1c0,0.1-0.1,0.1,0,0.2
		c0.1,0,0.1-0.1,0.1-0.1c0,0,0.1,0,0.1,0c0,0,0.1,0.1,0.2,0.1c0-0.1,0-0.1-0.1-0.2c0,0,0-0.1,0-0.1c0,0,0.1-0.1,0.1-0.1
		c-0.1,0-0.1,0-0.2,0c-0.1,0-0.1,0-0.1-0.1C2.6,3.1,2.5,3,2.5,2.9z M5,1.6C5,1.6,5,1.6,5,1.6c0,0.1,0.1,0.1,0.1,0.1c0,0,0,0,0,0.1
		c0,0.1,0,0.1,0,0.2c0.1,0,0.1-0.1,0.2-0.1c0,0,0.1,0,0.1,0c0,0,0.1,0.1,0.2,0.1c0-0.1,0-0.1-0.1-0.2c0,0,0-0.1,0-0.1
		c0,0,0.1-0.1,0.1-0.1c-0.1,0-0.1,0-0.2,0c0,0-0.1,0-0.1-0.1c0-0.1,0-0.1-0.1-0.2c0,0.1,0,0.1-0.1,0.2c0,0,0,0.1-0.1,0.1
		C5.1,1.6,5,1.6,5,1.6z M5.6,3.2C5.6,3.2,5.6,3.2,5.6,3.2c0,0-0.1,0-0.1,0c-0.1,0-0.1,0-0.1-0.1c0,0,0-0.1-0.1-0.1
		c0,0.1,0,0.1-0.1,0.2c0,0.1-0.1,0.1-0.1,0.1c0,0-0.1,0-0.2,0c0,0.1,0.1,0.1,0.2,0.1c0,0,0,0,0,0.1c0,0.1,0,0.1,0,0.2
		c0.1-0.2,0.3-0.2,0.4,0c0,0,0,0,0,0c0-0.1,0-0.1,0-0.2c0-0.1,0-0.1,0-0.1C5.5,3.3,5.6,3.2,5.6,3.2z M5.3,6.2c0,0.1-0.1,0.1-0.1,0.2
		c0,0,0,0.1-0.1,0.1c-0.1,0-0.1,0-0.2,0c0,0,0,0,0,0c0,0,0,0,0,0c0.1,0.1,0.2,0.2,0.1,0.3c0,0,0,0,0,0c0,0,0,0,0,0
		c0,0,0.1-0.1,0.1-0.1c0,0,0.1,0,0.1,0c0,0,0.1,0.1,0.1,0.1c0,0,0-0.1,0-0.1c0-0.1,0-0.1,0.1-0.2c0,0,0.1,0,0.1-0.1
		c-0.1,0-0.1,0-0.2,0c0,0-0.1,0-0.1-0.1C5.4,6.3,5.3,6.2,5.3,6.2z M8.1,6.2C8.1,6.2,8,6.3,8,6.4c0,0,0,0.1-0.1,0.1
		c-0.1,0-0.1,0-0.2,0c0,0.1,0.1,0.1,0.1,0.1c0.1,0,0.1,0.1,0,0.1c0,0.1,0,0.1-0.1,0.2C7.9,6.8,8,6.8,8,6.7c0,0,0.1,0,0.1,0
		c0,0,0.1,0.1,0.1,0.1c0-0.1,0-0.1,0-0.2c0,0,0-0.1,0-0.1c0,0,0.1-0.1,0.1-0.1c-0.1,0-0.1,0-0.2,0c0,0-0.1,0-0.1-0.1
		C8.1,6.3,8.1,6.2,8.1,6.2z M4.2,1.6c-0.1,0-0.1,0-0.2,0c0,0-0.1,0-0.1-0.1c0-0.1,0-0.1-0.1-0.2c0,0.1,0,0.1-0.1,0.2
		c0,0,0,0.1-0.1,0.1c-0.1,0-0.1,0-0.2,0c0,0.1,0.1,0.1,0.1,0.1c0,0,0.1,0.1,0,0.1c0,0.1,0,0.1-0.1,0.2c0.1,0,0.1-0.1,0.1-0.1
		c0,0,0.1,0,0.1,0C4,1.9,4.1,2,4.1,2c0-0.1,0-0.1-0.1-0.2c0,0,0-0.1,0-0.1C4.1,1.7,4.2,1.6,4.2,1.6z M1.5,4c0.1,0.1,0.1,0.1,0.2,0.1
		c0,0,0,0,0,0.1c0,0,0,0.1,0,0.1c0,0,0,0.1,0,0.1c0,0,0,0,0.1,0c0,0,0.1-0.1,0.1-0.1c0,0,0.1,0.1,0.1,0.1c0,0,0.1,0,0.1,0.1
		c0-0.1,0-0.1,0-0.2c0-0.1,0-0.1,0-0.1c0,0,0.1-0.1,0.1-0.1C1.9,4,1.9,4,1.8,3.8c0,0,0,0,0,0c0,0.1,0,0.1-0.1,0.2c0,0,0,0.1-0.1,0.1
		C1.6,4,1.6,4,1.5,4z M1.6,1.2c0.1,0,0.1-0.1,0.1-0.1c0,0,0.1,0,0.1,0c0,0,0.1,0.1,0.2,0.1C2,1.1,2,1,2,1c0,0,0,0,0-0.1
		c0.1,0,0.1-0.1,0.2-0.1c-0.1,0-0.1,0-0.2,0c-0.1,0-0.1,0-0.1-0.1c0-0.1,0-0.1-0.1-0.2c0,0,0,0.1,0,0.1c0,0.2,0,0.2-0.2,0.2
		c0,0-0.1,0-0.1,0c0,0.1,0.1,0.1,0.1,0.1c0,0,0,0,0,0.1C1.6,1,1.6,1.1,1.6,1.2z M4.8,1.2c0-0.1,0-0.1-0.1-0.2c0-0.1,0-0.1,0-0.1
		c0,0,0.1-0.1,0.1-0.1c-0.1,0-0.1,0-0.2,0c0,0-0.1,0-0.1-0.1c0-0.1,0-0.1-0.1-0.2c0,0.1,0,0.1-0.1,0.2c0,0.1,0,0.1-0.1,0.1
		c-0.1,0-0.1,0-0.2,0c0,0.1,0.1,0.1,0.1,0.1c0,0,0,0.1,0,0.1c0,0.1,0,0.1-0.1,0.2c0,0,0,0,0.1,0C4.6,1,4.6,1,4.8,1.2
		C4.8,1.2,4.8,1.2,4.8,1.2z M6.9,2c0-0.1,0-0.1-0.1-0.2c0,0,0-0.1,0-0.1c0,0,0.1-0.1,0.1-0.1c-0.1,0-0.1,0-0.2,0c0,0-0.1,0-0.1-0.1
		c0-0.1,0-0.1-0.1-0.2c0,0.1-0.1,0.1-0.1,0.2c0,0,0,0.1-0.1,0.1c-0.1,0-0.1,0-0.2,0c0,0.1,0.1,0.1,0.1,0.1c0,0,0,0.1,0,0.1
		c0,0.1,0,0.1,0,0.2c0,0,0.1,0,0.1-0.1C6.7,1.8,6.7,1.8,6.9,2C6.8,2,6.9,2,6.9,2z M6.5,5.2C6.5,5.2,6.5,5.2,6.5,5.2
		c0.1,0,0.1-0.1,0.2-0.1c0,0,0.1,0,0.1,0c0,0,0.1,0.1,0.2,0.1c0-0.1,0-0.1-0.1-0.2c0-0.1,0-0.1,0-0.1c0,0,0.1-0.1,0.1-0.1
		c0,0,0,0,0,0c-0.1,0-0.1,0-0.2,0c-0.1,0-0.1,0-0.1-0.1c0-0.1,0-0.1-0.1-0.2c0,0.1,0,0.1-0.1,0.2c0,0,0,0.1-0.1,0.1
		c-0.1,0-0.1,0-0.2,0c0,0.1,0.1,0.1,0.1,0.1c0,0,0.1,0.1,0,0.1C6.5,5.1,6.5,5.2,6.5,5.2z M3.7,3.6C3.7,3.6,3.7,3.6,3.7,3.6
		C3.9,3.5,3.9,3.5,4,3.6c0,0,0,0,0.1,0c0-0.1,0-0.1,0-0.2c0,0,0-0.1,0-0.1c0,0,0.1-0.1,0.1-0.1c-0.1,0-0.1,0-0.2,0
		c0,0-0.1,0-0.1-0.1c0-0.1,0-0.1-0.1-0.2c0,0.1,0,0.1-0.1,0.2c0,0,0,0.1-0.1,0.1c-0.1,0-0.1,0-0.2,0c0,0.1,0.1,0.1,0.1,0.1
		c0,0,0,0,0,0.1C3.7,3.5,3.7,3.5,3.7,3.6z M6.7,2.9C6.7,3,6.6,3,6.6,3.1c0,0.1,0,0.1-0.1,0.1c0,0-0.1,0-0.2,0
		c0.1,0.1,0.1,0.1,0.2,0.1c0.1,0,0.1,0.1,0,0.1c0,0.1,0,0.1,0,0.2c0.1,0,0.1-0.1,0.1-0.1c0,0,0.1,0,0.1,0c0,0,0.1,0.1,0.2,0.1
		c0-0.1-0.1-0.2-0.1-0.3C6.9,3.3,7,3.3,7,3.2c-0.1,0-0.1,0-0.2,0c0,0-0.1,0-0.1-0.1C6.7,3.1,6.7,3,6.7,2.9z M1.5,2.4
		C1.5,2.4,1.5,2.4,1.5,2.4c0.1,0.1,0.1,0.1,0.2,0.2c0,0,0,0,0,0.1c0,0.1-0.1,0.1,0,0.2c0.1,0,0.1-0.1,0.1-0.1c0,0,0.1,0,0.1,0
		c0.1,0,0.1,0.1,0.2,0.1C2,2.7,2,2.7,2,2.6c0,0,0-0.1,0-0.1c0,0,0.1-0.1,0.1-0.1c-0.1,0-0.1,0-0.2,0c-0.1,0-0.1,0-0.1-0.1
		c0-0.1,0-0.1-0.1-0.2c0,0,0,0,0,0C1.8,2.3,1.7,2.4,1.5,2.4z M9,7.7C9,7.7,9,7.6,9,7.7c0-0.1,0-0.2,0-0.2c0,0,0-0.1,0-0.1
		c0.1,0,0.1-0.1,0.1-0.1c-0.1,0-0.1,0-0.2,0c-0.1,0-0.1,0-0.1-0.1c0-0.1,0-0.1-0.1-0.2c0,0.1-0.1,0.1-0.1,0.2c0,0.1,0,0.1-0.1,0.1
		c-0.1,0-0.1,0-0.2,0c0,0.1,0.1,0.1,0.1,0.1c0,0,0.1,0.1,0,0.1c0,0.1,0,0.1,0,0.2c0,0,0,0,0,0C8.7,7.5,8.8,7.5,9,7.7z M9,4.4
		c0-0.1,0-0.1-0.1-0.2c0,0,0-0.1,0-0.1C9,4.1,9.1,4,9.1,4c0,0,0,0,0,0C9,4,9,4,8.9,4C8.9,4,8.9,4,8.8,3.9c0-0.1,0-0.1-0.1-0.2
		c0,0-0.1,0.1-0.1,0.1C8.7,4,8.7,4,8.6,4c0,0-0.1,0-0.2,0C8.5,4,8.5,4.1,8.6,4.1c0,0,0,0.1,0,0.1c0,0.1,0,0.1-0.1,0.2
		c0.1,0,0.1-0.1,0.2-0.1c0,0,0.1,0,0.1,0C8.9,4.3,8.9,4.4,9,4.4z M2.5,6.2C2.5,6.2,2.5,6.2,2.5,6.2C2.4,6.4,2.4,6.4,2.3,6.4
		c0,0-0.1,0-0.1,0c0,0,0.1,0.1,0.1,0.1c0,0,0,0.1,0,0.1c0,0.1,0,0.1,0,0.2c0,0,0,0,0,0c0.2-0.1,0.2-0.1,0.3,0c0,0,0,0,0,0
		c0,0,0-0.1,0-0.1c-0.1-0.1,0-0.2,0.1-0.3c0,0,0,0,0.1-0.1c0,0,0,0-0.1,0C2.6,6.4,2.6,6.4,2.5,6.2C2.5,6.2,2.5,6.2,2.5,6.2z
		 M4.8,4.4c0-0.1,0-0.1-0.1-0.2c0-0.1,0-0.1,0-0.1c0,0,0.1-0.1,0.1-0.1C4.9,4,4.8,4,4.8,4c0,0-0.1,0-0.1-0.1c0-0.1,0-0.1-0.1-0.2
		c0,0.1-0.1,0.1-0.1,0.2c0,0,0,0.1-0.1,0.1C4.4,4,4.3,4,4.3,4c0.1,0,0.1,0.1,0.1,0.1c0,0,0.1,0.1,0,0.1c0,0.1,0,0.1-0.1,0.2
		c0,0,0.1-0.1,0.1-0.1c0.1-0.1,0.1-0.1,0.2,0C4.7,4.4,4.8,4.4,4.8,4.4z M7.1,2.4C7.1,2.4,7.1,2.4,7.1,2.4c0.1,0.1,0.2,0.2,0.1,0.3
		c0,0,0,0,0,0.1c0.1,0,0.1-0.1,0.1-0.1c0,0,0.1,0,0.1,0c0,0,0.1,0.1,0.2,0.1c0-0.1,0-0.1,0-0.1c0-0.1,0-0.2,0.1-0.2
		c0,0,0.1,0,0.1-0.1c-0.1,0-0.1,0-0.2,0c-0.1,0-0.1,0-0.1-0.1c0-0.1,0-0.1-0.1-0.2C7.4,2.3,7.3,2.4,7.1,2.4z M3.6,6.4
		c0.1,0,0.1,0.1,0.2,0.1c0,0,0,0.1,0,0.1c0,0.1,0,0.1,0,0.2c0.1,0,0.1-0.1,0.1-0.1c0,0,0.1-0.1,0.1,0c0,0,0.1,0.1,0.1,0.1
		c0-0.1,0-0.1,0-0.2c0-0.1,0-0.1,0-0.1c0,0,0.1-0.1,0.1-0.1c-0.1,0-0.1,0-0.2,0c0,0-0.1,0-0.1-0.1c0-0.1,0-0.1-0.1-0.2
		c0,0.1-0.1,0.1-0.1,0.2c0,0.1,0,0.1-0.1,0.1C3.7,6.4,3.6,6.4,3.6,6.4z M8.4,3.2C8.4,3.2,8.4,3.2,8.4,3.2c-0.1,0-0.1,0-0.2,0
		c0,0-0.1,0-0.1-0.1c0-0.1,0-0.1-0.1-0.2C8.1,3,8,3.1,8,3.1c0,0,0,0.1-0.1,0.1c-0.1,0-0.1,0-0.2,0c0.1,0.1,0.1,0.1,0.2,0.1
		c0,0,0,0,0,0.1c0,0.1,0,0.1,0,0.2C7.9,3.6,8,3.5,8,3.5c0,0,0.1,0,0.1,0c0,0,0.1,0.1,0.2,0.1c0-0.1,0-0.1,0-0.2c0-0.1,0-0.1,0-0.1
		C8.3,3.3,8.4,3.2,8.4,3.2z M7.2,4.4c0-0.1,0.1-0.1,0.1-0.1c0,0,0.1,0,0.1,0c0,0,0.1,0.1,0.2,0.1c0-0.1,0-0.1-0.1-0.2
		c0,0,0-0.1,0-0.1c0,0,0.1-0.1,0.1-0.1C7.7,4,7.6,4,7.6,4C7.5,4,7.5,4,7.4,3.9c0-0.1,0-0.1-0.1-0.2c0,0.1,0,0.1-0.1,0.2
		C7.3,4,7.3,4,7.2,4C7.2,4,7.1,4,7.1,4c0,0,0.1,0.1,0.1,0.1c0.1,0,0.1,0.1,0,0.1C7.2,4.3,7.2,4.4,7.2,4.4z M8.1,1.3
		C8.1,1.3,8.1,1.3,8.1,1.3C8.1,1.4,8,1.4,8,1.5c0,0.1,0,0.1-0.1,0.1c-0.1,0-0.1,0-0.2,0c0,0.1,0.1,0.1,0.1,0.1c0,0,0,0.1,0,0.1
		c0,0.1,0,0.1,0,0.2C7.9,2,8,1.9,8,1.9c0,0,0.1,0,0.1,0c0,0,0.1,0.1,0.2,0.1c0-0.1,0-0.1-0.1-0.2c0,0,0-0.1,0-0.1
		c0,0,0.1-0.1,0.1-0.1c-0.1,0-0.1,0-0.2,0c-0.1,0-0.1,0-0.1-0.1C8.1,1.4,8.1,1.4,8.1,1.3z M3.4,7.7C3.4,7.6,3.4,7.6,3.4,7.7
		C3.3,7.5,3.4,7.3,3.5,7.3c0,0,0,0,0,0c-0.2,0-0.3,0-0.3-0.2c0,0,0,0,0-0.1c0,0,0,0.1-0.1,0.2c0,0.1,0,0.1-0.1,0.1
		c-0.1,0-0.1,0-0.2,0c0,0,0.1,0.1,0.1,0.1c0.1,0,0.1,0.1,0,0.2c0,0,0,0.1,0,0.2c0.1,0,0.1-0.1,0.2-0.1c0,0,0.1,0,0.1,0
		C3.3,7.6,3.4,7.6,3.4,7.7z M3.4,4.4c0-0.1,0-0.1,0-0.2c0-0.1,0-0.1,0-0.1c0,0,0.1-0.1,0.1-0.1c0,0,0,0,0,0C3.5,4,3.4,4,3.4,4
		c0,0-0.1,0-0.1-0.1c0-0.1,0-0.1-0.1-0.2c0,0.1,0,0.1-0.1,0.2C3.1,4,3.1,4,3.1,4C3,4,2.9,4,2.9,4c0,0,0,0,0,0C2.9,4,3,4.1,3,4.1
		c0.1,0,0.1,0.1,0,0.1c0,0.1,0,0.1,0,0.2c0,0,0,0,0,0C3.2,4.3,3.2,4.3,3.4,4.4C3.4,4.4,3.4,4.4,3.4,4.4z M8.3,5.2
		c0-0.1,0-0.1-0.1-0.2c0-0.1,0-0.1,0-0.1c0,0,0.1-0.1,0.1-0.1c-0.1,0-0.1,0-0.2,0c0,0-0.1,0-0.1-0.1c0-0.1,0-0.1-0.1-0.2
		C8,4.6,8,4.7,8,4.7c0,0.1,0,0.1-0.1,0.1c-0.1,0-0.1,0-0.2,0c0,0.1,0.1,0.1,0.1,0.1C7.9,5,8,5,7.9,5c0,0.1,0,0.1-0.1,0.2
		C7.9,5.2,8,5.2,8,5.1c0,0,0.1,0,0.1,0C8.2,5.2,8.2,5.2,8.3,5.2z M9,1.2C9,1.1,9,1,8.9,1c0,0,0-0.1,0-0.1c0,0,0.1-0.1,0.1-0.1
		c-0.1,0-0.1,0-0.2,0c-0.1,0-0.1,0-0.1-0.1c0-0.1,0-0.1-0.1-0.2c0,0.1,0,0.1,0,0.2c0,0.1,0,0.1-0.1,0.1c-0.1,0-0.1,0-0.2,0
		c0,0.1,0.1,0.1,0.1,0.1c0,0,0.1,0.1,0,0.1c0,0.1,0,0.1,0,0.2c0.1,0,0.1-0.1,0.1-0.1c0,0,0.1,0,0.1,0C8.9,1.1,8.9,1.2,9,1.2z
		 M8.4,5.6c0,0.1,0.1,0.1,0.1,0.1c0,0,0.1,0,0.1,0.1c0,0.1,0,0.1,0,0.2c0,0,0,0,0,0c0,0,0,0,0,0c0,0,0.1,0,0.1-0.1c0,0,0.1,0,0.1,0
		C8.9,6,8.9,6,9,6C9,6,9,5.9,8.9,5.8c0,0,0-0.1,0-0.1c0,0,0.1-0.1,0.1-0.1c-0.1,0-0.1,0-0.2,0c-0.1,0-0.1,0-0.1-0.1
		c0,0,0-0.1-0.1-0.2c0,0.1,0,0.1,0,0.1c0,0.1-0.1,0.1-0.1,0.1C8.6,5.6,8.5,5.6,8.4,5.6z M6.4,6.4C6.4,6.4,6.4,6.4,6.4,6.4
		c0,0.1,0.1,0.1,0.1,0.1c0,0,0,0.1,0,0.1c0,0.1,0,0.1-0.1,0.2c0.1-0.1,0.1-0.1,0.2-0.1c0,0,0.1,0,0.1,0c0,0,0.1,0.1,0.2,0.1
		c0-0.1-0.1-0.2,0-0.2C6.9,6.5,7,6.5,7,6.4c-0.1,0-0.1,0-0.2,0c0,0-0.1,0-0.1-0.1c0-0.1,0-0.1-0.1-0.2c0,0.1,0,0.1-0.1,0.2
		c0,0,0,0.1-0.1,0.1C6.5,6.4,6.4,6.4,6.4,6.4z M5,4.8C5,4.8,5,4.8,5,4.8c0,0.1,0.1,0.1,0.1,0.1c0.1,0,0.1,0.1,0,0.1
		c0,0.1-0.1,0.1-0.1,0.2c0.1,0,0.1-0.1,0.1-0.1c0.1,0,0.1-0.1,0.2,0c0,0,0.1,0.1,0.1,0.1c0-0.1,0-0.1,0-0.2c0-0.1,0-0.1,0-0.1
		c0,0,0.1-0.1,0.1-0.1c-0.1,0-0.1,0-0.2,0c-0.1,0-0.1,0-0.1-0.1c0-0.1,0-0.1-0.1-0.2c0,0.1,0,0.1-0.1,0.2c0,0,0,0.1-0.1,0.1
		C5.1,4.8,5,4.8,5,4.8z M4.6,5.4c0,0.1,0,0.1-0.1,0.2c0,0.1,0,0.1-0.1,0.1c-0.1,0-0.1,0-0.2,0c0,0.1,0.1,0.1,0.1,0.1
		c0,0,0.1,0.1,0,0.1c0,0.1-0.1,0.1,0,0.2C4.5,6,4.5,6,4.5,5.9c0,0,0.1,0,0.1,0C4.7,6,4.7,6,4.8,6c0-0.1,0-0.1,0-0.1
		c0-0.1,0-0.1,0.1-0.2c0,0,0.1-0.1,0.1-0.1c-0.1,0-0.1,0-0.2,0c-0.1,0-0.1,0-0.1-0.1C4.7,5.5,4.6,5.4,4.6,5.4z M5.8,4.4
		c0.1,0,0.1-0.1,0.2-0.1c0,0,0.1,0,0.1,0c0,0,0.1,0.1,0.2,0.1c0-0.1,0-0.1-0.1-0.2c0-0.1,0-0.1,0-0.1c0,0,0.1-0.1,0.1-0.1
		C6.3,4,6.2,4,6.1,4c0,0-0.1,0-0.1-0.1C6,3.9,6,3.8,6,3.7C6,3.9,5.9,4,5.7,4c0,0,0,0,0,0c0,0,0,0,0,0c0,0,0,0,0,0
		c0.1,0.1,0.1,0.1,0.1,0.2C5.8,4.3,5.8,4.4,5.8,4.4z M2.9,5.6c0,0,0.1,0.1,0.1,0.1c0.1,0,0.1,0.1,0.1,0.2C3,5.9,3,6,3,6
		C3.1,6,3.1,6,3.1,5.9c0.1,0,0.1-0.1,0.2,0c0,0,0.1,0,0.1,0.1c0-0.1,0-0.1,0-0.2c0,0,0-0.1,0-0.1c0.1,0,0.1-0.1,0.2-0.1
		c-0.1,0-0.1,0-0.2,0c0,0-0.1,0-0.1-0.1c0-0.1,0-0.1-0.1-0.2c0,0,0,0.1,0,0.1C3.1,5.6,3.1,5.6,2.9,5.6C2.9,5.6,2.9,5.6,2.9,5.6z
		 M7.7,5.6C7.7,5.6,7.7,5.6,7.7,5.6c-0.1,0-0.1,0-0.2,0c0,0-0.1,0-0.1-0.1c0-0.1,0-0.1-0.1-0.2c0,0.1,0,0.1-0.1,0.2
		c0,0.1,0,0.1-0.1,0.1c-0.1,0-0.1,0-0.2,0c0,0.1,0.1,0.1,0.1,0.1c0,0,0,0.1,0,0.1c0,0.1,0,0.1-0.1,0.2C7.2,6,7.3,6,7.3,5.9
		c0,0,0.1,0,0.1,0C7.5,6,7.5,6,7.6,6c0-0.1,0-0.1-0.1-0.2c0,0,0-0.1,0-0.1C7.6,5.7,7.7,5.7,7.7,5.6z M6.2,6c0-0.1,0-0.1-0.1-0.2
		c0,0,0-0.1,0-0.1c0,0,0.1-0.1,0.1-0.1c-0.1,0-0.1,0-0.2,0c-0.1,0-0.1,0-0.1-0.1C6,5.5,6,5.4,6,5.4c0,0.1,0,0.1-0.1,0.2
		c0,0.1,0,0.1-0.1,0.1c-0.1,0-0.1,0-0.2,0c0.1,0,0.1,0.1,0.1,0.1c0,0,0.1,0.1,0,0.1c0,0.1,0,0.1-0.1,0.2C5.9,6,5.9,6,6,5.9
		c0,0,0,0,0.1,0C6.1,6,6.1,6,6.2,6z M7.4,0.5C7.4,0.5,7.4,0.5,7.4,0.5c0,0.1-0.1,0.1-0.1,0.2c0,0.1,0,0.1-0.1,0.1
		c-0.1,0-0.1,0-0.2,0c0,0.1,0.1,0.1,0.1,0.1c0.1,0,0.1,0.1,0.1,0.2c0,0,0,0.1,0,0.2c0.1,0,0.1-0.1,0.1-0.1c0,0,0.1,0,0.1,0
		c0,0,0.1,0.1,0.1,0.1c0-0.1,0-0.1-0.1-0.2c0-0.1,0-0.1,0-0.1c0,0,0.1-0.1,0.1-0.1c-0.1,0-0.1,0-0.2,0c-0.1,0-0.1,0-0.1-0.1
		C7.4,0.6,7.4,0.6,7.4,0.5z M2,6C2,6,2,5.9,2,5.8c0-0.1,0-0.1,0-0.1c0,0,0.1-0.1,0.1-0.1c-0.1,0-0.1,0-0.1,0c-0.1,0-0.1,0-0.1-0.1
		c0,0,0-0.1,0-0.1c0,0.1,0,0.1-0.1,0.2c0,0,0,0.1-0.1,0.1c-0.1,0-0.1,0-0.2,0c0,0.1,0.1,0.1,0.1,0.1c0,0,0.1,0.1,0,0.1
		c0,0,0,0.1-0.1,0.2C1.7,6,1.7,6,1.7,6c0.1-0.1,0.1-0.1,0.2,0C1.9,6,2,6,2,6z M2.7,5.2c0-0.1,0-0.1,0-0.2c0-0.1,0-0.1,0-0.1
		c0,0,0.1-0.1,0.1-0.1c-0.1,0-0.1,0-0.2,0c-0.1,0-0.1,0-0.1-0.1c0,0,0-0.1-0.1-0.2c0,0.1,0,0.1-0.1,0.2c0,0.1,0,0.1-0.1,0.1
		c-0.1,0-0.1,0-0.2,0c0,0.1,0.1,0.1,0.1,0.1c0.1,0,0.1,0.1,0,0.1c0,0.1,0,0.1,0,0.2c0.1,0,0.1-0.1,0.1-0.1c0,0,0.1,0,0.1,0
		C2.6,5.2,2.7,5.2,2.7,5.2z M5.8,1.2c0.1,0,0.1-0.1,0.2-0.1C6,1,6,1,6,1.1c0,0,0.1,0.1,0.2,0.1c0-0.1,0-0.1-0.1-0.2c0,0,0-0.1,0-0.1
		c0,0,0.1-0.1,0.1-0.1c-0.1,0-0.1,0-0.2,0c-0.1,0-0.1,0-0.1-0.1c0,0,0-0.1-0.1-0.1c0,0-0.1,0.1-0.1,0.1c0,0.1-0.1,0.1-0.1,0.1
		c0,0-0.1,0-0.1,0c0,0,0,0,0,0c0,0,0.1,0.1,0.1,0.1c0,0,0.1,0.1,0,0.1C5.8,1.1,5.8,1.1,5.8,1.2z M6.2,2.8c0-0.1,0-0.1,0-0.2
		c0,0,0-0.1,0-0.1c0,0,0.1-0.1,0.1-0.1c-0.1,0-0.1,0-0.2,0c-0.1,0-0.1,0-0.1-0.1c0,0,0-0.1-0.1-0.2c0,0.1,0,0.1,0,0.1
		c0,0.1-0.1,0.1-0.1,0.1c0,0-0.1,0-0.1,0c0,0,0.1,0.1,0.1,0.1c0.1,0,0.1,0.1,0.1,0.2c0,0,0,0.1,0,0.1c0.1,0,0.1-0.1,0.2-0.1
		c0,0,0.1,0,0.1,0C6.1,2.7,6.1,2.8,6.2,2.8z M4.3,7.2C4.3,7.2,4.3,7.2,4.3,7.2c0,0.1,0.1,0.1,0.1,0.1c0,0,0,0.1,0,0.1
		c0,0.1,0,0.1,0,0.2c0.1,0,0.1-0.1,0.2-0.1c0.1,0,0.1,0.1,0.2,0.1c0,0,0,0,0,0c0-0.1,0-0.1,0-0.2c0,0,0-0.1,0-0.1
		c0,0,0.1-0.1,0.1-0.1c-0.1,0-0.1,0-0.2,0c0,0-0.1,0-0.1-0.1c0-0.1,0-0.1-0.1-0.2c0,0.1,0,0.1-0.1,0.2c0,0.1,0,0.1-0.1,0.1
		C4.4,7.2,4.3,7.2,4.3,7.2z M3.9,4.6c0,0.1,0,0.1-0.1,0.2c0,0,0,0.1-0.1,0.1c-0.1,0-0.2,0-0.2,0c0,0.1,0.1,0.1,0.1,0.1
		c0.1,0,0,0.1,0,0.1c0,0.1,0,0.1-0.1,0.2c0.1,0,0.1-0.1,0.2-0.1c0,0,0.1,0,0.1,0c0,0,0.1,0.1,0.2,0.1c0-0.1,0-0.1-0.1-0.2
		c0-0.1,0-0.1,0-0.1c0,0,0.1-0.1,0.1-0.1c0,0-0.1,0-0.1,0C4,4.8,4,4.8,4,4.7C3.9,4.7,3.9,4.6,3.9,4.6z M9.1,2.4
		C9.1,2.4,9.1,2.4,9.1,2.4c-0.1,0-0.1,0-0.2,0c0,0-0.1,0-0.1-0.1c0-0.1,0-0.1-0.1-0.2c0,0.1,0,0.1-0.1,0.2c0,0,0,0.1-0.1,0.1
		c-0.1,0-0.1,0-0.2,0c0,0.1,0.1,0.1,0.1,0.1c0,0,0.1,0.1,0,0.1c0,0.1,0,0.1,0,0.2c0,0,0.1,0,0.1-0.1c0.1-0.1,0.1-0.1,0.2,0
		c0,0,0.1,0,0.1,0.1c0-0.1,0-0.1-0.1-0.2c0,0,0-0.1,0-0.1C9,2.5,9.1,2.4,9.1,2.4z M1.6,7.7c0.1-0.1,0.1-0.1,0.2-0.1c0,0,0.1,0,0.1,0
		c0,0,0.1,0.1,0.2,0.1c0-0.1,0-0.1,0-0.1c0-0.1,0-0.1,0.1-0.2c0,0,0.1,0,0.1-0.1c-0.1,0-0.1,0-0.2,0c-0.1,0-0.1,0-0.1-0.1
		c0-0.1,0-0.1-0.1-0.2c0,0.1,0,0.1-0.1,0.2c0,0.1,0,0.1-0.1,0.1c-0.1,0-0.1,0-0.2,0c0,0,0.1,0.1,0.1,0.1c0,0,0.1,0.1,0,0.1
		C1.6,7.5,1.6,7.6,1.6,7.7z M7.2,7.7c0.1,0,0.1-0.1,0.2-0.1c0,0,0.1,0,0.1,0c0,0,0.1,0.1,0.2,0.1c0-0.1,0-0.1-0.1-0.2
		c0,0,0-0.1,0-0.1c0,0,0.1-0.1,0.1-0.1c-0.1,0-0.1,0-0.2,0c-0.1,0-0.1,0-0.1-0.1c0-0.1,0-0.1-0.1-0.2c0,0.1,0,0.1-0.1,0.2
		c0,0,0,0.1-0.1,0.1c-0.1,0-0.1,0-0.2,0c0.1,0,0.1,0.1,0.1,0.1c0,0,0,0.1,0,0.1C7.2,7.5,7.2,7.6,7.2,7.7z M5.8,7.7
		c0.1,0,0.1-0.1,0.2-0.1c0,0,0.1,0,0.1,0c0,0,0.1,0.1,0.2,0.1c0-0.1,0-0.1-0.1-0.2c0-0.1,0-0.1,0-0.1c0,0,0.1-0.1,0.1-0.1
		c-0.1,0-0.1,0-0.2,0c-0.1,0-0.1,0-0.1-0.1C6,7.1,6,7,6,7c0,0.1,0,0.1-0.1,0.2c0,0,0,0.1-0.1,0.1c-0.1,0-0.1,0-0.2,0
		c0.1,0,0.1,0.1,0.1,0.1c0,0,0.1,0.1,0,0.1C5.8,7.5,5.8,7.6,5.8,7.7z M3.2,2.1c0,0,0,0.1-0.1,0.1c0,0.1,0,0.1-0.1,0.1
		c0,0-0.1,0-0.1,0C2.9,2.4,3,2.5,3,2.5c0,0,0,0.1,0,0.1C3,2.7,3,2.7,3,2.8c0.1,0,0.1-0.1,0.1-0.1c0,0,0.1,0,0.1,0
		c0,0,0.1,0.1,0.1,0.1c0-0.1,0-0.1,0-0.2c0-0.1,0-0.1,0-0.2c0,0,0.1-0.1,0.1-0.1c-0.1,0-0.1,0-0.1,0c-0.2,0-0.1,0-0.2-0.1
		C3.2,2.2,3.2,2.2,3.2,2.1z"/>
</g>
</svg>
