<?xml version="1.0" encoding="UTF-8"?>
<svg xmlns="http://www.w3.org/2000/svg" xmlns:xlink="http://www.w3.org/1999/xlink" width="21px" height="15px" viewBox="0 0 22 15" version="1.1">
<g id="surface1">
<rect x="0" y="0" width="22" height="15" style="fill:rgb(100%,60%,20%);fill-opacity:1;stroke:none;"/>
<path style=" stroke:none;fill-rule:nonzero;fill:rgb(100%,100%,100%);fill-opacity:1;" d="M 0 5 L 22 5 L 22 15 L 0 15 Z M 0 5 "/>
<path style=" stroke:none;fill-rule:nonzero;fill:rgb(7.058824%,53.333333%,2.745098%);fill-opacity:1;" d="M 0 10 L 22 10 L 22 15 L 0 15 Z M 0 10 "/>
<path style=" stroke:none;fill-rule:nonzero;fill:rgb(0%,0%,53.333333%);fill-opacity:1;" d="M 12.957031 7.5 C 12.957031 8.605469 12.078125 9.5 11 9.5 C 9.921875 9.5 9.042969 8.605469 9.042969 7.5 C 9.042969 6.394531 9.921875 5.5 11 5.5 C 12.078125 5.5 12.957031 6.394531 12.957031 7.5 Z M 12.957031 7.5 "/>
<path style=" stroke:none;fill-rule:nonzero;fill:rgb(100%,100%,100%);fill-opacity:1;" d="M 12.710938 7.5 C 12.710938 8.464844 11.945312 9.25 11 9.25 C 10.054688 9.25 9.289062 8.464844 9.289062 7.5 C 9.289062 6.535156 10.054688 5.75 11 5.75 C 11.945312 5.75 12.710938 6.535156 12.710938 7.5 Z M 12.710938 7.5 "/>
<path style=" stroke:none;fill-rule:nonzero;fill:rgb(0%,0%,53.333333%);fill-opacity:1;" d="M 11.34375 7.5 C 11.34375 7.691406 11.1875 7.851562 11 7.851562 C 10.8125 7.851562 10.65625 7.691406 10.65625 7.5 C 10.65625 7.308594 10.8125 7.148438 11 7.148438 C 11.1875 7.148438 11.34375 7.308594 11.34375 7.5 Z M 11.34375 7.5 "/>
<path style=" stroke:none;fill-rule:nonzero;fill:rgb(0%,0%,53.333333%);fill-opacity:1;" d="M 12.78125 7.738281 C 12.773438 7.789062 12.730469 7.820312 12.683594 7.816406 C 12.636719 7.808594 12.605469 7.765625 12.613281 7.71875 C 12.617188 7.667969 12.660156 7.636719 12.707031 7.640625 C 12.753906 7.648438 12.789062 7.691406 12.78125 7.738281 Z M 12.78125 7.738281 "/>
<path style=" stroke:none;fill-rule:nonzero;fill:rgb(0%,0%,53.333333%);fill-opacity:1;" d="M 11 9.25 L 11.058594 8.199219 C 11.058594 8.199219 11 7.699219 11 7.699219 C 11 7.699219 10.941406 8.199219 10.941406 8.199219 Z M 11 9.25 "/>
<path style=" stroke:none;fill-rule:nonzero;fill:rgb(0%,0%,53.333333%);fill-opacity:1;" d="M 12.660156 8.203125 C 12.640625 8.246094 12.589844 8.269531 12.546875 8.25 C 12.503906 8.230469 12.484375 8.179688 12.5 8.136719 C 12.519531 8.089844 12.570312 8.070312 12.613281 8.089844 C 12.65625 8.105469 12.679688 8.160156 12.660156 8.203125 Z M 12.660156 8.203125 "/>
<path style=" stroke:none;fill-rule:nonzero;fill:rgb(0%,0%,53.333333%);fill-opacity:1;" d="M 10.558594 9.191406 L 10.878906 8.191406 C 10.878906 8.191406 10.949219 7.691406 10.949219 7.691406 C 10.949219 7.691406 10.765625 8.160156 10.765625 8.160156 Z M 10.558594 9.191406 "/>
<path style=" stroke:none;fill-rule:nonzero;fill:rgb(0%,0%,53.333333%);fill-opacity:1;" d="M 12.425781 8.617188 C 12.398438 8.65625 12.34375 8.664062 12.304688 8.632812 C 12.269531 8.605469 12.261719 8.550781 12.289062 8.511719 C 12.320312 8.472656 12.371094 8.464844 12.410156 8.496094 C 12.445312 8.523438 12.453125 8.582031 12.425781 8.617188 Z M 12.425781 8.617188 "/>
<path style=" stroke:none;fill-rule:nonzero;fill:rgb(0%,0%,53.333333%);fill-opacity:1;" d="M 10.144531 9.015625 L 10.707031 8.136719 C 10.707031 8.136719 10.902344 7.671875 10.902344 7.671875 C 10.902344 7.671875 10.605469 8.078125 10.605469 8.078125 Z M 10.144531 9.015625 "/>
<path style=" stroke:none;fill-rule:nonzero;fill:rgb(0%,0%,53.333333%);fill-opacity:1;" d="M 12.09375 8.957031 C 12.054688 8.988281 12.003906 8.980469 11.972656 8.941406 C 11.945312 8.902344 11.953125 8.847656 11.988281 8.820312 C 12.027344 8.789062 12.082031 8.796875 12.109375 8.835938 C 12.136719 8.875 12.132812 8.929688 12.09375 8.957031 Z M 12.09375 8.957031 "/>
<path style=" stroke:none;fill-rule:nonzero;fill:rgb(0%,0%,53.333333%);fill-opacity:1;" d="M 9.789062 8.738281 L 10.558594 8.039062 C 10.558594 8.039062 10.863281 7.640625 10.863281 7.640625 C 10.863281 7.640625 10.472656 7.953125 10.472656 7.953125 Z M 9.789062 8.738281 "/>
<path style=" stroke:none;fill-rule:nonzero;fill:rgb(0%,0%,53.333333%);fill-opacity:1;" d="M 11.6875 9.199219 C 11.644531 9.214844 11.59375 9.195312 11.574219 9.148438 C 11.558594 9.105469 11.578125 9.054688 11.621094 9.035156 C 11.664062 9.015625 11.714844 9.039062 11.734375 9.082031 C 11.75 9.128906 11.730469 9.179688 11.6875 9.199219 Z M 11.6875 9.199219 "/>
<path style=" stroke:none;fill-rule:nonzero;fill:rgb(0%,0%,53.333333%);fill-opacity:1;" d="M 9.519531 8.375 L 10.4375 7.902344 C 10.4375 7.902344 10.832031 7.601562 10.832031 7.601562 C 10.832031 7.601562 10.378906 7.796875 10.378906 7.796875 Z M 9.519531 8.375 "/>
<path style=" stroke:none;fill-rule:nonzero;fill:rgb(0%,0%,53.333333%);fill-opacity:1;" d="M 11.234375 9.320312 C 11.1875 9.328125 11.144531 9.292969 11.136719 9.246094 C 11.132812 9.199219 11.164062 9.15625 11.210938 9.148438 C 11.257812 9.140625 11.300781 9.175781 11.308594 9.222656 C 11.3125 9.273438 11.28125 9.316406 11.234375 9.320312 Z M 11.234375 9.320312 "/>
<path style=" stroke:none;fill-rule:nonzero;fill:rgb(0%,0%,53.333333%);fill-opacity:1;" d="M 9.347656 7.953125 L 10.355469 7.738281 C 10.355469 7.738281 10.8125 7.550781 10.8125 7.550781 C 10.8125 7.550781 10.324219 7.625 10.324219 7.625 Z M 9.347656 7.953125 "/>
<path style=" stroke:none;fill-rule:nonzero;fill:rgb(0%,0%,53.333333%);fill-opacity:1;" d="M 10.765625 9.320312 C 10.71875 9.316406 10.6875 9.273438 10.691406 9.222656 C 10.699219 9.175781 10.742188 9.140625 10.789062 9.148438 C 10.835938 9.15625 10.867188 9.199219 10.863281 9.246094 C 10.855469 9.292969 10.8125 9.328125 10.765625 9.320312 Z M 10.765625 9.320312 "/>
<path style=" stroke:none;fill-rule:nonzero;fill:rgb(0%,0%,53.333333%);fill-opacity:1;" d="M 9.289062 7.5 L 10.316406 7.558594 C 10.316406 7.558594 10.804688 7.5 10.804688 7.5 C 10.804688 7.5 10.316406 7.441406 10.316406 7.441406 Z M 9.289062 7.5 "/>
<path style=" stroke:none;fill-rule:nonzero;fill:rgb(0%,0%,53.333333%);fill-opacity:1;" d="M 10.3125 9.199219 C 10.269531 9.179688 10.25 9.128906 10.265625 9.082031 C 10.285156 9.039062 10.335938 9.015625 10.378906 9.035156 C 10.421875 9.054688 10.441406 9.105469 10.425781 9.148438 C 10.40625 9.195312 10.355469 9.214844 10.3125 9.199219 Z M 10.3125 9.199219 "/>
<path style=" stroke:none;fill-rule:nonzero;fill:rgb(0%,0%,53.333333%);fill-opacity:1;" d="M 9.347656 7.046875 L 10.324219 7.375 C 10.324219 7.375 10.8125 7.449219 10.8125 7.449219 C 10.8125 7.449219 10.355469 7.261719 10.355469 7.261719 Z M 9.347656 7.046875 "/>
<path style=" stroke:none;fill-rule:nonzero;fill:rgb(0%,0%,53.333333%);fill-opacity:1;" d="M 9.90625 8.957031 C 9.867188 8.929688 9.863281 8.875 9.890625 8.835938 C 9.917969 8.796875 9.972656 8.789062 10.011719 8.820312 C 10.046875 8.847656 10.054688 8.902344 10.027344 8.941406 C 9.996094 8.980469 9.945312 8.988281 9.90625 8.957031 Z M 9.90625 8.957031 "/>
<path style=" stroke:none;fill-rule:nonzero;fill:rgb(0%,0%,53.333333%);fill-opacity:1;" d="M 9.519531 6.625 L 10.378906 7.203125 C 10.378906 7.203125 10.832031 7.398438 10.832031 7.398438 C 10.832031 7.398438 10.4375 7.097656 10.4375 7.097656 Z M 9.519531 6.625 "/>
<path style=" stroke:none;fill-rule:nonzero;fill:rgb(0%,0%,53.333333%);fill-opacity:1;" d="M 9.574219 8.617188 C 9.546875 8.582031 9.554688 8.523438 9.589844 8.496094 C 9.628906 8.464844 9.679688 8.472656 9.710938 8.511719 C 9.738281 8.550781 9.730469 8.605469 9.695312 8.632812 C 9.65625 8.664062 9.601562 8.65625 9.574219 8.617188 Z M 9.574219 8.617188 "/>
<path style=" stroke:none;fill-rule:nonzero;fill:rgb(0%,0%,53.333333%);fill-opacity:1;" d="M 9.789062 6.261719 L 10.472656 7.046875 C 10.472656 7.046875 10.863281 7.359375 10.863281 7.359375 C 10.863281 7.359375 10.558594 6.960938 10.558594 6.960938 Z M 9.789062 6.261719 "/>
<path style=" stroke:none;fill-rule:nonzero;fill:rgb(0%,0%,53.333333%);fill-opacity:1;" d="M 9.339844 8.203125 C 9.320312 8.160156 9.34375 8.105469 9.386719 8.089844 C 9.429688 8.070312 9.480469 8.089844 9.5 8.136719 C 9.515625 8.179688 9.496094 8.230469 9.453125 8.25 C 9.410156 8.269531 9.359375 8.246094 9.339844 8.203125 Z M 9.339844 8.203125 "/>
<path style=" stroke:none;fill-rule:nonzero;fill:rgb(0%,0%,53.333333%);fill-opacity:1;" d="M 10.144531 5.984375 L 10.605469 6.921875 C 10.605469 6.921875 10.902344 7.328125 10.902344 7.328125 C 10.902344 7.328125 10.707031 6.863281 10.707031 6.863281 Z M 10.144531 5.984375 "/>
<path style=" stroke:none;fill-rule:nonzero;fill:rgb(0%,0%,53.333333%);fill-opacity:1;" d="M 9.21875 7.738281 C 9.210938 7.691406 9.246094 7.648438 9.292969 7.640625 C 9.339844 7.636719 9.382812 7.667969 9.386719 7.71875 C 9.394531 7.765625 9.363281 7.808594 9.316406 7.816406 C 9.269531 7.820312 9.226562 7.789062 9.21875 7.738281 Z M 9.21875 7.738281 "/>
<path style=" stroke:none;fill-rule:nonzero;fill:rgb(0%,0%,53.333333%);fill-opacity:1;" d="M 10.558594 5.808594 L 10.765625 6.839844 C 10.765625 6.839844 10.949219 7.308594 10.949219 7.308594 C 10.949219 7.308594 10.878906 6.808594 10.878906 6.808594 Z M 10.558594 5.808594 "/>
<path style=" stroke:none;fill-rule:nonzero;fill:rgb(0%,0%,53.333333%);fill-opacity:1;" d="M 9.21875 7.261719 C 9.226562 7.210938 9.269531 7.179688 9.316406 7.183594 C 9.363281 7.191406 9.394531 7.234375 9.386719 7.28125 C 9.382812 7.332031 9.339844 7.363281 9.292969 7.359375 C 9.246094 7.351562 9.210938 7.308594 9.21875 7.261719 Z M 9.21875 7.261719 "/>
<path style=" stroke:none;fill-rule:nonzero;fill:rgb(0%,0%,53.333333%);fill-opacity:1;" d="M 11 5.75 L 10.941406 6.800781 C 10.941406 6.800781 11 7.300781 11 7.300781 C 11 7.300781 11.058594 6.800781 11.058594 6.800781 Z M 11 5.75 "/>
<path style=" stroke:none;fill-rule:nonzero;fill:rgb(0%,0%,53.333333%);fill-opacity:1;" d="M 9.339844 6.796875 C 9.359375 6.753906 9.410156 6.730469 9.453125 6.75 C 9.496094 6.769531 9.515625 6.820312 9.5 6.863281 C 9.480469 6.910156 9.429688 6.929688 9.386719 6.910156 C 9.34375 6.894531 9.320312 6.839844 9.339844 6.796875 Z M 9.339844 6.796875 "/>
<path style=" stroke:none;fill-rule:nonzero;fill:rgb(0%,0%,53.333333%);fill-opacity:1;" d="M 11.441406 5.808594 L 11.121094 6.808594 C 11.121094 6.808594 11.050781 7.308594 11.050781 7.308594 C 11.050781 7.308594 11.234375 6.839844 11.234375 6.839844 Z M 11.441406 5.808594 "/>
<path style=" stroke:none;fill-rule:nonzero;fill:rgb(0%,0%,53.333333%);fill-opacity:1;" d="M 9.574219 6.382812 C 9.601562 6.34375 9.65625 6.335938 9.695312 6.367188 C 9.730469 6.394531 9.738281 6.449219 9.710938 6.488281 C 9.679688 6.527344 9.628906 6.535156 9.589844 6.503906 C 9.554688 6.476562 9.546875 6.417969 9.574219 6.382812 Z M 9.574219 6.382812 "/>
<path style=" stroke:none;fill-rule:nonzero;fill:rgb(0%,0%,53.333333%);fill-opacity:1;" d="M 11.855469 5.984375 L 11.292969 6.863281 C 11.292969 6.863281 11.097656 7.328125 11.097656 7.328125 C 11.097656 7.328125 11.394531 6.921875 11.394531 6.921875 Z M 11.855469 5.984375 "/>
<path style=" stroke:none;fill-rule:nonzero;fill:rgb(0%,0%,53.333333%);fill-opacity:1;" d="M 9.90625 6.042969 C 9.945312 6.011719 9.996094 6.019531 10.027344 6.058594 C 10.054688 6.097656 10.046875 6.152344 10.011719 6.179688 C 9.972656 6.210938 9.917969 6.203125 9.890625 6.164062 C 9.863281 6.125 9.867188 6.070312 9.90625 6.042969 Z M 9.90625 6.042969 "/>
<path style=" stroke:none;fill-rule:nonzero;fill:rgb(0%,0%,53.333333%);fill-opacity:1;" d="M 12.210938 6.261719 L 11.441406 6.960938 C 11.441406 6.960938 11.136719 7.359375 11.136719 7.359375 C 11.136719 7.359375 11.527344 7.046875 11.527344 7.046875 Z M 12.210938 6.261719 "/>
<path style=" stroke:none;fill-rule:nonzero;fill:rgb(0%,0%,53.333333%);fill-opacity:1;" d="M 10.3125 5.800781 C 10.355469 5.785156 10.40625 5.804688 10.425781 5.851562 C 10.441406 5.894531 10.421875 5.945312 10.378906 5.964844 C 10.335938 5.984375 10.285156 5.960938 10.265625 5.917969 C 10.25 5.871094 10.269531 5.820312 10.3125 5.800781 Z M 10.3125 5.800781 "/>
<path style=" stroke:none;fill-rule:nonzero;fill:rgb(0%,0%,53.333333%);fill-opacity:1;" d="M 12.480469 6.625 L 11.5625 7.097656 C 11.5625 7.097656 11.167969 7.398438 11.167969 7.398438 C 11.167969 7.398438 11.621094 7.203125 11.621094 7.203125 Z M 12.480469 6.625 "/>
<path style=" stroke:none;fill-rule:nonzero;fill:rgb(0%,0%,53.333333%);fill-opacity:1;" d="M 10.765625 5.679688 C 10.8125 5.671875 10.855469 5.707031 10.863281 5.753906 C 10.867188 5.800781 10.835938 5.84375 10.789062 5.851562 C 10.742188 5.859375 10.699219 5.824219 10.691406 5.777344 C 10.6875 5.726562 10.71875 5.683594 10.765625 5.679688 Z M 10.765625 5.679688 "/>
<path style=" stroke:none;fill-rule:nonzero;fill:rgb(0%,0%,53.333333%);fill-opacity:1;" d="M 12.652344 7.046875 L 11.644531 7.261719 C 11.644531 7.261719 11.1875 7.449219 11.1875 7.449219 C 11.1875 7.449219 11.675781 7.375 11.675781 7.375 Z M 12.652344 7.046875 "/>
<path style=" stroke:none;fill-rule:nonzero;fill:rgb(0%,0%,53.333333%);fill-opacity:1;" d="M 11.234375 5.679688 C 11.28125 5.683594 11.3125 5.726562 11.308594 5.777344 C 11.300781 5.824219 11.257812 5.859375 11.210938 5.851562 C 11.164062 5.84375 11.132812 5.800781 11.136719 5.753906 C 11.144531 5.707031 11.1875 5.671875 11.234375 5.679688 Z M 11.234375 5.679688 "/>
<path style=" stroke:none;fill-rule:nonzero;fill:rgb(0%,0%,53.333333%);fill-opacity:1;" d="M 12.710938 7.5 L 11.683594 7.441406 C 11.683594 7.441406 11.195312 7.5 11.195312 7.5 C 11.195312 7.5 11.683594 7.558594 11.683594 7.558594 Z M 12.710938 7.5 "/>
<path style=" stroke:none;fill-rule:nonzero;fill:rgb(0%,0%,53.333333%);fill-opacity:1;" d="M 11.6875 5.800781 C 11.730469 5.820312 11.75 5.871094 11.734375 5.917969 C 11.714844 5.960938 11.664062 5.984375 11.621094 5.964844 C 11.578125 5.945312 11.558594 5.894531 11.574219 5.851562 C 11.59375 5.804688 11.644531 5.785156 11.6875 5.800781 Z M 11.6875 5.800781 "/>
<path style=" stroke:none;fill-rule:nonzero;fill:rgb(0%,0%,53.333333%);fill-opacity:1;" d="M 12.652344 7.953125 L 11.675781 7.625 C 11.675781 7.625 11.1875 7.550781 11.1875 7.550781 C 11.1875 7.550781 11.644531 7.738281 11.644531 7.738281 Z M 12.652344 7.953125 "/>
<path style=" stroke:none;fill-rule:nonzero;fill:rgb(0%,0%,53.333333%);fill-opacity:1;" d="M 12.09375 6.042969 C 12.132812 6.070312 12.136719 6.125 12.109375 6.164062 C 12.082031 6.203125 12.027344 6.210938 11.988281 6.179688 C 11.953125 6.152344 11.945312 6.097656 11.972656 6.058594 C 12.003906 6.019531 12.054688 6.011719 12.09375 6.042969 Z M 12.09375 6.042969 "/>
<path style=" stroke:none;fill-rule:nonzero;fill:rgb(0%,0%,53.333333%);fill-opacity:1;" d="M 12.480469 8.375 L 11.621094 7.796875 C 11.621094 7.796875 11.167969 7.601562 11.167969 7.601562 C 11.167969 7.601562 11.5625 7.902344 11.5625 7.902344 Z M 12.480469 8.375 "/>
<path style=" stroke:none;fill-rule:nonzero;fill:rgb(0%,0%,53.333333%);fill-opacity:1;" d="M 12.425781 6.382812 C 12.453125 6.417969 12.445312 6.476562 12.410156 6.503906 C 12.371094 6.535156 12.320312 6.527344 12.289062 6.488281 C 12.261719 6.449219 12.269531 6.394531 12.304688 6.367188 C 12.34375 6.335938 12.398438 6.34375 12.425781 6.382812 Z M 12.425781 6.382812 "/>
<path style=" stroke:none;fill-rule:nonzero;fill:rgb(0%,0%,53.333333%);fill-opacity:1;" d="M 12.210938 8.738281 L 11.527344 7.953125 C 11.527344 7.953125 11.136719 7.640625 11.136719 7.640625 C 11.136719 7.640625 11.441406 8.039062 11.441406 8.039062 Z M 12.210938 8.738281 "/>
<path style=" stroke:none;fill-rule:nonzero;fill:rgb(0%,0%,53.333333%);fill-opacity:1;" d="M 12.660156 6.796875 C 12.679688 6.839844 12.65625 6.894531 12.613281 6.910156 C 12.570312 6.929688 12.519531 6.910156 12.5 6.863281 C 12.484375 6.820312 12.503906 6.769531 12.546875 6.75 C 12.589844 6.730469 12.640625 6.753906 12.660156 6.796875 Z M 12.660156 6.796875 "/>
<path style=" stroke:none;fill-rule:nonzero;fill:rgb(0%,0%,53.333333%);fill-opacity:1;" d="M 11.855469 9.015625 L 11.394531 8.078125 C 11.394531 8.078125 11.097656 7.671875 11.097656 7.671875 C 11.097656 7.671875 11.292969 8.136719 11.292969 8.136719 Z M 11.855469 9.015625 "/>
<path style=" stroke:none;fill-rule:nonzero;fill:rgb(0%,0%,53.333333%);fill-opacity:1;" d="M 12.78125 7.261719 C 12.789062 7.308594 12.753906 7.351562 12.707031 7.359375 C 12.660156 7.363281 12.617188 7.332031 12.613281 7.28125 C 12.605469 7.234375 12.636719 7.191406 12.683594 7.183594 C 12.730469 7.179688 12.773438 7.210938 12.78125 7.261719 Z M 12.78125 7.261719 "/>
<path style=" stroke:none;fill-rule:nonzero;fill:rgb(0%,0%,53.333333%);fill-opacity:1;" d="M 11.441406 9.191406 L 11.234375 8.160156 C 11.234375 8.160156 11.050781 7.691406 11.050781 7.691406 C 11.050781 7.691406 11.121094 8.191406 11.121094 8.191406 Z M 11.441406 9.191406 "/>
</g>
</svg>
