<?xml version="1.0" encoding="UTF-8"?>
<svg xmlns="http://www.w3.org/2000/svg" xmlns:xlink="http://www.w3.org/1999/xlink" width="21px" height="15px" viewBox="0 0 21 15" version="1.1">
<defs>
<linearGradient id="linear0" gradientUnits="userSpaceOnUse" x1="0.5" y1="0" x2="0.5" y2="1" gradientTransform="matrix(21,0,0,15,0,0)">
<stop offset="0" style="stop-color:rgb(100%,100%,100%);stop-opacity:1;"/>
<stop offset="1" style="stop-color:rgb(94.117647%,94.117647%,94.117647%);stop-opacity:1;"/>
</linearGradient>
<linearGradient id="linear1" gradientUnits="userSpaceOnUse" x1="0.5" y1="0" x2="0.5" y2="1" gradientTransform="matrix(10,0,0,15,11,0)">
<stop offset="0" style="stop-color:rgb(87.058824%,13.72549%,23.529412%);stop-opacity:1;"/>
<stop offset="1" style="stop-color:rgb(80.392157%,9.803922%,19.215686%);stop-opacity:1;"/>
</linearGradient>
<linearGradient id="linear2" gradientUnits="userSpaceOnUse" x1="0.5" y1="0" x2="0.5" y2="1" gradientTransform="matrix(11,0,0,15,0,0)">
<stop offset="0" style="stop-color:rgb(100%,100%,100%);stop-opacity:1;"/>
<stop offset="1" style="stop-color:rgb(94.117647%,94.117647%,94.117647%);stop-opacity:1;"/>
</linearGradient>
</defs>
<g id="surface1">
<rect x="0" y="0" width="21" height="15" style="fill:url(#linear0);stroke:none;"/>
<path style=" stroke:none;fill-rule:evenodd;fill:url(#linear1);" d="M 11 0 L 21 0 L 21 15 L 11 15 Z M 11 0 "/>
<path style=" stroke:none;fill-rule:evenodd;fill:url(#linear2);" d="M 0 0 L 11 0 L 11 15 L 0 15 Z M 0 0 "/>
<path style=" stroke:none;fill-rule:evenodd;fill:rgb(80%,80%,80.392157%);fill-opacity:1;" d="M 4 3 L 4 2 L 3 2 L 3 3 L 2 3 L 2 4 L 3 4 L 3 5 L 4 5 L 4 4 L 5 4 L 5 3 Z M 4 3 "/>
<path style="fill:none;stroke-width:0.5;stroke-linecap:butt;stroke-linejoin:miter;stroke:rgb(48.235294%,44.313725%,41.568627%);stroke-opacity:0.658824;stroke-miterlimit:4;" d="M 4.25 2.75 L 5.25 2.75 L 5.25 4.25 L 4.25 4.25 L 4.25 5.25 L 2.75 5.25 L 2.75 4.25 L 1.75 4.25 L 1.75 2.75 L 2.75 2.75 L 2.75 1.75 L 4.25 1.75 Z M 4.25 2.75 "/>
<path style=" stroke:none;fill-rule:evenodd;fill:rgb(48.235294%,44.313725%,41.568627%);fill-opacity:1;" d="M 4.5 3.5 C 4.5 4.050781 4.050781 4.5 3.5 4.5 C 2.949219 4.5 2.5 4.050781 2.5 3.5 C 2.5 2.949219 2.949219 2.5 3.5 2.5 C 4.050781 2.5 4.5 2.949219 4.5 3.5 Z M 4.5 3.5 "/>
</g>
</svg>
