<?xml version="1.0" encoding="UTF-8"?>
<svg xmlns="http://www.w3.org/2000/svg" xmlns:xlink="http://www.w3.org/1999/xlink" width="21px" height="15px" viewBox="0 0 21 15" version="1.1">
<g id="surface1">
<rect x="0" y="0" width="21" height="15" style="fill:rgb(13.333333%,61.960784%,27.058824%);fill-opacity:1;stroke:none;"/>
<path style=" stroke:none;fill-rule:evenodd;fill:rgb(97.254902%,89.803922%,3.529412%);fill-opacity:1;" d="M 10.5 13.351562 L 19.324219 7.507812 L 10.445312 1.648438 L 1.59375 7.523438 Z M 10.5 13.351562 "/>
<path style=" stroke:none;fill-rule:evenodd;fill:rgb(16.862745%,28.627451%,63.921569%);fill-opacity:1;" d="M 14.34375 7.5 C 14.359375 6.132812 13.648438 4.863281 12.488281 4.175781 C 11.328125 3.488281 9.894531 3.488281 8.734375 4.175781 C 7.574219 4.863281 6.867188 6.132812 6.878906 7.5 C 6.867188 8.867188 7.574219 10.140625 8.734375 10.828125 C 9.894531 11.515625 11.328125 11.515625 12.488281 10.828125 C 13.648438 10.140625 14.359375 8.867188 14.34375 7.5 L 10.613281 7.5 Z M 14.34375 7.5 "/>
<path style=" stroke:none;fill-rule:evenodd;fill:rgb(100%,100%,93.72549%);fill-opacity:1;" d="M 9.382812 9.777344 L 9.269531 9.710938 L 9.148438 9.769531 L 9.175781 9.636719 L 9.082031 9.535156 L 9.214844 9.519531 L 9.277344 9.398438 L 9.332031 9.523438 L 9.464844 9.546875 L 9.367188 9.640625 Z M 9.382812 9.777344 "/>
<path style=" stroke:none;fill-rule:evenodd;fill:rgb(100%,100%,93.72549%);fill-opacity:1;" d="M 11.886719 10.425781 L 11.769531 10.355469 L 11.652344 10.417969 L 11.675781 10.28125 L 11.585938 10.183594 L 11.71875 10.167969 L 11.78125 10.042969 L 11.835938 10.171875 L 11.964844 10.195312 L 11.867188 10.289062 Z M 11.886719 10.425781 "/>
<path style=" stroke:none;fill-rule:evenodd;fill:rgb(100%,100%,93.72549%);fill-opacity:1;" d="M 10.808594 9.394531 L 10.707031 9.335938 L 10.605469 9.386719 L 10.628906 9.269531 L 10.546875 9.183594 L 10.664062 9.167969 L 10.714844 9.0625 L 10.765625 9.171875 L 10.878906 9.195312 L 10.792969 9.273438 Z M 10.808594 9.394531 "/>
<path style=" stroke:none;fill-rule:evenodd;fill:rgb(100%,100%,93.72549%);fill-opacity:1;" d="M 13.335938 9.019531 L 13.234375 8.964844 L 13.132812 9.015625 L 13.15625 8.898438 L 13.078125 8.816406 L 13.191406 8.800781 L 13.242188 8.699219 L 13.289062 8.804688 L 13.402344 8.824219 L 13.320312 8.90625 Z M 13.335938 9.019531 "/>
<path style=" stroke:none;fill-rule:evenodd;fill:rgb(100%,100%,93.72549%);fill-opacity:1;" d="M 10.761719 8.25 L 10.648438 8.179688 L 10.527344 8.242188 L 10.554688 8.105469 L 10.460938 8.003906 L 10.59375 7.988281 L 10.65625 7.867188 L 10.710938 7.992188 L 10.839844 8.019531 L 10.742188 8.113281 Z M 10.761719 8.25 "/>
<path style=" stroke:none;fill-rule:evenodd;fill:rgb(100%,100%,93.72549%);fill-opacity:1;" d="M 7.683594 7.070312 L 7.566406 7 L 7.449219 7.0625 L 7.472656 6.925781 L 7.382812 6.824219 L 7.515625 6.808594 L 7.574219 6.6875 L 7.632812 6.8125 L 7.761719 6.839844 L 7.664062 6.933594 Z M 7.683594 7.070312 "/>
<path style=" stroke:none;fill-rule:evenodd;fill:rgb(100%,100%,93.72549%);fill-opacity:1;" d="M 8.050781 8.636719 L 7.9375 8.570312 L 7.816406 8.628906 L 7.84375 8.496094 L 7.75 8.394531 L 7.882812 8.378906 L 7.945312 8.257812 L 8 8.382812 L 8.132812 8.40625 L 8.035156 8.5 Z M 8.050781 8.636719 "/>
<path style=" stroke:none;fill-rule:evenodd;fill:rgb(100%,100%,93.72549%);fill-opacity:1;" d="M 11.894531 6.492188 L 11.792969 6.429688 L 11.6875 6.484375 L 11.710938 6.363281 L 11.628906 6.277344 L 11.746094 6.261719 L 11.800781 6.15625 L 11.851562 6.265625 L 11.964844 6.289062 L 11.878906 6.371094 Z M 11.894531 6.492188 "/>
<path style=" stroke:none;fill-rule:evenodd;fill:rgb(100%,100%,93.72549%);fill-opacity:1;" d="M 11.683594 7.511719 L 11.605469 7.464844 L 11.519531 7.507812 L 11.539062 7.414062 L 11.476562 7.34375 L 11.566406 7.332031 L 11.609375 7.246094 L 11.648438 7.335938 L 11.738281 7.351562 L 11.671875 7.417969 Z M 11.683594 7.511719 "/>
<path style=" stroke:none;fill-rule:evenodd;fill:rgb(100%,100%,93.72549%);fill-opacity:1;" d="M 7.511719 8.921875 L 7.433594 8.878906 L 7.355469 8.917969 L 7.371094 8.828125 L 7.308594 8.761719 L 7.398438 8.75 L 7.441406 8.667969 L 7.476562 8.753906 L 7.5625 8.769531 L 7.5 8.832031 Z M 7.511719 8.921875 "/>
<path style=" stroke:none;fill-rule:evenodd;fill:rgb(100%,100%,93.72549%);fill-opacity:1;" d="M 13.355469 9.285156 L 13.292969 9.25 L 13.226562 9.28125 L 13.242188 9.210938 L 13.191406 9.164062 L 13.265625 9.15625 L 13.296875 9.09375 L 13.328125 9.15625 L 13.398438 9.167969 L 13.34375 9.214844 Z M 13.355469 9.285156 "/>
<path style=" stroke:none;fill-rule:evenodd;fill:rgb(100%,100%,93.72549%);fill-opacity:1;" d="M 7.511719 8.921875 L 7.433594 8.878906 L 7.355469 8.917969 L 7.371094 8.828125 L 7.308594 8.761719 L 7.398438 8.75 L 7.441406 8.667969 L 7.476562 8.753906 L 7.5625 8.769531 L 7.5 8.832031 Z M 7.511719 8.921875 "/>
<path style=" stroke:none;fill-rule:evenodd;fill:rgb(100%,100%,93.72549%);fill-opacity:1;" d="M 7.511719 8.921875 L 7.433594 8.878906 L 7.355469 8.917969 L 7.371094 8.828125 L 7.308594 8.761719 L 7.398438 8.75 L 7.441406 8.667969 L 7.476562 8.753906 L 7.5625 8.769531 L 7.5 8.832031 Z M 7.511719 8.921875 "/>
<path style=" stroke:none;fill-rule:evenodd;fill:rgb(100%,100%,93.72549%);fill-opacity:1;" d="M 8.738281 8.921875 L 8.660156 8.878906 L 8.578125 8.917969 L 8.597656 8.828125 L 8.535156 8.761719 L 8.625 8.75 L 8.664062 8.667969 L 8.703125 8.753906 L 8.789062 8.769531 L 8.722656 8.832031 Z M 8.738281 8.921875 "/>
<path style=" stroke:none;fill-rule:evenodd;fill:rgb(100%,100%,93.72549%);fill-opacity:1;" d="M 8.585938 9.339844 L 8.507812 9.292969 L 8.425781 9.332031 L 8.445312 9.242188 L 8.382812 9.175781 L 8.472656 9.164062 L 8.511719 9.085938 L 8.550781 9.167969 L 8.636719 9.183594 L 8.570312 9.246094 Z M 8.585938 9.339844 "/>
<path style=" stroke:none;fill-rule:evenodd;fill:rgb(100%,100%,93.72549%);fill-opacity:1;" d="M 11.128906 8.582031 L 11.050781 8.535156 L 10.972656 8.574219 L 10.988281 8.484375 L 10.929688 8.417969 L 11.015625 8.40625 L 11.058594 8.328125 L 11.09375 8.410156 L 11.183594 8.425781 L 11.117188 8.488281 Z M 11.128906 8.582031 "/>
<path style=" stroke:none;fill-rule:evenodd;fill:rgb(100%,100%,93.72549%);fill-opacity:1;" d="M 10.382812 8.582031 L 10.304688 8.535156 L 10.226562 8.574219 L 10.242188 8.484375 L 10.179688 8.417969 L 10.269531 8.40625 L 10.3125 8.328125 L 10.347656 8.410156 L 10.433594 8.425781 L 10.371094 8.488281 Z M 10.382812 8.582031 "/>
<path style=" stroke:none;fill-rule:evenodd;fill:rgb(100%,100%,93.72549%);fill-opacity:1;" d="M 8.355469 8.316406 L 8.308594 8.285156 L 8.257812 8.3125 L 8.269531 8.253906 L 8.230469 8.214844 L 8.285156 8.207031 L 8.3125 8.15625 L 8.335938 8.207031 L 8.390625 8.21875 L 8.347656 8.257812 Z M 8.355469 8.316406 "/>
<path style=" stroke:none;fill-rule:evenodd;fill:rgb(100%,100%,93.72549%);fill-opacity:1;" d="M 13.261719 9.613281 L 13.183594 9.566406 L 13.105469 9.609375 L 13.121094 9.519531 L 13.058594 9.453125 L 13.148438 9.441406 L 13.191406 9.359375 L 13.226562 9.445312 L 13.3125 9.460938 L 13.25 9.523438 Z M 13.261719 9.613281 "/>
<path style=" stroke:none;fill-rule:evenodd;fill:rgb(100%,100%,93.72549%);fill-opacity:1;" d="M 12.640625 9.695312 L 12.574219 9.660156 L 12.507812 9.691406 L 12.523438 9.617188 L 12.472656 9.5625 L 12.546875 9.554688 L 12.578125 9.484375 L 12.609375 9.554688 L 12.683594 9.570312 L 12.628906 9.621094 Z M 12.640625 9.695312 "/>
<path style=" stroke:none;fill-rule:evenodd;fill:rgb(100%,100%,93.72549%);fill-opacity:1;" d="M 12.933594 9.6875 L 12.871094 9.652344 L 12.8125 9.683594 L 12.824219 9.617188 L 12.777344 9.5625 L 12.84375 9.554688 L 12.878906 9.492188 L 12.90625 9.558594 L 12.972656 9.570312 L 12.921875 9.617188 Z M 12.933594 9.6875 "/>
<path style=" stroke:none;fill-rule:evenodd;fill:rgb(100%,100%,93.72549%);fill-opacity:1;" d="M 13.773438 8.9375 L 13.71875 8.90625 L 13.65625 8.933594 L 13.671875 8.867188 L 13.625 8.816406 L 13.691406 8.808594 L 13.722656 8.75 L 13.75 8.8125 L 13.8125 8.824219 L 13.765625 8.871094 Z M 13.773438 8.9375 "/>
<path style=" stroke:none;fill-rule:evenodd;fill:rgb(100%,100%,93.72549%);fill-opacity:1;" d="M 12.632812 10.121094 L 12.554688 10.078125 L 12.480469 10.117188 L 12.496094 10.03125 L 12.4375 9.972656 L 12.523438 9.960938 L 12.5625 9.886719 L 12.597656 9.964844 L 12.683594 9.980469 L 12.621094 10.035156 Z M 12.632812 10.121094 "/>
<path style=" stroke:none;fill-rule:evenodd;fill:rgb(100%,100%,93.72549%);fill-opacity:1;" d="M 12.636719 10.460938 L 12.566406 10.421875 L 12.496094 10.457031 L 12.511719 10.375 L 12.457031 10.3125 L 12.535156 10.304688 L 12.574219 10.230469 L 12.605469 10.304688 L 12.683594 10.320312 L 12.625 10.378906 Z M 12.636719 10.460938 "/>
<path style=" stroke:none;fill-rule:evenodd;fill:rgb(100%,100%,93.72549%);fill-opacity:1;" d="M 12.070312 9.6875 L 12.015625 9.65625 L 11.953125 9.683594 L 11.96875 9.617188 L 11.921875 9.570312 L 11.988281 9.5625 L 12.019531 9.5 L 12.046875 9.5625 L 12.109375 9.574219 L 12.0625 9.621094 Z M 12.070312 9.6875 "/>
<path style=" stroke:none;fill-rule:evenodd;fill:rgb(100%,100%,93.72549%);fill-opacity:1;" d="M 11.542969 9.6875 L 11.484375 9.65625 L 11.425781 9.683594 L 11.4375 9.617188 L 11.390625 9.570312 L 11.457031 9.5625 L 11.488281 9.5 L 11.515625 9.5625 L 11.582031 9.574219 L 11.53125 9.621094 Z M 11.542969 9.6875 "/>
<path style=" stroke:none;fill-rule:evenodd;fill:rgb(100%,100%,93.72549%);fill-opacity:1;" d="M 10.640625 8.886719 L 10.585938 8.851562 L 10.527344 8.882812 L 10.539062 8.816406 L 10.492188 8.765625 L 10.558594 8.757812 L 10.589844 8.699219 L 10.617188 8.761719 L 10.683594 8.773438 L 10.632812 8.820312 Z M 10.640625 8.886719 "/>
<path style=" stroke:none;fill-rule:evenodd;fill:rgb(100%,100%,93.72549%);fill-opacity:1;" d="M 10.742188 10.523438 L 10.695312 10.492188 L 10.644531 10.519531 L 10.65625 10.460938 L 10.617188 10.417969 L 10.671875 10.414062 L 10.699219 10.363281 L 10.722656 10.414062 L 10.777344 10.425781 L 10.734375 10.464844 Z M 10.742188 10.523438 "/>
<path style=" stroke:none;fill-rule:evenodd;fill:rgb(100%,100%,93.72549%);fill-opacity:1;" d="M 9.382812 7.878906 L 9.269531 7.808594 L 9.148438 7.871094 L 9.175781 7.734375 L 9.082031 7.632812 L 9.214844 7.617188 L 9.277344 7.496094 L 9.332031 7.621094 L 9.464844 7.648438 L 9.367188 7.742188 Z M 9.382812 7.878906 "/>
<path style=" stroke:none;fill-rule:evenodd;fill:rgb(100%,100%,100%);fill-opacity:1;" d="M 14.097656 8.867188 C 14.15625 8.71875 14.226562 8.488281 14.269531 8.277344 C 12.285156 6.5 10.074219 5.589844 7.28125 5.777344 C 7.183594 5.972656 7.101562 6.179688 7.035156 6.402344 C 10.34375 6.078125 12.769531 7.574219 14.097656 8.867188 Z M 14.097656 8.867188 "/>
<path style=" stroke:none;fill-rule:nonzero;fill:rgb(18.823529%,61.960784%,22.745098%);fill-opacity:1;" d="M 13.207031 7.871094 L 13.277344 7.910156 C 13.265625 7.933594 13.265625 7.957031 13.269531 7.976562 C 13.273438 7.996094 13.289062 8.011719 13.308594 8.027344 C 13.328125 8.042969 13.351562 8.050781 13.367188 8.046875 C 13.382812 8.046875 13.398438 8.039062 13.40625 8.027344 C 13.410156 8.015625 13.414062 8.007812 13.414062 8 C 13.410156 7.992188 13.40625 7.980469 13.398438 7.96875 C 13.390625 7.957031 13.378906 7.941406 13.351562 7.914062 C 13.324219 7.878906 13.304688 7.851562 13.300781 7.828125 C 13.289062 7.792969 13.296875 7.761719 13.3125 7.734375 C 13.324219 7.71875 13.339844 7.703125 13.359375 7.695312 C 13.382812 7.6875 13.402344 7.683594 13.425781 7.691406 C 13.449219 7.695312 13.476562 7.707031 13.5 7.722656 C 13.542969 7.753906 13.570312 7.785156 13.578125 7.820312 C 13.585938 7.851562 13.582031 7.886719 13.5625 7.917969 L 13.492188 7.875 C 13.5 7.855469 13.503906 7.839844 13.496094 7.824219 C 13.492188 7.808594 13.480469 7.792969 13.460938 7.78125 C 13.441406 7.769531 13.425781 7.761719 13.40625 7.761719 C 13.394531 7.761719 13.386719 7.765625 13.382812 7.777344 C 13.375 7.785156 13.375 7.792969 13.378906 7.804688 C 13.382812 7.816406 13.398438 7.839844 13.425781 7.871094 C 13.453125 7.902344 13.472656 7.925781 13.484375 7.945312 C 13.492188 7.964844 13.5 7.988281 13.496094 8.007812 C 13.496094 8.027344 13.488281 8.050781 13.476562 8.074219 C 13.460938 8.09375 13.445312 8.105469 13.421875 8.117188 C 13.398438 8.125 13.375 8.128906 13.351562 8.125 C 13.324219 8.117188 13.296875 8.105469 13.269531 8.085938 C 13.226562 8.054688 13.199219 8.023438 13.191406 7.988281 C 13.179688 7.949219 13.1875 7.910156 13.207031 7.871094 Z M 13.207031 7.871094 "/>
<path style=" stroke:none;fill-rule:nonzero;fill:rgb(18.823529%,61.960784%,22.745098%);fill-opacity:1;" d="M 12.871094 7.644531 L 12.945312 7.679688 C 12.933594 7.707031 12.929688 7.730469 12.9375 7.75 C 12.945312 7.769531 12.957031 7.785156 12.976562 7.796875 C 13 7.8125 13.019531 7.816406 13.039062 7.816406 C 13.054688 7.8125 13.066406 7.804688 13.074219 7.792969 C 13.082031 7.785156 13.082031 7.773438 13.082031 7.765625 C 13.082031 7.757812 13.074219 7.746094 13.066406 7.734375 C 13.058594 7.726562 13.042969 7.710938 13.019531 7.683594 C 12.988281 7.648438 12.96875 7.621094 12.960938 7.597656 C 12.953125 7.566406 12.957031 7.535156 12.972656 7.507812 C 12.984375 7.488281 13 7.472656 13.019531 7.464844 C 13.039062 7.457031 13.058594 7.453125 13.082031 7.457031 C 13.109375 7.460938 13.132812 7.46875 13.160156 7.488281 C 13.203125 7.515625 13.230469 7.546875 13.238281 7.578125 C 13.25 7.613281 13.246094 7.644531 13.226562 7.679688 L 13.15625 7.636719 C 13.164062 7.617188 13.164062 7.601562 13.160156 7.585938 C 13.15625 7.570312 13.144531 7.558594 13.121094 7.546875 C 13.101562 7.53125 13.082031 7.527344 13.066406 7.527344 C 13.054688 7.53125 13.046875 7.535156 13.042969 7.542969 C 13.039062 7.550781 13.035156 7.5625 13.039062 7.570312 C 13.042969 7.585938 13.0625 7.605469 13.089844 7.636719 C 13.121094 7.667969 13.140625 7.691406 13.148438 7.710938 C 13.160156 7.730469 13.167969 7.75 13.167969 7.769531 C 13.167969 7.792969 13.160156 7.8125 13.148438 7.835938 C 13.132812 7.855469 13.117188 7.871094 13.09375 7.882812 C 13.074219 7.894531 13.050781 7.898438 13.023438 7.894531 C 13 7.886719 12.972656 7.878906 12.941406 7.859375 C 12.898438 7.828125 12.871094 7.796875 12.859375 7.761719 C 12.847656 7.726562 12.851562 7.6875 12.871094 7.644531 Z M 12.871094 7.644531 "/>
<path style=" stroke:none;fill-rule:nonzero;fill:rgb(18.823529%,61.960784%,22.745098%);fill-opacity:1;" d="M 12.457031 7.53125 L 12.667969 7.175781 L 12.925781 7.335938 L 12.890625 7.394531 L 12.703125 7.277344 L 12.65625 7.359375 L 12.832031 7.46875 L 12.796875 7.527344 L 12.621094 7.417969 L 12.5625 7.515625 L 12.757812 7.636719 L 12.722656 7.695312 Z M 12.457031 7.53125 "/>
<path style=" stroke:none;fill-rule:nonzero;fill:rgb(18.823529%,61.960784%,22.745098%);fill-opacity:1;" d="M 11.851562 7.023438 L 11.882812 6.960938 L 12.039062 7.042969 L 11.964844 7.191406 C 11.941406 7.199219 11.914062 7.203125 11.878906 7.199219 C 11.84375 7.195312 11.8125 7.183594 11.78125 7.167969 C 11.742188 7.148438 11.714844 7.121094 11.695312 7.089844 C 11.675781 7.058594 11.664062 7.027344 11.664062 6.988281 C 11.667969 6.949219 11.675781 6.914062 11.695312 6.878906 C 11.714844 6.839844 11.738281 6.808594 11.769531 6.785156 C 11.800781 6.765625 11.835938 6.753906 11.875 6.753906 C 11.902344 6.753906 11.9375 6.761719 11.96875 6.78125 C 12.015625 6.804688 12.046875 6.832031 12.0625 6.867188 C 12.078125 6.898438 12.078125 6.933594 12.070312 6.972656 L 11.992188 6.949219 C 11.996094 6.925781 11.992188 6.90625 11.984375 6.890625 C 11.972656 6.871094 11.960938 6.855469 11.9375 6.84375 C 11.90625 6.828125 11.875 6.824219 11.847656 6.835938 C 11.816406 6.847656 11.792969 6.871094 11.769531 6.914062 C 11.75 6.957031 11.742188 6.996094 11.75 7.027344 C 11.757812 7.0625 11.777344 7.085938 11.808594 7.101562 C 11.824219 7.109375 11.839844 7.113281 11.859375 7.117188 C 11.878906 7.117188 11.894531 7.117188 11.910156 7.117188 L 11.933594 7.066406 Z M 11.851562 7.023438 "/>
<path style=" stroke:none;fill-rule:nonzero;fill:rgb(18.823529%,61.960784%,22.745098%);fill-opacity:1;" d="M 9.207031 6.355469 L 9.269531 5.941406 L 9.390625 5.960938 L 9.425781 6.253906 L 9.535156 5.980469 L 9.660156 6 L 9.597656 6.414062 L 9.523438 6.402344 L 9.570312 6.078125 L 9.445312 6.390625 L 9.363281 6.378906 L 9.332031 6.039062 L 9.285156 6.367188 Z M 9.207031 6.355469 "/>
<path style=" stroke:none;fill-rule:nonzero;fill:rgb(18.823529%,61.960784%,22.745098%);fill-opacity:1;" d="M 8.796875 6.304688 L 8.835938 5.890625 L 9.136719 5.917969 L 9.128906 5.988281 L 8.910156 5.96875 L 8.902344 6.058594 L 9.105469 6.078125 L 9.101562 6.148438 L 8.894531 6.128906 L 8.886719 6.242188 L 9.113281 6.265625 L 9.105469 6.335938 Z M 8.796875 6.304688 "/>
<path style=" stroke:none;fill-rule:nonzero;fill:rgb(18.823529%,61.960784%,22.745098%);fill-opacity:1;" d="M 7.429688 6.046875 C 7.429688 6.003906 7.4375 5.96875 7.453125 5.9375 C 7.460938 5.917969 7.472656 5.898438 7.492188 5.882812 C 7.507812 5.867188 7.527344 5.855469 7.546875 5.847656 C 7.570312 5.835938 7.601562 5.832031 7.632812 5.832031 C 7.695312 5.832031 7.742188 5.855469 7.777344 5.894531 C 7.8125 5.933594 7.828125 5.988281 7.828125 6.054688 C 7.824219 6.121094 7.804688 6.175781 7.769531 6.210938 C 7.730469 6.25 7.683594 6.265625 7.621094 6.265625 C 7.5625 6.261719 7.515625 6.242188 7.480469 6.203125 C 7.445312 6.164062 7.429688 6.113281 7.429688 6.046875 Z M 7.429688 6.046875 "/>
<path style=" stroke:none;fill-rule:nonzero;fill:rgb(96.862745%,100%,100%);fill-opacity:1;" d="M 7.515625 6.046875 C 7.515625 6.09375 7.523438 6.128906 7.542969 6.152344 C 7.566406 6.179688 7.59375 6.191406 7.625 6.191406 C 7.65625 6.195312 7.683594 6.183594 7.707031 6.160156 C 7.726562 6.136719 7.738281 6.097656 7.742188 6.050781 C 7.742188 6.003906 7.734375 5.964844 7.714844 5.941406 C 7.695312 5.917969 7.667969 5.90625 7.632812 5.902344 C 7.597656 5.902344 7.570312 5.914062 7.550781 5.9375 C 7.527344 5.960938 7.515625 5.996094 7.515625 6.046875 Z M 7.515625 6.046875 "/>
<path style=" stroke:none;fill-rule:nonzero;fill:rgb(18.823529%,61.960784%,22.745098%);fill-opacity:1;" d="M 7.914062 6.261719 L 7.917969 5.84375 L 8.09375 5.84375 C 8.136719 5.847656 8.167969 5.851562 8.1875 5.859375 C 8.207031 5.867188 8.222656 5.878906 8.234375 5.898438 C 8.246094 5.917969 8.253906 5.941406 8.253906 5.964844 C 8.25 5.996094 8.242188 6.023438 8.222656 6.042969 C 8.207031 6.0625 8.179688 6.074219 8.144531 6.078125 C 8.160156 6.089844 8.175781 6.101562 8.1875 6.117188 C 8.199219 6.128906 8.214844 6.152344 8.234375 6.183594 L 8.28125 6.265625 L 8.183594 6.265625 L 8.125 6.171875 C 8.105469 6.140625 8.089844 6.121094 8.082031 6.113281 C 8.074219 6.101562 8.066406 6.097656 8.058594 6.09375 C 8.050781 6.089844 8.035156 6.089844 8.015625 6.089844 L 8 6.089844 L 7.996094 6.261719 Z M 7.914062 6.261719 "/>
<path style=" stroke:none;fill-rule:nonzero;fill:rgb(100%,100%,100%);fill-opacity:1;" d="M 8 6.019531 L 8.0625 6.023438 C 8.101562 6.023438 8.125 6.019531 8.136719 6.019531 C 8.144531 6.015625 8.152344 6.007812 8.160156 6 C 8.164062 5.992188 8.167969 5.980469 8.167969 5.96875 C 8.167969 5.957031 8.164062 5.945312 8.15625 5.933594 C 8.148438 5.925781 8.140625 5.921875 8.125 5.917969 C 8.117188 5.917969 8.097656 5.917969 8.066406 5.914062 L 8 5.914062 Z M 8 6.019531 "/>
<path style=" stroke:none;fill-rule:nonzero;fill:rgb(18.823529%,61.960784%,22.745098%);fill-opacity:1;" d="M 8.382812 5.863281 L 8.53125 5.871094 C 8.566406 5.875 8.589844 5.878906 8.609375 5.882812 C 8.632812 5.890625 8.652344 5.90625 8.667969 5.925781 C 8.683594 5.945312 8.695312 5.96875 8.703125 5.996094 C 8.710938 6.023438 8.714844 6.054688 8.714844 6.09375 C 8.710938 6.128906 8.707031 6.160156 8.695312 6.183594 C 8.683594 6.214844 8.667969 6.238281 8.648438 6.253906 C 8.632812 6.269531 8.613281 6.277344 8.589844 6.285156 C 8.570312 6.289062 8.546875 6.292969 8.515625 6.289062 L 8.359375 6.28125 Z M 8.382812 5.863281 "/>
<path style=" stroke:none;fill-rule:nonzero;fill:rgb(100%,100%,100%);fill-opacity:1;" d="M 8.460938 5.9375 L 8.445312 6.214844 L 8.507812 6.21875 C 8.53125 6.21875 8.546875 6.21875 8.558594 6.21875 C 8.570312 6.214844 8.582031 6.210938 8.59375 6.203125 C 8.601562 6.195312 8.609375 6.179688 8.617188 6.164062 C 8.621094 6.144531 8.625 6.117188 8.628906 6.085938 C 8.628906 6.054688 8.628906 6.027344 8.625 6.011719 C 8.617188 5.992188 8.613281 5.980469 8.601562 5.96875 C 8.59375 5.960938 8.582031 5.953125 8.566406 5.949219 C 8.554688 5.945312 8.53125 5.941406 8.496094 5.941406 Z M 8.460938 5.9375 "/>
<path style=" stroke:none;fill-rule:nonzero;fill:rgb(18.823529%,61.960784%,22.745098%);fill-opacity:1;" d="M 10.390625 6.613281 L 10.484375 6.203125 L 10.613281 6.238281 C 10.664062 6.25 10.695312 6.257812 10.707031 6.265625 C 10.730469 6.277344 10.746094 6.296875 10.757812 6.320312 C 10.765625 6.34375 10.769531 6.371094 10.761719 6.40625 C 10.753906 6.429688 10.746094 6.449219 10.730469 6.464844 C 10.71875 6.480469 10.703125 6.488281 10.6875 6.496094 C 10.671875 6.503906 10.65625 6.507812 10.644531 6.503906 C 10.621094 6.503906 10.59375 6.5 10.558594 6.492188 L 10.507812 6.476562 L 10.46875 6.632812 Z M 10.390625 6.613281 "/>
<path style=" stroke:none;fill-rule:nonzero;fill:rgb(100%,100%,100%);fill-opacity:1;" d="M 10.550781 6.292969 L 10.523438 6.410156 L 10.566406 6.417969 C 10.597656 6.425781 10.621094 6.429688 10.632812 6.429688 C 10.644531 6.425781 10.652344 6.421875 10.660156 6.414062 C 10.667969 6.40625 10.675781 6.398438 10.675781 6.386719 C 10.679688 6.371094 10.679688 6.359375 10.671875 6.347656 C 10.667969 6.335938 10.65625 6.324219 10.644531 6.320312 C 10.636719 6.316406 10.617188 6.308594 10.589844 6.300781 Z M 10.550781 6.292969 "/>
<path style=" stroke:none;fill-rule:nonzero;fill:rgb(18.823529%,61.960784%,22.745098%);fill-opacity:1;" d="M 10.769531 6.726562 L 10.90625 6.332031 L 11.070312 6.390625 C 11.109375 6.40625 11.136719 6.421875 11.15625 6.4375 C 11.171875 6.449219 11.183594 6.46875 11.1875 6.488281 C 11.191406 6.511719 11.191406 6.535156 11.183594 6.558594 C 11.171875 6.585938 11.15625 6.609375 11.132812 6.621094 C 11.109375 6.636719 11.078125 6.636719 11.042969 6.632812 C 11.054688 6.648438 11.066406 6.664062 11.074219 6.679688 C 11.078125 6.695312 11.085938 6.722656 11.09375 6.757812 L 11.117188 6.851562 L 11.023438 6.820312 L 10.996094 6.714844 C 10.988281 6.675781 10.980469 6.652344 10.976562 6.640625 C 10.96875 6.628906 10.964844 6.621094 10.957031 6.617188 C 10.949219 6.609375 10.9375 6.601562 10.917969 6.597656 L 10.902344 6.589844 L 10.847656 6.757812 Z M 10.769531 6.726562 "/>
<path style=" stroke:none;fill-rule:nonzero;fill:rgb(100%,100%,100%);fill-opacity:1;" d="M 10.925781 6.527344 L 10.984375 6.550781 C 11.019531 6.5625 11.042969 6.570312 11.054688 6.570312 C 11.066406 6.570312 11.074219 6.566406 11.082031 6.558594 C 11.089844 6.554688 11.097656 6.546875 11.101562 6.535156 C 11.105469 6.519531 11.105469 6.507812 11.101562 6.5 C 11.097656 6.488281 11.089844 6.480469 11.078125 6.472656 C 11.070312 6.46875 11.050781 6.460938 11.019531 6.449219 L 10.960938 6.429688 Z M 10.925781 6.527344 "/>
<path style=" stroke:none;fill-rule:nonzero;fill:rgb(18.823529%,61.960784%,22.745098%);fill-opacity:1;" d="M 11.25 6.710938 C 11.261719 6.671875 11.277344 6.640625 11.296875 6.617188 C 11.3125 6.597656 11.332031 6.582031 11.351562 6.574219 C 11.371094 6.5625 11.390625 6.554688 11.414062 6.550781 C 11.441406 6.550781 11.46875 6.554688 11.5 6.5625 C 11.558594 6.582031 11.597656 6.613281 11.621094 6.664062 C 11.644531 6.710938 11.648438 6.765625 11.628906 6.832031 C 11.609375 6.894531 11.578125 6.941406 11.53125 6.964844 C 11.484375 6.992188 11.433594 6.996094 11.378906 6.976562 C 11.320312 6.957031 11.277344 6.925781 11.253906 6.878906 C 11.230469 6.832031 11.230469 6.777344 11.25 6.710938 Z M 11.25 6.710938 "/>
<path style=" stroke:none;fill-rule:nonzero;fill:rgb(100%,100%,100%);fill-opacity:1;" d="M 11.332031 6.734375 C 11.316406 6.78125 11.316406 6.820312 11.332031 6.847656 C 11.34375 6.878906 11.367188 6.898438 11.398438 6.910156 C 11.429688 6.917969 11.457031 6.914062 11.484375 6.898438 C 11.511719 6.882812 11.535156 6.851562 11.546875 6.804688 C 11.5625 6.757812 11.5625 6.71875 11.550781 6.691406 C 11.535156 6.664062 11.515625 6.644531 11.480469 6.632812 C 11.449219 6.621094 11.417969 6.625 11.390625 6.640625 C 11.367188 6.660156 11.34375 6.691406 11.332031 6.734375 Z M 11.332031 6.734375 "/>
<path style=" stroke:none;fill-rule:nonzero;fill:rgb(18.823529%,61.960784%,22.745098%);fill-opacity:1;" d="M 12.046875 7.296875 L 12.234375 6.921875 L 12.390625 7.003906 C 12.429688 7.027344 12.453125 7.042969 12.46875 7.058594 C 12.484375 7.074219 12.492188 7.09375 12.492188 7.117188 C 12.496094 7.140625 12.492188 7.164062 12.480469 7.183594 C 12.464844 7.214844 12.445312 7.230469 12.421875 7.242188 C 12.394531 7.25 12.367188 7.25 12.332031 7.238281 C 12.34375 7.253906 12.351562 7.273438 12.355469 7.289062 C 12.359375 7.308594 12.363281 7.332031 12.367188 7.371094 L 12.375 7.46875 L 12.285156 7.421875 L 12.273438 7.3125 C 12.269531 7.273438 12.265625 7.25 12.261719 7.238281 C 12.261719 7.226562 12.253906 7.21875 12.25 7.210938 C 12.242188 7.203125 12.230469 7.195312 12.214844 7.1875 L 12.199219 7.179688 L 12.121094 7.335938 Z M 12.046875 7.296875 "/>
<path style=" stroke:none;fill-rule:nonzero;fill:rgb(100%,100%,100%);fill-opacity:1;" d="M 12.230469 7.121094 L 12.285156 7.148438 C 12.320312 7.167969 12.339844 7.175781 12.351562 7.179688 C 12.363281 7.179688 12.371094 7.179688 12.378906 7.171875 C 12.390625 7.167969 12.394531 7.160156 12.402344 7.148438 C 12.410156 7.136719 12.410156 7.125 12.40625 7.113281 C 12.40625 7.101562 12.398438 7.09375 12.386719 7.085938 C 12.382812 7.082031 12.363281 7.070312 12.335938 7.054688 L 12.277344 7.023438 Z M 12.230469 7.121094 "/>
<path style=" stroke:none;fill-rule:nonzero;fill:rgb(18.823529%,61.960784%,22.745098%);fill-opacity:1;" d="M 13.5625 8.058594 C 13.585938 8.023438 13.613281 8 13.636719 7.980469 C 13.65625 7.96875 13.679688 7.960938 13.703125 7.957031 C 13.722656 7.949219 13.746094 7.949219 13.765625 7.953125 C 13.792969 7.960938 13.820312 7.972656 13.847656 7.992188 C 13.898438 8.027344 13.925781 8.070312 13.9375 8.121094 C 13.945312 8.175781 13.929688 8.230469 13.894531 8.285156 C 13.855469 8.339844 13.8125 8.375 13.761719 8.386719 C 13.710938 8.398438 13.660156 8.386719 13.613281 8.351562 C 13.5625 8.316406 13.53125 8.273438 13.523438 8.21875 C 13.515625 8.167969 13.527344 8.113281 13.5625 8.058594 Z M 13.5625 8.058594 "/>
<path style=" stroke:none;fill-rule:nonzero;fill:rgb(100%,100%,100%);fill-opacity:1;" d="M 13.636719 8.105469 C 13.609375 8.144531 13.597656 8.179688 13.605469 8.214844 C 13.609375 8.246094 13.625 8.273438 13.652344 8.289062 C 13.679688 8.308594 13.707031 8.316406 13.738281 8.308594 C 13.769531 8.300781 13.796875 8.273438 13.824219 8.234375 C 13.851562 8.195312 13.863281 8.160156 13.855469 8.128906 C 13.851562 8.097656 13.835938 8.070312 13.808594 8.050781 C 13.78125 8.03125 13.75 8.027344 13.722656 8.035156 C 13.691406 8.042969 13.664062 8.066406 13.636719 8.105469 Z M 13.636719 8.105469 "/>
<path style=" stroke:none;fill-rule:nonzero;fill:rgb(18.823529%,61.960784%,22.745098%);fill-opacity:1;" d="M 9.925781 6.441406 L 9.992188 6.148438 L 10.207031 6.199219 L 10.195312 6.246094 L 10.039062 6.210938 L 10.023438 6.277344 L 10.167969 6.308594 L 10.15625 6.359375 L 10.015625 6.324219 L 9.996094 6.40625 L 10.15625 6.441406 L 10.144531 6.492188 Z M 9.925781 6.441406 "/>
</g>
</svg>
