<?xml version="1.0" encoding="UTF-8"?>
<svg xmlns="http://www.w3.org/2000/svg" xmlns:xlink="http://www.w3.org/1999/xlink" width="21px" height="15px" viewBox="0 0 21 15" version="1.1">
<defs>
<linearGradient id="linear0" gradientUnits="userSpaceOnUse" x1="0.5" y1="0" x2="0.5" y2="1" gradientTransform="matrix(21,0,0,15,0,0)">
<stop offset="0" style="stop-color:rgb(100%,100%,100%);stop-opacity:1;"/>
<stop offset="1" style="stop-color:rgb(94.117647%,94.117647%,94.117647%);stop-opacity:1;"/>
</linearGradient>
<linearGradient id="linear1" gradientUnits="userSpaceOnUse" x1="0.5" y1="0" x2="0.5" y2="1" gradientTransform="matrix(21,0,0,4,0,0)">
<stop offset="0" style="stop-color:rgb(86.666667%,9.019608%,17.254902%);stop-opacity:1;"/>
<stop offset="1" style="stop-color:rgb(77.647059%,4.313725%,12.156863%);stop-opacity:1;"/>
</linearGradient>
<linearGradient id="linear2" gradientUnits="userSpaceOnUse" x1="0.5" y1="0" x2="0.5" y2="1" gradientTransform="matrix(21,0,0,4,0,11)">
<stop offset="0" style="stop-color:rgb(86.666667%,9.019608%,17.254902%);stop-opacity:1;"/>
<stop offset="1" style="stop-color:rgb(77.647059%,4.313725%,12.156863%);stop-opacity:1;"/>
</linearGradient>
<linearGradient id="linear3" gradientUnits="userSpaceOnUse" x1="0.5" y1="0" x2="0.5" y2="1" gradientTransform="matrix(21,0,0,7,0,4)">
<stop offset="0" style="stop-color:rgb(100%,81.960784%,20%);stop-opacity:1;"/>
<stop offset="1" style="stop-color:rgb(100%,77.254902%,0%);stop-opacity:1;"/>
</linearGradient>
</defs>
<g id="surface1">
<rect x="0" y="0" width="21" height="15" style="fill:url(#linear0);stroke:none;"/>
<path style=" stroke:none;fill-rule:evenodd;fill:url(#linear1);" d="M 0 0 L 21 0 L 21 4 L 0 4 Z M 0 0 "/>
<path style=" stroke:none;fill-rule:evenodd;fill:url(#linear2);" d="M 0 11 L 21 11 L 21 15 L 0 15 Z M 0 11 "/>
<path style=" stroke:none;fill-rule:evenodd;fill:url(#linear3);" d="M 0 4 L 21 4 L 21 11 L 0 11 Z M 0 4 "/>
<path style=" stroke:none;fill-rule:evenodd;fill:rgb(100%,92.941176%,69.411765%);fill-opacity:1;" d="M 5.5 7 L 6.5 7 L 6.5 7.5 L 5.5 7.5 Z M 5.5 7 "/>
<path style=" stroke:none;fill-rule:nonzero;fill:rgb(64.313725%,8.235294%,9.019608%);fill-opacity:1;" d="M 4.914062 8.460938 C 4.941406 8.753906 5.207031 9 5.5 9 C 5.792969 9 6.058594 8.753906 6.085938 8.460938 L 6.207031 7 L 4.792969 7 Z M 4.292969 6.996094 C 4.269531 6.722656 4.480469 6.5 4.757812 6.5 L 6.242188 6.5 C 6.523438 6.5 6.730469 6.714844 6.707031 6.996094 L 6.582031 8.5 C 6.539062 9.054688 6.054688 9.5 5.5 9.5 C 4.949219 9.5 4.464844 9.058594 4.417969 8.5 Z M 4.292969 6.996094 "/>
<path style=" stroke:none;fill-rule:evenodd;fill:rgb(64.313725%,8.235294%,9.019608%);fill-opacity:1;" d="M 4.5 7.5 L 6.5 7.5 L 6.5 8 L 6 8 L 5.5 9 L 5 8 L 4.5 8 Z M 4.5 7.5 "/>
<path style=" stroke:none;fill-rule:evenodd;fill:rgb(64.313725%,8.235294%,9.019608%);fill-opacity:1;" d="M 3 6 L 4 6 L 4 9.5 L 3 9.5 Z M 3 6 "/>
<path style=" stroke:none;fill-rule:evenodd;fill:rgb(64.313725%,8.235294%,9.019608%);fill-opacity:1;" d="M 7 6 L 8 6 L 8 9.5 L 7 9.5 Z M 7 6 "/>
<path style=" stroke:none;fill-rule:evenodd;fill:rgb(64.313725%,8.235294%,9.019608%);fill-opacity:1;" d="M 4.5 5.5 C 4.5 5.222656 4.714844 5 5.003906 5 L 5.996094 5 C 6.273438 5 6.5 5.230469 6.5 5.5 L 6.5 5.746094 C 6.5 5.886719 6.390625 6 6.253906 6 L 4.746094 6 C 4.609375 6 4.5 5.894531 4.5 5.746094 Z M 4.5 5.5 "/>
</g>
</svg>
