<?xml version="1.0" encoding="UTF-8"?>
<svg xmlns="http://www.w3.org/2000/svg" xmlns:xlink="http://www.w3.org/1999/xlink" width="21px" height="15px" viewBox="0 0 22 15" version="1.1">
<g id="surface1">
<rect x="0" y="0" width="22" height="15" style="fill:rgb(100%,100%,100%);fill-opacity:1;stroke:none;"/>
<path style=" stroke:none;fill-rule:nonzero;fill:rgb(0.392157%,25.490196%,10.980392%);fill-opacity:1;" d="M 5.5 0 L 22 0 L 22 15 L 5.5 15 Z M 5.5 0 "/>
<path style=" stroke:none;fill-rule:nonzero;fill:rgb(100%,100%,100%);fill-opacity:1;" d="M 18.148438 7.5 C 18.148438 9.984375 16.179688 12 13.75 12 C 11.320312 12 9.351562 9.984375 9.351562 7.5 C 9.351562 5.015625 11.320312 3 13.75 3 C 16.179688 3 18.148438 5.015625 18.148438 7.5 Z M 18.148438 7.5 "/>
<path style=" stroke:none;fill-rule:nonzero;fill:rgb(0.392157%,25.490196%,10.980392%);fill-opacity:1;" d="M 17.890625 3.738281 C 19.371094 5.441406 19.21875 8.046875 17.554688 9.5625 C 15.890625 11.074219 13.339844 10.921875 11.859375 9.21875 C 10.378906 7.515625 10.53125 4.90625 12.195312 3.394531 C 13.859375 1.882812 16.410156 2.035156 17.890625 3.738281 Z M 17.890625 3.738281 "/>
<path style=" stroke:none;fill-rule:nonzero;fill:rgb(100%,100%,100%);fill-opacity:1;" d="M 15.355469 4.132812 L 17.207031 6.265625 L 14.484375 5.652344 L 17.039062 4.511719 L 15.628906 6.972656 Z M 15.355469 4.132812 "/>
</g>
</svg>
