<?xml version="1.0" encoding="UTF-8"?>
<svg xmlns="http://www.w3.org/2000/svg" xmlns:xlink="http://www.w3.org/1999/xlink" width="21px" height="15px" viewBox="0 0 25 15" version="1.1">
<g id="surface1">
<rect x="0" y="0" width="25" height="15" style="fill:rgb(0%,69.411765%,25.098039%);fill-opacity:1;stroke:none;"/>
<path style=" stroke:none;fill-rule:nonzero;fill:rgb(100%,100%,100%);fill-opacity:1;" d="M 0 0 L 25 0 L 25 7.5 L 0 7.5 Z M 0 0 "/>
<path style="fill-rule:nonzero;fill:rgb(78.431373%,6.27451%,18.039216%);fill-opacity:1;stroke-width:1.8;stroke-linecap:butt;stroke-linejoin:miter;stroke:rgb(0%,0%,0%);stroke-opacity:1;stroke-miterlimit:4;" d="M 541.540938 28.59875 C 541.540938 28.59875 541.540938 28.59875 541.670625 28.59875 Z M 541.540938 28.59875 C 489.276875 57.519063 442.589375 87.606563 396.550313 125.864375 C 374.503438 145.187813 380.728437 160.490938 379.820625 177.869063 C 380.59875 189.41125 377.356562 200.175313 370.22375 206.789375 C 353.883125 210.031563 337.5425 213.403438 321.201875 216.645625 C 319.645625 212.106563 318.089375 207.697188 316.533125 203.158125 C 317.959687 196.155 323.665937 192.783125 335.726875 197.062813 C 336.764375 188.244063 329.501875 184.612813 321.201875 181.500313 C 318.219063 179.165938 314.7175 177.48 315.106562 169.828438 C 313.68 152.320625 341.822187 170.995625 342.081563 170.995625 C 342.340937 170.995625 341.044062 153.358125 328.205 149.856563 C 321.201875 147.3925 318.219063 140.000313 320.9425 134.553438 C 326.519063 123.270625 337.153437 135.331563 345.194063 135.850313 C 344.934687 128.458125 342.859688 123.270625 336.505 117.434688 C 333.133125 115.23 324.833125 113.67375 324.57375 110.172188 C 324.444062 105.503438 332.355 103.428438 343.378438 104.725313 C 341.044062 98.11125 333.651875 93.831563 323.53625 90.719063 C 321.590937 87.2175 319.515938 83.715938 317.570625 80.214375 C 314.7175 74.897188 313.420625 74.7675 320.034688 64.781563 C 325.870625 61.020625 333.781563 55.57375 339.747187 51.812813 C 337.5425 51.553438 335.337812 51.294063 333.133125 51.034688 C 334.040937 43.901875 334.170625 41.437813 335.726875 29.63625 C 329.372187 38.325313 321.46125 36.769063 314.328438 40.270625 C 314.328438 40.270625 294.097188 43.901875 287.483125 52.590938 C 287.22375 52.590938 236.38625 49.997188 236.38625 49.997188 C 225.4925 51.42375 216.284688 54.53625 214.469063 65.040938 C 189.69875 67.634688 163.76125 65.43 144.826875 89.033125 C 157.665938 88.514375 168.94875 85.401875 183.344063 87.2175 C 183.344063 87.2175 195.664375 87.476875 198.258125 100.575313 C 198.5175 101.094063 202.408125 101.094063 202.408125 101.094063 C 204.094063 102.26125 205.650313 103.558125 207.206563 104.725313 C 207.725313 103.039375 208.37375 101.483125 209.022188 99.797188 C 210.319063 100.705 211.745625 101.7425 213.172188 102.650313 C 213.56125 100.834688 214.08 99.019063 214.469063 97.203438 C 215.895625 98.11125 217.1925 99.14875 218.619063 100.056563 C 218.74875 97.851875 218.878438 95.647188 218.878438 93.572188 C 220.694063 94.869063 222.509688 96.165938 224.325313 97.462813 L 224.325313 88.903438 C 224.325313 88.903438 244.556563 88.77375 250.781563 101.612813 C 251.040938 101.872188 194.108125 112.1175 139.120625 107.319063 C 144.308125 104.725313 149.625313 102.131563 154.9425 99.537813 C 134.970625 95.5175 116.03625 91.756563 98.39875 77.88 C 105.012813 103.039375 139.509688 132.478438 146.6425 132.34875 C 146.6425 132.608125 139.89875 120.158125 139.89875 120.158125 C 159.740938 121.065938 179.712813 121.844063 199.555 122.751875 C 201.759688 129.365938 200.851875 136.758125 206.169063 142.594063 C 206.169063 142.594063 202.797188 153.487813 210.189375 158.026875 C 210.44875 158.545625 218.878438 135.850313 218.878438 135.850313 C 218.878438 135.850313 221.472188 141.945625 224.065938 145.965938 C 227.956563 126.512813 249.095625 123.270625 249.095625 123.270625 C 249.095625 123.270625 253.634688 133.515938 253.634688 133.775313 C 247.020625 134.683125 238.720625 148.170625 243.13 155.562813 C 238.720625 155.6925 230.809688 168.790938 233.27375 175.92375 C 229.512813 179.684688 220.175313 184.612813 222.509688 200.305 C 215.247188 201.86125 210.837813 215.219063 213.172188 229.484688 C 201.759688 239.989375 204.612813 259.4425 214.728438 267.22375 C 210.578438 270.984688 207.984688 273.837812 207.984688 278.506562 C 203.964375 276.950312 200.203438 278.247187 198.5175 280.840937 C 193.589375 275.912812 186.58625 271.503438 181.658125 276.172188 C 180.36125 270.206563 172.58 263.722188 164.150313 264.500313 C 164.539375 258.145625 161.297188 250.364375 152.34875 247.770625 C 152.34875 247.770625 150.533125 218.331563 141.714375 208.864375 C 140.806563 203.547188 142.103438 199.915938 149.495625 195.506563 C 156.887813 191.615938 158.314375 188.633125 157.795625 177.48 C 160.778438 170.087813 162.983125 162.565938 153.905 157.508125 C 154.164375 166.326875 151.570625 170.476875 147.939375 174.3675 C 143.659688 173.84875 142.233125 178.776875 139.250313 180.981563 C 135.359688 175.534688 147.809688 167.105 138.472188 155.044063 C 137.953438 154.525313 132.1175 139.351875 117.462813 139.740938 C 124.33625 143.76125 127.319063 150.634688 127.319063 157.7675 C 122.650313 170.73625 120.315938 180.851875 124.984688 195.765938 C 118.889375 186.687813 115.387813 169.309688 110.33 166.326875 C 105.920625 165.419063 103.845625 155.044063 86.597188 158.026875 C 93.989375 159.972188 96.32375 165.678438 98.39875 170.73625 C 93.859688 173.070625 96.064375 179.295625 99.43625 183.575313 C 98.787813 193.56125 104.753438 199.397188 113.701875 203.158125 C 112.275313 216.775313 110.84875 230.3925 109.2925 244.009688 C 105.790938 243.620625 100.214375 257.497187 98.139375 257.88625 C 94.637813 260.090937 88.5425 265.926875 95.545625 267.612813 C 93.470625 275.005 91.525313 279.544062 80.372188 281.100312 C 80.372188 281.100312 92.17375 288.103437 101.900313 276.172188 C 112.405 275.912812 108.903438 263.462812 113.96125 257.88625 C 113.96125 257.626875 116.814375 255.81125 121.094063 244.787813 C 122.909688 254.644063 133.025313 284.731562 155.720625 299.645625 C 175.562813 320.914375 191.903438 341.015938 191.77375 369.287813 C 199.555 362.155 204.094063 350.7425 207.725313 339.84875 C 218.489375 336.087812 233.922188 334.66125 247.669063 335.309687 C 245.205 340.237813 242.61125 344.906563 245.983125 348.14875 C 236.38625 351.520625 234.31125 358.394063 238.201875 365.397188 C 228.08625 372.270625 227.437813 376.68 227.308125 388.0925 C 208.503438 412.084688 196.96125 411.306562 178.415938 405.081563 C 172.320625 401.450312 162.983125 396.3925 158.57375 399.115938 C 150.662813 393.669062 139.120625 392.890938 137.175313 405.081563 C 143.270625 400.02375 146.772188 401.06125 151.570625 405.859688 C 150.662813 408.32375 149.884688 410.658125 153.38625 412.084688 C 151.83 413.770625 150.27375 415.58625 148.7175 417.272188 C 140.158125 415.975313 128.48625 416.105 125.503438 428.555 C 129.912813 424.92375 139.769063 424.015938 147.68 427.5175 C 149.106563 428.03625 150.662813 428.555 152.089375 429.07375 C 152.219063 431.019063 152.478438 433.094063 152.608125 435.039375 C 152.608125 435.039375 140.93625 433.22375 137.694063 452.287813 C 148.7175 440.615938 156.49875 443.59875 156.49875 443.59875 C 160.778438 449.82375 176.340938 448.915937 187.62375 438.670625 C 203.315938 429.851875 207.984688 442.56125 218.100313 434.26125 C 226.53 428.03625 236.515938 432.18625 243.389375 439.44875 C 251.300313 442.431562 259.600312 444.895625 266.084687 439.44875 C 266.084687 439.44875 274.125313 434.390938 282.03625 442.56125 C 282.165937 433.353437 275.551875 428.425313 266.603437 428.295625 L 264.009687 425.701875 C 255.709688 423.88625 246.2425 424.664375 238.98 420.384687 C 242.481563 407.415937 247.409688 395.484688 257.265938 385.49875 C 269.326875 372.53 278.275312 366.564375 293.44875 346.722188 C 292.93 358.005 301.489375 370.455 306.028437 381.8675 C 306.028437 381.8675 315.106562 367.3425 316.533125 355.41125 C 316.7925 355.41125 327.945625 349.705 332.614375 344.776875 C 342.73 351.001875 359.070625 339.719063 369.705 330.381562 C 376.189375 332.845625 381.1175 332.715937 388.769063 330.381562 C 382.67375 342.831563 392.270625 354.37375 407.57375 359.172188 C 409.000313 370.065938 420.02375 372.400312 436.753438 372.400312 C 437.401875 378.884687 447.387812 379.7925 447.387812 379.7925 C 441.162813 382.645625 437.790937 385.628438 438.050313 392.2425 C 431.565938 392.372187 426.637812 393.928438 424.951875 401.450312 C 416.133125 401.58 407.055 402.228437 399.403437 406.637812 C 391.233125 405.340937 381.376875 401.969063 374.8925 395.355 C 371.650312 392.631563 370.7425 388.61125 365.03625 387.055 C 361.275312 382.775312 356.995625 383.683125 355.569063 387.833125 C 351.808125 384.850313 337.672188 383.553438 335.208125 396.91125 C 341.822187 392.112813 347.787813 390.297188 351.937813 396.133125 C 349.733125 400.283125 357.514375 402.6175 364.258125 404.303438 C 369.056562 404.562813 377.48625 408.972188 380.08 416.234688 C 373.984688 418.18 364.647188 417.531563 358.422188 412.862813 C 352.975313 408.32375 345.583125 408.8425 341.562813 411.825312 C 335.856562 408.194063 322.49875 415.0675 321.98 425.96125 C 327.556562 420.77375 332.744062 418.18 337.931562 421.551875 C 335.337812 422.070625 336.245625 422.33 336.505 423.88625 C 340.914375 426.350313 345.194063 428.944063 349.603437 431.408125 C 343.24875 433.094063 337.153437 435.687813 340.006563 447.619062 C 340.006563 447.619062 345.194063 437.244062 356.865938 441.005 C 357.125313 440.745625 358.551875 444.765938 361.92375 442.0425 C 366.981562 436.33625 378.52375 433.7425 388.769063 432.705 C 396.939375 431.797188 405.109688 429.333125 412.2425 434.001875 C 418.597188 430.759687 425.600313 428.555 432.862813 433.7425 C 441.422188 436.465937 447.647188 446.322187 458.41125 441.783125 C 463.728438 438.151875 470.3425 437.8925 477.215937 445.544062 C 477.215937 435.947187 470.083125 432.705 459.9675 430.63 C 457.633125 429.203438 455.29875 427.776875 452.964375 426.48 C 446.48 425.4425 439.865938 426.609688 433.381563 423.497187 C 467.489375 414.678438 491.351875 395.744062 508.21125 368.509687 C 513.658125 370.455 518.975312 372.400312 524.422188 374.215937 C 528.183125 374.475313 528.572188 375.772188 536.353438 378.23625 C 536.7425 366.564375 531.684687 354.633125 510.805 353.465937 L 483.440938 342.96125 C 477.605 336.865938 475.01125 323.7675 482.403437 316.115937 C 489.665938 309.631562 490.962813 310.409688 495.76125 302.49875 C 501.597188 301.98 507.044062 307.945625 512.36125 307.945625 C 514.955 315.597188 529.739375 322.340937 539.076875 320.006562 C 544.912812 325.194062 556.065938 328.047188 568.256562 323.897187 C 575.13 329.9925 584.208125 332.456563 594.8425 327.787812 C 597.695625 330.640938 603.66125 332.845625 610.534688 331.419062 C 611.053437 331.419062 614.03625 339.070625 621.428437 341.664375 C 618.18625 344.776875 620.26125 358.653437 623.503438 363.581563 C 621.29875 368.89875 620.520625 374.475313 622.465937 380.051875 C 614.944062 384.850313 613.387812 388.481562 616.759688 396.651875 C 606.903437 412.603437 595.101875 414.419062 583.94875 409.490938 C 579.928437 407.026875 575.908125 404.433125 571.887812 401.969063 C 567.608125 397.689375 563.328438 393.539375 559.178437 389.389375 C 556.97375 387.314375 552.434687 386.665937 551.526875 391.205 C 551.526875 391.205 535.18625 387.57375 533.759688 401.450312 C 540.633125 394.83625 550.23 400.672188 550.23 400.931562 C 550.23 401.190938 547.895625 402.747187 549.71125 405.340937 C 550.100312 404.951875 561.6425 409.620625 572.0175 414.03 C 577.594063 416.234688 578.890938 416.883125 581.225312 418.18 C 578.631562 417.012812 575.389375 415.58625 572.0175 414.03 C 565.662812 411.695625 559.5675 409.750313 557.751875 410.269063 C 551.915938 409.750313 545.820625 408.972188 542.9675 413.381563 C 536.612813 416.105 526.88625 418.18 527.275313 429.851875 C 531.555 422.84875 537.390938 423.237813 544.783125 423.88625 C 544.52375 424.405 544.394063 424.92375 544.264375 425.4425 C 552.305 429.07375 550.74875 424.405 558.270625 423.756563 C 564.495625 423.108125 573.444062 425.4425 578.112813 426.99875 C 572.276875 428.684687 564.23625 428.03625 560.345625 432.18625 C 559.697188 433.612813 557.233125 432.964375 558.400313 436.33625 C 558.400313 436.33625 546.858125 436.076875 543.745625 452.028437 C 555.4175 444.506563 564.365937 444.765938 564.625313 444.765938 C 564.884688 444.765938 568.256562 445.544062 568.256562 445.544062 C 568.256562 445.544062 582.3925 436.076875 582.651875 436.076875 C 582.91125 436.076875 596.269063 430.11125 602.364375 436.855 C 607.81125 439.578438 613.5175 439.708125 619.094063 436.33625 C 630.1175 431.537813 640.362813 431.278437 650.478438 437.8925 L 659.556563 443.469063 C 660.853438 442.56125 662.150313 441.653437 663.447188 440.745625 C 663.447188 440.745625 673.822188 437.8925 681.344063 447.100313 C 678.231562 431.14875 666.819063 430.63 666.819063 430.63 C 666.040938 429.851875 665.133125 429.07375 664.225313 428.295625 C 658.908125 426.220625 653.46125 424.145625 648.144063 421.940938 C 645.68 416.234688 639.844063 411.565938 645.68 404.562813 C 651.775313 374.605 658.908125 352.169062 647.23625 321.822187 C 658.13 326.490937 666.300313 341.015938 679.9175 335.958125 C 679.9175 323.7675 635.045625 300.553437 600.808125 282.008125 C 656.962813 279.155 724.400313 237.784688 698.462813 185.131563 C 702.483125 172.422188 706.633125 159.712813 710.653437 147.003438 C 716.489375 158.675313 728.16125 167.494063 738.665938 171.255 C 729.976875 154.784688 725.04875 104.33625 729.976875 69.58 C 707.41125 97.462813 682.381563 122.233125 655.925313 147.3925 C 668.894063 150.505 680.306563 148.300313 693.015938 146.744063 C 689.384688 154.006563 685.883125 161.39875 682.381563 168.66125 C 647.884688 148.559688 607.422188 163.603438 607.162812 190.578438 C 608.33 221.962813 647.106562 226.501875 669.5425 215.478438 C 665.133125 244.139375 599.251875 233.634688 599.251875 233.634688 C 575.908125 225.594063 553.731562 226.890938 529.090937 227.150313 C 534.14875 211.458125 562.550313 197.451875 584.208125 203.676875 C 553.86125 169.69875 588.487813 127.68 630.1175 114.71125 C 584.726875 99.6675 623.762812 65.040938 657.740937 40.270625 C 657.740937 40.270625 560.08625 81.381563 551.137812 81.251875 C 523.384688 79.176875 530.906563 46.365938 541.540938 28.59875 Z M 234.959688 68.153438 C 237.294063 68.153438 239.887813 68.283125 242.0925 68.801875 C 246.501875 69.969063 251.819063 70.487813 251.689375 71.784688 C 249.744063 75.28625 244.68625 79.43625 239.758125 79.176875 C 234.83 78.9175 231.976875 75.934688 230.420625 68.5425 C 230.939375 68.283125 232.755 68.02375 234.959688 68.153438 Z M 646.069062 183.964375 C 652.553437 183.834688 660.205 186.558125 667.597188 194.469063 C 664.095625 204.844063 632.840937 210.290938 630.765938 194.858125 C 630.1175 190.189375 636.731562 184.094063 646.069062 183.964375 Z M 646.069062 183.964375 " transform="matrix(0.0301205,0,0,0.0301205,0.0518072,0.0292169)"/>
<path style="fill:none;stroke-width:1.8;stroke-linecap:butt;stroke-linejoin:round;stroke:rgb(0%,0%,0%);stroke-opacity:1;stroke-miterlimit:4;" d="M 267.251875 158.675313 L 272.050313 165.678438 M 271.790937 165.808125 C 271.790937 165.808125 271.790937 175.145625 273.73625 175.275313 M 269.456563 180.333125 C 269.58625 180.462813 274.384687 188.503438 274.384687 188.503438 M 260.7675 190.578438 C 261.026875 190.578438 266.862813 197.322188 266.862813 197.322188 M 271.920625 192.134688 C 271.920625 192.264375 277.3675 202.639375 277.756562 202.639375 M 264.658125 199.2675 C 264.658125 199.2675 266.603437 211.7175 268.289375 211.328438 M 256.487813 222.0925 L 262.064375 230.3925 M 266.862813 213.27375 C 266.862813 213.27375 269.845625 225.075313 272.18 224.037813 M 274.514375 206.140938 C 274.77375 206.270625 280.220625 214.051875 281.647187 213.014375 M 280.350312 215.997188 L 285.537812 226.372188 M 271.790937 224.037813 C 272.050313 224.426875 276.070625 236.228438 276.070625 236.228438 M 261.934687 230.262813 C 261.934687 230.262813 265.695625 243.36125 269.197187 241.28625 M 260.378438 247.640938 C 260.378438 247.640938 260.637812 254.514375 264.009687 255.033125 M 266.344063 244.269063 C 266.344063 244.39875 269.845625 249.197188 269.845625 249.197188 M 276.200312 236.09875 L 279.053437 240.637813 M 285.408125 227.669063 L 289.687813 232.98625 M 265.306562 165.937813 C 265.565938 171.77375 274.77375 163.862813 278.405 158.934688 M 261.415937 186.039375 C 261.415937 186.039375 271.531563 179.03625 279.312813 168.272188 M 258.17375 203.158125 C 265.306562 201.212813 278.405 185.390938 280.99875 176.96125 M 256.747187 218.850313 C 258.6925 219.628438 283.07375 202.120625 283.722188 189.151875 M 256.09875 232.337813 C 256.09875 232.208125 278.405 226.76125 287.612813 202.120625 M 254.801875 251.012813 C 254.801875 251.012813 290.465937 229.614375 292.41125 213.922188 M 533.240937 286.93625 C 533.240937 286.93625 530.906563 305.351875 512.36125 308.075312 M 539.076875 319.876875 C 539.206563 319.6175 556.714375 300.42375 552.175313 294.587812 M 579.539375 301.331563 C 579.539375 301.331563 579.28 314.689375 568.38625 323.897187 M 601.326875 305.222188 C 601.326875 305.222188 601.715937 321.303437 594.8425 327.787812 M 621.29875 314.819062 C 621.29875 314.819062 613.5175 329.9925 610.794062 331.54875 M 620.909688 341.664375 C 620.909688 341.664375 631.155 344.258125 634.397187 337.514375 M 623.633125 363.581563 C 623.633125 363.581563 632.970625 365.2675 637.38 356.319063 M 622.595625 380.570625 C 622.595625 380.570625 630.247187 386.925313 635.434687 378.495625 M 513.39875 256.070625 C 513.39875 256.070625 512.620625 288.881562 558.659688 295.495625 C 610.145625 309.76125 634.397187 302.239375 637.509688 359.950312 C 635.564375 381.8675 632.840937 406.637812 616.889375 397.170625 M 464.506563 286.287812 C 464.506563 286.287812 471.89875 299.38625 480.7175 298.608125 C 492.389375 295.106562 496.669062 302.239375 496.669062 302.239375 M 433.122187 299.38625 C 433.122187 299.38625 452.445625 308.853437 469.045625 293.550313 M 435.326875 285.89875 C 437.012812 308.464375 409.259687 321.433125 398.23625 319.228437 M 436.62375 372.53 C 436.753438 372.53 451.6675 363.581563 448.555 357.356562 M 407.055 359.301875 C 407.444063 358.783125 432.084688 356.44875 436.494062 347.63 M 395.6425 323.119062 C 395.6425 322.859688 430.528437 323.24875 432.862813 329.603437 M 441.940938 302.369062 C 441.940938 302.369062 407.962812 360.59875 470.86125 360.59875 M 406.0175 301.590937 C 406.0175 301.590937 398.625313 323.24875 388.250313 330.640938 M 369.834688 294.069062 C 369.834688 294.069062 382.414375 318.450312 369.705 330.51125 M 336.894063 300.9425 C 337.02375 301.331563 340.914375 335.569063 332.355 345.295625 M 320.42375 301.98 C 320.42375 301.98 321.720625 323.7675 315.365937 331.54875 C 308.881562 339.200312 316.7925 355.41125 316.7925 355.41125 M 238.331563 365.78625 C 238.331563 365.78625 243.000313 373.956563 249.355 371.103437 M 246.112813 348.019063 C 246.112813 348.019063 256.487813 352.558125 259.989375 350.872187 M 257.395625 311.447187 C 257.395625 311.447187 242.0925 315.726875 247.928438 333.883125 C 256.747187 341.015938 265.306562 339.84875 265.306562 339.84875 M 227.178438 388.351875 C 227.04875 388.351875 228.994063 402.6175 238.850313 391.853437 C 245.72375 377.328438 267.51125 336.606562 272.439375 322.600312 M 282.555 315.98625 C 282.555 315.98625 272.050313 307.815938 272.439375 319.228437 C 272.18 326.36125 275.681562 328.047188 275.681562 328.047188 C 276.070625 333.234688 280.609688 340.497187 284.240937 333.883125 C 285.797188 327.39875 283.203438 324.545625 283.203438 324.545625 M 289.29875 313.003438 C 279.831563 312.355 274.644063 333.234688 292.93 320.13625 M 299.155 305.870625 C 299.155 305.870625 296.820625 309.112813 293.059687 305.61125 C 291.244062 302.239375 284.240937 321.17375 296.301875 321.822187 C 298.506562 316.245625 305.120625 314.689375 305.120625 314.689375 M 310.826875 296.7925 C 310.826875 296.7925 305.38 299.38625 303.434687 298.997187 C 296.950312 300.42375 298.247187 315.597188 306.4175 314.689375 C 309.270625 311.447187 312.253438 306.908125 312.253438 306.908125 M 259.989375 277.08 C 259.73 277.08 238.590938 310.409688 271.790937 319.228437 M 528.4425 227.020625 C 528.4425 227.020625 515.603438 238.044063 527.664375 255.681563 C 487.590937 255.033125 466.062813 273.578438 464.376875 286.028437 C 413.28 282.397187 422.487813 297.440938 406.0175 302.369062 C 383.840937 283.953438 351.289375 294.19875 353.364375 312.744062 C 338.58 291.864375 315.755 301.98 312.901875 307.1675 C 310.178437 312.355 311.215937 281.489375 311.215937 281.489375 C 311.215937 281.489375 296.301875 288.233125 286.056562 300.42375 C 286.18625 292.253438 286.056562 278.895625 286.056562 274.615937 C 273.606562 277.08 261.545625 277.339375 248.706563 276.950312 M 215.1175 267.483125 C 215.1175 267.483125 233.662813 277.858125 256.487813 263.851875 M 213.690938 230.262813 C 213.690938 230.262813 228.08625 243.231563 255.190938 239.081563 M 222.639375 200.564375 C 222.639375 200.564375 225.881563 211.069063 256.876875 211.7175 M 233.144063 176.183125 C 233.144063 176.183125 244.815938 190.44875 260.637812 188.244063 M 243.13 155.6925 C 243.13 155.6925 247.669063 163.47375 264.9175 164.770625 M 253.245625 133.126875 C 253.245625 133.126875 262.32375 142.983125 272.69875 141.297188 M 307.065938 52.590938 C 307.065938 52.590938 311.08625 48.570625 317.83 50.645625 M 304.212812 73.73 C 304.212812 73.73 291.762812 73.340938 292.670625 68.412813 C 293.578438 62.83625 305.769063 58.815938 305.769063 58.815938 C 305.769063 58.815938 321.98 48.440938 324.444062 44.809688 M 251.040938 101.7425 L 266.862813 132.089375 L 274.384687 120.676875 L 278.405 128.458125 L 284.889375 117.175313 L 295.912812 124.308125 L 291.762812 110.431563 L 301.100312 109.783125 C 301.100312 109.783125 298.63625 103.169063 290.206563 101.7425 C 292.41125 100.056563 300.1925 94.869063 300.1925 94.869063 C 300.1925 94.869063 295.783125 89.81125 288.78 89.551875 C 291.114375 87.087813 294.226875 81.122188 293.9675 81.122188 C 293.708125 81.122188 287.094063 79.565938 287.094063 79.565938 C 287.094063 79.565938 302.915937 84.62375 315.106562 77.490938 M 284.889375 53.109688 C 285.019063 53.239375 283.981562 59.334688 280.609688 62.83625 M 223.93625 69.709688 C 223.93625 69.709688 233.662813 67.115938 240.925313 68.5425 C 248.187813 70.09875 257.914375 72.6925 257.914375 72.6925 C 257.914375 72.6925 269.456563 71.13625 273.2175 68.412813 M 199.684688 76.194063 C 199.684688 76.194063 198.258125 80.862813 197.869063 83.975313 C 197.869063 86.18 190.73625 89.162813 190.73625 89.162813 M 204.094063 66.597188 C 204.094063 66.597188 210.319063 74.378438 210.578438 78.9175 C 210.708125 83.326875 205.909688 86.69875 205.909688 86.69875 M 139.769063 119.89875 L 133.284688 109.394063 L 139.120625 107.319063 M 256.358125 264.11125 C 251.170625 257.3675 260.119062 154.914375 279.312813 128.19875 C 272.69875 176.4425 294.875313 225.72375 300.451875 225.594063 M 197.99875 99.537813 C 197.99875 99.537813 206.8175 102.909688 224.844063 88.514375 M 249.355 123.270625 L 262.32375 123.400313 M 651.775313 42.864375 C 651.775313 42.864375 435.58625 143.890938 432.47375 149.208125 C 468.915938 138.314375 623.762812 112.506563 627.52375 114.71125 C 618.445625 116.915938 430.528437 159.972188 421.709688 170.347188 C 468.656563 168.790938 566.83 185.520625 582.262812 201.472188 C 548.803437 193.950313 449.07375 179.165938 418.597188 185.78 C 440.903437 191.097188 526.497187 246.47375 526.497187 255.2925 C 513.658125 243.101875 410.68625 200.564375 406.665937 204.714375 C 430.269063 218.850313 463.59875 271.37375 463.59875 284.212812 C 456.595625 273.319062 397.19875 209.383125 393.697187 213.403438 C 400.051875 222.222188 412.501875 297.700312 406.147188 301.201875 C 406.147188 291.994062 383.062813 226.112813 381.1175 224.1675 C 376.44875 225.464375 347.009687 304.703438 352.845625 312.095625 C 349.084688 285.639375 353.494062 230.522188 360.626875 232.726875 C 347.787813 234.5425 306.547188 288.881562 310.956563 297.31125 C 312.253438 283.82375 314.069062 274.875313 337.412813 229.87375 C 311.605 231.43 258.044062 265.019063 248.965938 277.08 C 256.228437 255.681563 301.489375 219.49875 321.331563 216.905 M 414.706563 138.184688 C 437.531563 125.475313 508.081563 99.6675 555.158125 80.603438 M 370.353437 206.400313 C 370.353437 206.400313 385.915937 206.140938 401.478437 163.862813 C 416.781563 106.022188 538.558125 41.5675 541.022187 29.506563 M 164.28 264.63 C 164.28 264.63 160.64875 272.281563 156.239375 274.48625 M 181.787813 276.301875 C 181.787813 276.301875 176.989375 285.639375 175.822188 290.04875 M 198.5175 280.840937 C 198.5175 280.840937 202.537813 293.68 199.165938 299.645625 M 151.959688 247.640938 C 139.769063 254.514375 158.962813 298.089375 216.933125 302.369062 M 207.595625 278.765938 C 207.595625 278.765938 206.039375 286.547188 216.933125 302.109688 C 213.820625 319.487813 230.16125 333.105 236.645625 335.309687 M 202.926875 122.362813 C 202.926875 122.103438 204.7425 117.694063 204.7425 117.694063 L 206.687813 122.751875 L 209.93 122.751875 L 212.005 117.564375 L 213.820625 122.751875 L 216.933125 122.751875 L 218.878438 116.915938 L 221.86125 122.362813 L 224.325313 122.4925 L 226.270625 115.878438 L 230.420625 120.676875 L 231.847188 120.158125 L 233.144063 113.414375 L 237.164375 118.083125 L 238.331563 117.434688 L 240.276875 110.950313 L 243.519063 115.74875 L 245.205 115.23 L 246.76125 109.653438 L 249.87375 114.71125 M 199.425313 122.881563 L 223.676875 122.4925 C 231.328438 122.4925 244.037813 111.728438 258.303437 115.100313 M 148.19875 174.88625 C 148.19875 174.88625 152.219063 183.575313 157.795625 178.647188 M 138.86125 180.5925 C 138.86125 180.5925 131.08 201.601875 140.4175 206.400313 M 127.708125 157.508125 C 127.708125 157.508125 127.708125 162.43625 137.953438 154.784688 M 95.934688 267.353437 C 95.934688 267.353437 104.105 269.8175 102.808125 276.0425 M 99.047188 171.255 C 99.047188 171.255 104.105 173.719063 109.033125 166.197188 M 153.256563 412.084688 C 161.297188 411.565938 163.112813 415.197187 170.375313 415.197187 C 178.675313 415.456563 186.975313 412.084688 197.609688 409.101875 M 266.344063 428.555 C 266.084687 428.555 262.583125 436.076875 265.695625 439.837812 M 152.219063 429.203438 C 152.219063 429.203438 164.928438 418.69875 171.5425 425.183125 C 178.026875 427.387812 181.528438 426.99875 181.528438 426.99875 M 158.833125 399.375313 C 158.833125 399.375313 161.945625 407.415937 151.570625 406.24875 M 148.458125 417.790937 C 148.458125 417.790937 155.072188 422.070625 147.550313 427.647188 M 152.478438 435.169062 C 152.478438 435.169062 161.556563 436.465937 156.239375 443.858125 M 447.128438 379.7925 C 447.128438 379.7925 471.89875 382.256563 473.065938 384.201875 C 475.919062 381.219063 497.965937 363.1925 470.86125 360.728437 C 466.322188 379.403437 447.5175 380.051875 447.128438 379.7925 Z M 438.309687 392.112813 C 447.5175 399.505 443.756563 403.914375 472.806563 384.46125 M 425.081563 401.450312 C 425.081563 401.450312 438.69875 416.105 448.684687 398.208125 M 399.014375 406.637812 L 380.469063 416.364375 M 347.139375 429.981562 C 347.139375 429.981562 358.422188 420.384687 363.739375 425.4425 C 368.926875 430.63 391.362813 421.033125 391.362813 421.033125 M 355.569063 387.962812 C 355.569063 387.962812 359.459688 395.744062 352.0675 396.651875 M 340.914375 412.084688 C 340.914375 412.084688 344.805 419.347188 337.283125 421.2925 M 349.603437 431.6675 C 349.603437 431.6675 361.275312 432.315938 357.125313 441.134687 M 458.800313 430.11125 C 458.800313 430.11125 452.445625 435.558125 457.114375 441.653437 M 551.78625 391.334688 C 551.78625 391.334688 559.178437 394.83625 550.359688 400.931562 M 542.9675 413.770625 C 542.9675 413.770625 548.544062 419.606562 544.783125 424.405 M 558.53 436.076875 C 558.53 436.076875 566.181563 438.281563 565.27375 444.63625 M 666.170625 430.500313 C 666.170625 430.500313 659.68625 435.169062 663.187813 441.264375 M 552.045625 243.231563 C 567.34875 241.415938 589.395625 275.653437 600.678437 282.2675 M 667.98625 194.858125 C 667.98625 194.858125 675.7675 201.731563 668.894063 218.072188 M 682.381563 168.66125 C 684.58625 170.347188 692.88625 174.88625 698.462813 185.26125 M 703.78 117.564375 C 703.78 117.694063 693.015938 146.744063 693.015938 146.744063 M 715.840937 116.137813 C 715.840937 116.137813 713.765938 142.075313 710.653437 147.262813 M 667.726875 194.59875 C 664.095625 204.97375 632.840937 210.16125 630.765938 194.858125 C 629.59875 187.076875 649.181563 175.015938 667.726875 194.59875 Z M 667.726875 194.59875 " transform="matrix(0.0301205,0,0,0.0301205,0.0518072,0.0292169)"/>
<path style="fill-rule:nonzero;fill:rgb(0%,0%,0%);fill-opacity:1;stroke-width:1.8;stroke-linecap:butt;stroke-linejoin:round;stroke:rgb(0%,0%,0%);stroke-opacity:1;stroke-miterlimit:4;" d="M 234.700313 68.153438 L 246.76125 70.358125 C 246.76125 70.358125 238.331563 81.770625 234.700313 68.153438 Z M 234.700313 68.153438 " transform="matrix(0.0301205,0,0,0.0301205,0.0518072,0.0292169)"/>
</g>
</svg>
